<svg xmlns="http://www.w3.org/2000/svg" xmlns:xlink="http://www.w3.org/1999/xlink" width="769pt" height="257pt" viewBox="0 0 768.51 257"><g id="graph0" class="graph" transform="scale(1 1) rotate(0) translate(4 253)"><title>StorageDiagram</title><polygon fill="#fff" stroke="transparent" points="-4 4 -4 -253 764.51 -253 764.51 4 -4 4"/><g id="node1" class="node"><title>1</title><polygon fill="#f2f2f2" stroke="#000" points="0 -.5 0 -248.5 760.51 -248.5 760.51 -.5 0 -.5"/><text x="380.26" y="-231.9" font-family="Courier New" font-size="14" text-anchor="middle">BasicStorage &lt;&lt;Contract&gt;&gt;</text><polyline fill="none" stroke="#000" points="0 -223.7 760.51 -223.7"/><text x="24.8" y="-207.1" font-family="Courier New" font-size="14" text-anchor="middle">slot</text><polyline fill="none" stroke="#000" points="0 -198.9 49.61 -198.9"/><text x="24.8" y="-182.3" font-family="Courier New" font-size="14" text-anchor="middle">0</text><polyline fill="none" stroke="#000" points="0 -174.1 49.61 -174.1"/><text x="24.8" y="-157.5" font-family="Courier New" font-size="14" text-anchor="middle">1</text><polyline fill="none" stroke="#000" points="0 -149.3 49.61 -149.3"/><text x="24.8" y="-132.7" font-family="Courier New" font-size="14" text-anchor="middle">2</text><polyline fill="none" stroke="#000" points="0 -124.5 49.61 -124.5"/><text x="24.8" y="-107.9" font-family="Courier New" font-size="14" text-anchor="middle">3</text><polyline fill="none" stroke="#000" points="0 -99.7 49.61 -99.7"/><text x="24.8" y="-83.1" font-family="Courier New" font-size="14" text-anchor="middle">4</text><polyline fill="none" stroke="#000" points="0 -74.9 49.61 -74.9"/><text x="24.8" y="-58.3" font-family="Courier New" font-size="14" text-anchor="middle">5</text><polyline fill="none" stroke="#000" points="0 -50.1 49.61 -50.1"/><text x="24.8" y="-33.5" font-family="Courier New" font-size="14" text-anchor="middle">6</text><polyline fill="none" stroke="#000" points="0 -25.3 49.61 -25.3"/><text x="24.8" y="-8.7" font-family="Courier New" font-size="14" text-anchor="middle">7</text><polyline fill="none" stroke="#000" points="49.61 -.5 49.61 -223.7"/><text x="405.06" y="-207.1" font-family="Courier New" font-size="14" text-anchor="middle">type: &lt;inherited contract&gt;.variable (bytes)</text><polyline fill="none" stroke="#000" points="49.61 -198.9 760.51 -198.9"/><text x="124.82" y="-182.3" font-family="Courier New" font-size="14" text-anchor="middle">unallocated (29)</text><polyline fill="none" stroke="#000" points="200.03 -174.1 200.03 -198.9"/><text x="296.24" y="-182.3" font-family="Courier New" font-size="14" text-anchor="middle">uint8: tinyNumber (1)</text><polyline fill="none" stroke="#000" points="392.46 -174.1 392.46 -198.9"/><text x="492.87" y="-182.3" font-family="Courier New" font-size="14" text-anchor="middle">Severity: severity (1)</text><polyline fill="none" stroke="#000" points="593.29 -174.1 593.29 -198.9"/><text x="676.9" y="-182.3" font-family="Courier New" font-size="14" text-anchor="middle">bool: someBool (1)</text><polyline fill="none" stroke="#000" points="49.61 -174.1 760.51 -174.1"/><text x="404.72" y="-157.5" font-family="Courier New" font-size="14" text-anchor="middle">uint256: fullSlotNumber (32)</text><polyline fill="none" stroke="#000" points="49.61 -149.3 760.51 -149.3"/><text x="131.32" y="-132.7" font-family="Courier New" font-size="14" text-anchor="middle">unallocated (14)</text><polyline fill="none" stroke="#000" points="213.03 -124.5 213.03 -149.3"/><text x="345.65" y="-132.7" font-family="Courier New" font-size="14" text-anchor="middle">uint128: halfSlotNumber (16)</text><polyline fill="none" stroke="#000" points="478.27 -124.5 478.27 -149.3"/><text x="619.29" y="-132.7" font-family="Courier New" font-size="14" text-anchor="middle">int16: smallNegativeNumber (2)</text><polyline fill="none" stroke="#000" points="49.61 -124.5 760.51 -124.5"/><text x="220.82" y="-107.9" font-family="Courier New" font-size="14" text-anchor="middle">unallocated (12)</text><polyline fill="none" stroke="#000" points="392.03 -99.7 392.03 -124.5"/><text x="575.84" y="-107.9" font-family="Courier New" font-size="14" text-anchor="middle">address: owner (20)</text><polyline fill="none" stroke="#000" points="49.61 -99.7 760.51 -99.7"/><text x="120.62" y="-83.1" font-family="Courier New" font-size="14" text-anchor="middle">unallocated (3)</text><polyline fill="none" stroke="#000" points="191.63 -74.9 191.63 -99.7"/><text x="292.04" y="-83.1" font-family="Courier New" font-size="14" text-anchor="middle">bytes8: eightBytes (8)</text><polyline fill="none" stroke="#000" points="392.46 -74.9 392.46 -99.7"/><text x="480.27" y="-83.1" font-family="Courier New" font-size="14" text-anchor="middle">bytes1: oneByte (1)</text><polyline fill="none" stroke="#000" points="568.08 -74.9 568.08 -99.7"/><text x="664.3" y="-83.1" font-family="Courier New" font-size="14" text-anchor="middle">ITrade: exchange (20)</text><polyline fill="none" stroke="#000" points="49.61 -74.9 760.51 -74.9"/><text x="405.02" y="-58.3" font-family="Courier New" font-size="14" text-anchor="middle">bytes32: fullSlotBytes (32)</text><polyline fill="none" stroke="#000" points="49.61 -50.1 760.51 -50.1"/><text x="405.02" y="-33.5" font-family="Courier New" font-size="14" text-anchor="middle">string: name (32)</text><polyline fill="none" stroke="#000" points="49.61 -25.3 760.51 -25.3"/><text x="404.82" y="-8.7" font-family="Courier New" font-size="14" text-anchor="middle">bytes: data (32)</text></g></g></svg>