<svg xmlns="http://www.w3.org/2000/svg" xmlns:xlink="http://www.w3.org/1999/xlink" width="1532pt" height="425pt" viewBox="0 0 1532.23 425"><g id="graph0" class="graph" transform="scale(1 1) rotate(0) translate(4 421)"><title>StorageDiagram</title><polygon fill="#fff" stroke="transparent" points="-4 4 -4 -421 1528.23 -421 1528.23 4 -4 4"/><g id="node1" class="node"><title>1</title><polygon fill="#f2f2f2" stroke="#000" points="0 -.5 0 -416.5 1524.23 -416.5 1524.23 -.5 0 -.5"/><text x="762.12" y="-399.9" font-family="Courier New" font-size="14" text-anchor="middle">BasicStorage &lt;&lt;Contract&gt;&gt;</text><text x="762.12" y="-383.1" font-family="Courier New" font-size="14" text-anchor="middle">0x8E2587265C68CD9EE3EcBf22DC229980b47CB960</text><polyline fill="none" stroke="#000" points="0 -374.9 1524.23 -374.9"/><text x="24.8" y="-358.3" font-family="Courier New" font-size="14" text-anchor="middle">slot</text><polyline fill="none" stroke="#000" points="0 -333.3 49.61 -333.3"/><text x="24.8" y="-316.7" font-family="Courier New" font-size="14" text-anchor="middle">0</text><polyline fill="none" stroke="#000" points="0 -291.7 49.61 -291.7"/><text x="24.8" y="-275.1" font-family="Courier New" font-size="14" text-anchor="middle">1</text><polyline fill="none" stroke="#000" points="0 -250.1 49.61 -250.1"/><text x="24.8" y="-233.5" font-family="Courier New" font-size="14" text-anchor="middle">2</text><polyline fill="none" stroke="#000" points="0 -208.5 49.61 -208.5"/><text x="24.8" y="-191.9" font-family="Courier New" font-size="14" text-anchor="middle">3</text><polyline fill="none" stroke="#000" points="0 -166.9 49.61 -166.9"/><text x="24.8" y="-150.3" font-family="Courier New" font-size="14" text-anchor="middle">4</text><polyline fill="none" stroke="#000" points="0 -125.3 49.61 -125.3"/><text x="24.8" y="-108.7" font-family="Courier New" font-size="14" text-anchor="middle">5</text><polyline fill="none" stroke="#000" points="0 -83.7 49.61 -83.7"/><text x="24.8" y="-67.1" font-family="Courier New" font-size="14" text-anchor="middle">6</text><polyline fill="none" stroke="#000" points="0 -42.1 49.61 -42.1"/><text x="24.8" y="-25.5" font-family="Courier New" font-size="14" text-anchor="middle">7</text><polyline fill="none" stroke="#000" points="49.61 -.5 49.61 -374.9"/><text x="334.85" y="-358.3" font-family="Courier New" font-size="14" text-anchor="middle">value</text><polyline fill="none" stroke="#000" points="49.61 -333.3 620.1 -333.3"/><text x="334.85" y="-316.7" font-family="Courier New" font-size="14" text-anchor="middle">0x0000000000000000000000000000000000000000000000000000000000FA0101</text><polyline fill="none" stroke="#000" points="49.61 -291.7 620.1 -291.7"/><text x="334.85" y="-275.1" font-family="Courier New" font-size="14" text-anchor="middle">0x00000000000000000000000000000000000000000000043C33C1937564800000</text><polyline fill="none" stroke="#000" points="49.61 -250.1 620.1 -250.1"/><text x="334.85" y="-233.5" font-family="Courier New" font-size="14" text-anchor="middle">0x0000000000000000000000000000000000000000021E19E0C9BAB2400000D8F0</text><polyline fill="none" stroke="#000" points="49.61 -208.5 620.1 -208.5"/><text x="334.85" y="-191.9" font-family="Courier New" font-size="14" text-anchor="middle">0x0000000000000000000000008E2587265C68CD9EE3ECBF22DC229980B47CB960</text><polyline fill="none" stroke="#000" points="49.61 -166.9 620.1 -166.9"/><text x="334.85" y="-150.3" font-family="Courier New" font-size="14" text-anchor="middle">0x0000008100FF81C300FF01FF1C727A55EA3C11B0AB7D3A361FE0F3C47CE6DE5D</text><polyline fill="none" stroke="#000" points="49.61 -125.3 620.1 -125.3"/><text x="334.85" y="-108.7" font-family="Courier New" font-size="14" text-anchor="middle">0xE9B69CD5563A8BFBFFB0FA4F422862013492D43FE7FB62D771A0147B6E891D13</text><polyline fill="none" stroke="#000" points="49.61 -83.7 620.1 -83.7"/><text x="334.85" y="-67.1" font-family="Courier New" font-size="14" text-anchor="middle">0x426173696353746F7261676520636F6E7472616374000000000000000000002A</text><polyline fill="none" stroke="#000" points="49.61 -42.1 620.1 -42.1"/><text x="334.85" y="-25.5" font-family="Courier New" font-size="14" text-anchor="middle">0xFFEEDDCCBBAA9988770011000000000000000000000000000000000000000016</text><polyline fill="none" stroke="#000" points="620.1 -.5 620.1 -374.9"/><text x="1072.16" y="-358.3" font-family="Courier New" font-size="14" text-anchor="middle">type: &lt;inherited contract&gt;.variable (bytes)</text><text x="1072.16" y="-341.5" font-family="Courier New" font-size="14" text-anchor="middle">decoded data</text><polyline fill="none" stroke="#000" points="620.1 -333.3 1524.23 -333.3"/><text x="719.31" y="-308.3" font-family="Courier New" font-size="14" text-anchor="middle">unallocated (29)</text><polyline fill="none" stroke="#000" points="818.52 -291.7 818.52 -333.3"/><text x="938.73" y="-316.7" font-family="Courier New" font-size="14" text-anchor="middle">uint8: tinyNumber (1)</text><text x="938.73" y="-299.9" font-family="Courier New" font-size="14" text-anchor="middle">250</text><polyline fill="none" stroke="#000" points="1058.95 -291.7 1058.95 -333.3"/><text x="1183.36" y="-316.7" font-family="Courier New" font-size="14" text-anchor="middle">Severity: severity (1)</text><text x="1183.36" y="-299.9" font-family="Courier New" font-size="14" text-anchor="middle">Medium</text><polyline fill="none" stroke="#000" points="1307.78 -291.7 1307.78 -333.3"/><text x="1415.89" y="-316.7" font-family="Courier New" font-size="14" text-anchor="middle">bool: someBool (1)</text><text x="1415.89" y="-299.9" font-family="Courier New" font-size="14" text-anchor="middle">true</text><polyline fill="none" stroke="#000" points="620.1 -291.7 1524.23 -291.7"/><text x="1072.02" y="-275.1" font-family="Courier New" font-size="14" text-anchor="middle">uint256: fullSlotNumber (32)</text><text x="1072.02" y="-258.3" font-family="Courier New" font-size="14" text-anchor="middle">20,000,000,000,000,000,000,000</text><polyline fill="none" stroke="#000" points="620.1 -250.1 1524.23 -250.1"/><text x="727.31" y="-225.1" font-family="Courier New" font-size="14" text-anchor="middle">unallocated (14)</text><polyline fill="none" stroke="#000" points="834.52 -208.5 834.52 -250.1"/><text x="1013.14" y="-233.5" font-family="Courier New" font-size="14" text-anchor="middle">uint128: halfSlotNumber (16)</text><text x="1013.14" y="-216.7" font-family="Courier New" font-size="14" text-anchor="middle">10,000,000,000,000,000,000,000</text><polyline fill="none" stroke="#000" points="1191.76 -208.5 1191.76 -250.1"/><text x="1357.78" y="-233.5" font-family="Courier New" font-size="14" text-anchor="middle">int16: smallNegativeNumber (2)</text><text x="1357.78" y="-216.7" font-family="Courier New" font-size="14" text-anchor="middle">-10,000</text><polyline fill="none" stroke="#000" points="620.1 -208.5 1524.23 -208.5"/><text x="787.31" y="-183.5" font-family="Courier New" font-size="14" text-anchor="middle">unallocated (12)</text><polyline fill="none" stroke="#000" points="954.52 -166.9 954.52 -208.5"/><text x="1239.35" y="-191.9" font-family="Courier New" font-size="14" text-anchor="middle">address: owner (20)</text><text x="1239.35" y="-175.1" font-family="Courier New" font-size="14" text-anchor="middle">0x8E2587265C68CD9EE3EcBf22DC229980b47CB960</text><polyline fill="none" stroke="#000" points="620.1 -166.9 1524.23 -166.9"/><text x="691.11" y="-141.9" font-family="Courier New" font-size="14" text-anchor="middle">unallocated (3)</text><polyline fill="none" stroke="#000" points="762.12 -125.3 762.12 -166.9"/><text x="862.53" y="-150.3" font-family="Courier New" font-size="14" text-anchor="middle">bytes8: eightBytes (8)</text><text x="862.53" y="-133.5" font-family="Courier New" font-size="14" text-anchor="middle">0x8100FF81C300FF01</text><polyline fill="none" stroke="#000" points="962.95 -125.3 962.95 -166.9"/><text x="1050.76" y="-150.3" font-family="Courier New" font-size="14" text-anchor="middle">bytes1: oneByte (1)</text><text x="1050.76" y="-133.5" font-family="Courier New" font-size="14" text-anchor="middle">0xFF</text><polyline fill="none" stroke="#000" points="1138.57 -125.3 1138.57 -166.9"/><text x="1331.4" y="-150.3" font-family="Courier New" font-size="14" text-anchor="middle">ITrade: exchange (20)</text><text x="1331.4" y="-133.5" font-family="Courier New" font-size="14" text-anchor="middle">0x1C727a55eA3c11B0ab7D3a361Fe0F3C47cE6de5d</text><polyline fill="none" stroke="#000" points="620.1 -125.3 1524.23 -125.3"/><text x="1071.74" y="-108.7" font-family="Courier New" font-size="14" text-anchor="middle">bytes32: fullSlotBytes (32)</text><text x="1071.74" y="-91.9" font-family="Courier New" font-size="14" text-anchor="middle">0xE9B69CD5563A8BFBFFB0FA4F422862013492D43FE7FB62D771A0147B6E891D13</text><polyline fill="none" stroke="#000" points="620.1 -83.7 1524.23 -83.7"/><text x="1072.11" y="-67.1" font-family="Courier New" font-size="14" text-anchor="middle">string: name (32)</text><text x="1072.11" y="-50.3" font-family="Courier New" font-size="14" text-anchor="middle">&quot;BasicStorage contract&quot;</text><polyline fill="none" stroke="#000" points="620.1 -42.1 1524.23 -42.1"/><text x="1071.81" y="-25.5" font-family="Courier New" font-size="14" text-anchor="middle">bytes: data (32)</text><text x="1071.81" y="-8.7" font-family="Courier New" font-size="14" text-anchor="middle">0xFFEEDDCCBBAA9988770011</text></g></g></svg>