<svg xmlns="http://www.w3.org/2000/svg" xmlns:xlink="http://www.w3.org/1999/xlink" width="2348" height="922pt" viewBox="0 0 1761.46 921.6"><g id="graph0" class="graph" transform="scale(1 1) rotate(0) translate(4 917.6)"><title>StorageDiagram</title><polygon fill="#fff" stroke="transparent" points="-4 4 -4 -917.6 1757.46 -917.6 1757.46 4 -4 4"/><g id="node1" class="node"><title>5</title><polygon fill="#f2f2f2" stroke="#000" points="0 -444.1 0 -626.5 493.27 -626.5 493.27 -444.1 0 -444.1"/><text x="246.64" y="-609.9" font-family="Courier New" font-size="14" text-anchor="middle">FixedArrayStorage &lt;&lt;Contract&gt;&gt;</text><text x="246.64" y="-593.1" font-family="Courier New" font-size="14" text-anchor="middle">0x796c008d8ADDCc33Da3e946Ca457432a35913c85</text><polyline fill="none" stroke="#000" points="0 -584.9 493.27 -584.9"/><text x="29" y="-568.3" font-family="Courier New" font-size="14" text-anchor="middle">slot</text><polyline fill="none" stroke="#000" points="0 -543.3 58.01 -543.3"/><text x="29" y="-526.7" font-family="Courier New" font-size="14" text-anchor="middle">0-1</text><polyline fill="none" stroke="#000" points="0 -518.5 58.01 -518.5"/><text x="29" y="-501.9" font-family="Courier New" font-size="14" text-anchor="middle">2-7</text><polyline fill="none" stroke="#000" points="0 -493.7 58.01 -493.7"/><text x="29" y="-477.1" font-family="Courier New" font-size="14" text-anchor="middle">8-10</text><polyline fill="none" stroke="#000" points="0 -468.9 58.01 -468.9"/><text x="29" y="-452.3" font-family="Courier New" font-size="14" text-anchor="middle">11-60</text><polyline fill="none" stroke="#000" points="58.01 -444.1 58.01 -584.9"/><text x="87.01" y="-568.3" font-family="Courier New" font-size="14" text-anchor="middle">value</text><polyline fill="none" stroke="#000" points="58.01 -543.3 116.01 -543.3"/><polyline fill="none" stroke="#000" points="58.01 -518.5 116.01 -518.5"/><polyline fill="none" stroke="#000" points="58.01 -493.7 116.01 -493.7"/><polyline fill="none" stroke="#000" points="58.01 -468.9 116.01 -468.9"/><polyline fill="none" stroke="#000" points="116.01 -444.1 116.01 -584.9"/><text x="304.64" y="-568.3" font-family="Courier New" font-size="14" text-anchor="middle">type: &lt;inherited contract&gt;.variable (bytes)</text><text x="304.64" y="-551.5" font-family="Courier New" font-size="14" text-anchor="middle">decoded data</text><polyline fill="none" stroke="#000" points="116.01 -543.3 493.27 -543.3"/><text x="304.44" y="-526.7" font-family="Courier New" font-size="14" text-anchor="middle">uint72[5]: five9ByteNumbers (64)</text><polyline fill="none" stroke="#000" points="116.01 -518.5 493.27 -518.5"/><text x="304.34" y="-501.9" font-family="Courier New" font-size="14" text-anchor="middle">uint56[21]: twentyOne7ByteNumbers (192)</text><polyline fill="none" stroke="#000" points="116.01 -493.7 493.27 -493.7"/><text x="304.63" y="-477.1" font-family="Courier New" font-size="14" text-anchor="middle">address[3]: tokens (96)</text><polyline fill="none" stroke="#000" points="116.01 -468.9 493.27 -468.9"/><text x="304.63" y="-452.3" font-family="Courier New" font-size="14" text-anchor="middle">bytes32[50]: gap (1600)</text></g><g id="node2" class="node"><title>1</title><polygon fill="#f2f2f2" stroke="#000" points="542.68 -763.5 542.68 -913.1 1740.06 -913.1 1740.06 -763.5 542.68 -763.5"/><text x="1141.37" y="-896.5" font-family="Courier New" font-size="14" text-anchor="middle">uint72[5]: five9ByteNumbers &lt;&lt;Array&gt;&gt;</text><polyline fill="none" stroke="#000" points="542.68 -888.3 1740.06 -888.3"/><text x="567.48" y="-871.7" font-family="Courier New" font-size="14" text-anchor="middle">slot</text><polyline fill="none" stroke="#000" points="542.68 -846.7 592.28 -846.7"/><text x="567.48" y="-830.1" font-family="Courier New" font-size="14" text-anchor="middle">0</text><polyline fill="none" stroke="#000" points="542.68 -805.1 592.28 -805.1"/><text x="567.48" y="-788.5" font-family="Courier New" font-size="14" text-anchor="middle">1</text><polyline fill="none" stroke="#000" points="592.28 -763.5 592.28 -888.3"/><text x="877.53" y="-871.7" font-family="Courier New" font-size="14" text-anchor="middle">value</text><polyline fill="none" stroke="#000" points="592.28 -846.7 1162.77 -846.7"/><text x="877.53" y="-830.1" font-family="Courier New" font-size="14" text-anchor="middle">0x000000000000000000000000FFFF0000000000000000FF000000000000000001</text><polyline fill="none" stroke="#000" points="592.28 -805.1 1162.77 -805.1"/><text x="877.53" y="-788.5" font-family="Courier New" font-size="14" text-anchor="middle">0x0000000000000000000000000000FFFFFFFFFFFFFFFFFF0000000000FFFFFFFF</text><polyline fill="none" stroke="#000" points="1162.77 -763.5 1162.77 -888.3"/><text x="1451.42" y="-871.7" font-family="Courier New" font-size="14" text-anchor="middle">type: variable (bytes)</text><text x="1451.42" y="-854.9" font-family="Courier New" font-size="14" text-anchor="middle">decoded data</text><polyline fill="none" stroke="#000" points="1162.77 -846.7 1740.06 -846.7"/><text x="1250.28" y="-821.7" font-family="Courier New" font-size="14" text-anchor="middle">unallocated (5)</text><polyline fill="none" stroke="#000" points="1337.79 -805.1 1337.79 -846.7"/><text x="1404.8" y="-830.1" font-family="Courier New" font-size="14" text-anchor="middle">uint72 (9)</text><text x="1404.8" y="-813.3" font-family="Courier New" font-size="14" text-anchor="middle">65,535</text><polyline fill="none" stroke="#000" points="1471.81 -805.1 1471.81 -846.7"/><text x="1538.81" y="-830.1" font-family="Courier New" font-size="14" text-anchor="middle">uint72 (9)</text><text x="1538.81" y="-813.3" font-family="Courier New" font-size="14" text-anchor="middle">255</text><polyline fill="none" stroke="#000" points="1605.82 -805.1 1605.82 -846.7"/><text x="1672.83" y="-830.1" font-family="Courier New" font-size="14" text-anchor="middle">uint72 (9)</text><text x="1672.83" y="-813.3" font-family="Courier New" font-size="14" text-anchor="middle">1</text><polyline fill="none" stroke="#000" points="1162.77 -805.1 1740.06 -805.1"/><text x="1237.98" y="-780.1" font-family="Courier New" font-size="14" text-anchor="middle">unallocated (14)</text><polyline fill="none" stroke="#000" points="1313.19 -763.5 1313.19 -805.1"/><text x="1455.62" y="-788.5" font-family="Courier New" font-size="14" text-anchor="middle">uint72 (9)</text><text x="1455.62" y="-771.7" font-family="Courier New" font-size="14" text-anchor="middle">4,722,366,482,869,645,213,695</text><polyline fill="none" stroke="#000" points="1598.04 -763.5 1598.04 -805.1"/><text x="1669.05" y="-788.5" font-family="Courier New" font-size="14" text-anchor="middle">uint72 (9)</text><text x="1669.05" y="-771.7" font-family="Courier New" font-size="14" text-anchor="middle">4,294,967,295</text></g><g id="edge1" class="edge"><title>5:6-&gt;1</title><path fill="none" stroke="#000" d="M493.27,-531.3C543.25,-531.3 493.54,-718.36 529.27,-753.3 531.16,-755.14 533.06,-756.96 534.99,-758.75"/><polygon fill="#000" stroke="#000" points="532.73 -761.42 542.51 -765.51 537.41 -756.22 532.73 -761.42"/></g><g id="node3" class="node"><title>2</title><polygon fill="#f2f2f2" stroke="#000" points="560.28 -486.5 560.28 -744.1 1722.45 -744.1 1722.45 -486.5 560.28 -486.5"/><text x="1141.37" y="-727.5" font-family="Courier New" font-size="14" text-anchor="middle">uint56[21]: twentyOne7ByteNumbers &lt;&lt;Array&gt;&gt;</text><polyline fill="none" stroke="#000" points="560.28 -719.3 1722.45 -719.3"/><text x="585.09" y="-702.7" font-family="Courier New" font-size="14" text-anchor="middle">slot</text><polyline fill="none" stroke="#000" points="560.28 -677.7 609.89 -677.7"/><text x="585.09" y="-661.1" font-family="Courier New" font-size="14" text-anchor="middle">2</text><polyline fill="none" stroke="#000" points="560.28 -636.1 609.89 -636.1"/><text x="585.09" y="-619.5" font-family="Courier New" font-size="14" text-anchor="middle">3</text><polyline fill="none" stroke="#000" points="560.28 -594.5 609.89 -594.5"/><text x="585.09" y="-577.9" font-family="Courier New" font-size="14" text-anchor="middle">4-5</text><polyline fill="none" stroke="#000" points="560.28 -569.7 609.89 -569.7"/><text x="585.09" y="-553.1" font-family="Courier New" font-size="14" text-anchor="middle">6</text><polyline fill="none" stroke="#000" points="560.28 -528.1 609.89 -528.1"/><text x="585.09" y="-511.5" font-family="Courier New" font-size="14" text-anchor="middle">7</text><polyline fill="none" stroke="#000" points="609.89 -486.5 609.89 -719.3"/><text x="895.13" y="-702.7" font-family="Courier New" font-size="14" text-anchor="middle">value</text><polyline fill="none" stroke="#000" points="609.89 -677.7 1180.38 -677.7"/><text x="895.13" y="-661.1" font-family="Courier New" font-size="14" text-anchor="middle">0x0000000000000000000003000000000000020000000000000100000000000000</text><polyline fill="none" stroke="#000" points="609.89 -636.1 1180.38 -636.1"/><text x="895.13" y="-619.5" font-family="Courier New" font-size="14" text-anchor="middle">0x0000000000000000000007000000000000060000000000000500000000000004</text><polyline fill="none" stroke="#000" points="609.89 -594.5 1180.38 -594.5"/><polyline fill="none" stroke="#000" points="609.89 -569.7 1180.38 -569.7"/><text x="895.13" y="-553.1" font-family="Courier New" font-size="14" text-anchor="middle">0x0000000000000000000013000000000000120000000000001100000000000010</text><polyline fill="none" stroke="#000" points="609.89 -528.1 1180.38 -528.1"/><text x="895.13" y="-511.5" font-family="Courier New" font-size="14" text-anchor="middle">0x0000000000000000000000000000000000000000000000000000000000000014</text><polyline fill="none" stroke="#000" points="1180.38 -486.5 1180.38 -719.3"/><text x="1451.42" y="-702.7" font-family="Courier New" font-size="14" text-anchor="middle">type: variable (bytes)</text><text x="1451.42" y="-685.9" font-family="Courier New" font-size="14" text-anchor="middle">decoded data</text><polyline fill="none" stroke="#000" points="1180.38 -677.7 1722.45 -677.7"/><text x="1251.39" y="-652.7" font-family="Courier New" font-size="14" text-anchor="middle">unallocated (4)</text><polyline fill="none" stroke="#000" points="1322.4 -636.1 1322.4 -677.7"/><text x="1372.41" y="-661.1" font-family="Courier New" font-size="14" text-anchor="middle">uint56 (7)</text><text x="1372.41" y="-644.3" font-family="Courier New" font-size="14" text-anchor="middle">3</text><polyline fill="none" stroke="#000" points="1422.41 -636.1 1422.41 -677.7"/><text x="1472.42" y="-661.1" font-family="Courier New" font-size="14" text-anchor="middle">uint56 (7)</text><text x="1472.42" y="-644.3" font-family="Courier New" font-size="14" text-anchor="middle">2</text><polyline fill="none" stroke="#000" points="1522.43 -636.1 1522.43 -677.7"/><text x="1572.43" y="-661.1" font-family="Courier New" font-size="14" text-anchor="middle">uint56 (7)</text><text x="1572.43" y="-644.3" font-family="Courier New" font-size="14" text-anchor="middle">1</text><polyline fill="none" stroke="#000" points="1622.44 -636.1 1622.44 -677.7"/><text x="1672.45" y="-661.1" font-family="Courier New" font-size="14" text-anchor="middle">uint56 (7)</text><text x="1672.45" y="-644.3" font-family="Courier New" font-size="14" text-anchor="middle">0</text><polyline fill="none" stroke="#000" points="1180.38 -636.1 1722.45 -636.1"/><text x="1251.39" y="-611.1" font-family="Courier New" font-size="14" text-anchor="middle">unallocated (4)</text><polyline fill="none" stroke="#000" points="1322.4 -594.5 1322.4 -636.1"/><text x="1372.41" y="-619.5" font-family="Courier New" font-size="14" text-anchor="middle">uint56 (7)</text><text x="1372.41" y="-602.7" font-family="Courier New" font-size="14" text-anchor="middle">7</text><polyline fill="none" stroke="#000" points="1422.41 -594.5 1422.41 -636.1"/><text x="1472.42" y="-619.5" font-family="Courier New" font-size="14" text-anchor="middle">uint56 (7)</text><text x="1472.42" y="-602.7" font-family="Courier New" font-size="14" text-anchor="middle">6</text><polyline fill="none" stroke="#000" points="1522.43 -594.5 1522.43 -636.1"/><text x="1572.43" y="-619.5" font-family="Courier New" font-size="14" text-anchor="middle">uint56 (7)</text><text x="1572.43" y="-602.7" font-family="Courier New" font-size="14" text-anchor="middle">5</text><polyline fill="none" stroke="#000" points="1622.44 -594.5 1622.44 -636.1"/><text x="1672.45" y="-619.5" font-family="Courier New" font-size="14" text-anchor="middle">uint56 (7)</text><text x="1672.45" y="-602.7" font-family="Courier New" font-size="14" text-anchor="middle">4</text><polyline fill="none" stroke="#000" points="1180.38 -594.5 1722.45 -594.5"/><text x="1451.18" y="-577.9" font-family="Courier New" font-size="14" text-anchor="middle">---- (64)</text><polyline fill="none" stroke="#000" points="1180.38 -569.7 1722.45 -569.7"/><text x="1251.39" y="-544.7" font-family="Courier New" font-size="14" text-anchor="middle">unallocated (4)</text><polyline fill="none" stroke="#000" points="1322.4 -528.1 1322.4 -569.7"/><text x="1372.41" y="-553.1" font-family="Courier New" font-size="14" text-anchor="middle">uint56 (7)</text><text x="1372.41" y="-536.3" font-family="Courier New" font-size="14" text-anchor="middle">19</text><polyline fill="none" stroke="#000" points="1422.41 -528.1 1422.41 -569.7"/><text x="1472.42" y="-553.1" font-family="Courier New" font-size="14" text-anchor="middle">uint56 (7)</text><text x="1472.42" y="-536.3" font-family="Courier New" font-size="14" text-anchor="middle">18</text><polyline fill="none" stroke="#000" points="1522.43 -528.1 1522.43 -569.7"/><text x="1572.43" y="-553.1" font-family="Courier New" font-size="14" text-anchor="middle">uint56 (7)</text><text x="1572.43" y="-536.3" font-family="Courier New" font-size="14" text-anchor="middle">17</text><polyline fill="none" stroke="#000" points="1622.44 -528.1 1622.44 -569.7"/><text x="1672.45" y="-553.1" font-family="Courier New" font-size="14" text-anchor="middle">uint56 (7)</text><text x="1672.45" y="-536.3" font-family="Courier New" font-size="14" text-anchor="middle">16</text><polyline fill="none" stroke="#000" points="1180.38 -528.1 1722.45 -528.1"/><text x="1328.09" y="-503.1" font-family="Courier New" font-size="14" text-anchor="middle">unallocated (25)</text><polyline fill="none" stroke="#000" points="1475.8 -486.5 1475.8 -528.1"/><text x="1598.81" y="-511.5" font-family="Courier New" font-size="14" text-anchor="middle">uint56 (7)</text><text x="1598.81" y="-494.7" font-family="Courier New" font-size="14" text-anchor="middle">20</text></g><g id="edge2" class="edge"><title>5:21-&gt;2</title><path fill="none" stroke="#000" d="M493.27,-506.3C511.95,-506.3 530.88,-506.75 549.97,-507.58"/><polygon fill="#000" stroke="#000" points="549.81 -511.08 559.97 -508.06 550.14 -504.09 549.81 -511.08"/></g><g id="node4" class="node"><title>3</title><polygon fill="#f2f2f2" stroke="#000" points="563.28 -276.7 563.28 -467.9 1719.46 -467.9 1719.46 -276.7 563.28 -276.7"/><text x="1141.37" y="-451.3" font-family="Courier New" font-size="14" text-anchor="middle">address[3]: tokens &lt;&lt;Array&gt;&gt;</text><polyline fill="none" stroke="#000" points="563.28 -443.1 1719.46 -443.1"/><text x="588.08" y="-426.5" font-family="Courier New" font-size="14" text-anchor="middle">slot</text><polyline fill="none" stroke="#000" points="563.28 -401.5 612.88 -401.5"/><text x="588.08" y="-384.9" font-family="Courier New" font-size="14" text-anchor="middle">8</text><polyline fill="none" stroke="#000" points="563.28 -359.9 612.88 -359.9"/><text x="588.08" y="-343.3" font-family="Courier New" font-size="14" text-anchor="middle">9</text><polyline fill="none" stroke="#000" points="563.28 -318.3 612.88 -318.3"/><text x="588.08" y="-301.7" font-family="Courier New" font-size="14" text-anchor="middle">10</text><polyline fill="none" stroke="#000" points="612.88 -276.7 612.88 -443.1"/><text x="898.13" y="-426.5" font-family="Courier New" font-size="14" text-anchor="middle">value</text><polyline fill="none" stroke="#000" points="612.88 -401.5 1183.38 -401.5"/><text x="898.13" y="-384.9" font-family="Courier New" font-size="14" text-anchor="middle">0x000000000000000000000000A0B86991C6218B36C1D19D4A2E9EB0CE3606EB48</text><polyline fill="none" stroke="#000" points="612.88 -359.9 1183.38 -359.9"/><text x="898.13" y="-343.3" font-family="Courier New" font-size="14" text-anchor="middle">0x000000000000000000000000DAC17F958D2EE523A2206206994597C13D831EC7</text><polyline fill="none" stroke="#000" points="612.88 -318.3 1183.38 -318.3"/><text x="898.13" y="-301.7" font-family="Courier New" font-size="14" text-anchor="middle">0x0000000000000000000000006B175474E89094C44DA98B954EEDEAC495271D0F</text><polyline fill="none" stroke="#000" points="1183.38 -276.7 1183.38 -443.1"/><text x="1451.42" y="-426.5" font-family="Courier New" font-size="14" text-anchor="middle">type: variable (bytes)</text><text x="1451.42" y="-409.7" font-family="Courier New" font-size="14" text-anchor="middle">decoded data</text><polyline fill="none" stroke="#000" points="1183.38 -401.5 1719.46 -401.5"/><text x="1258.59" y="-376.5" font-family="Courier New" font-size="14" text-anchor="middle">unallocated (12)</text><polyline fill="none" stroke="#000" points="1333.8 -359.9 1333.8 -401.5"/><text x="1526.63" y="-384.9" font-family="Courier New" font-size="14" text-anchor="middle">address (20)</text><text x="1526.63" y="-368.1" font-family="Courier New" font-size="14" text-anchor="middle">0xA0b86991c6218b36c1d19D4a2e9Eb0cE3606eB48</text><polyline fill="none" stroke="#000" points="1183.38 -359.9 1719.46 -359.9"/><text x="1258.59" y="-334.9" font-family="Courier New" font-size="14" text-anchor="middle">unallocated (12)</text><polyline fill="none" stroke="#000" points="1333.8 -318.3 1333.8 -359.9"/><text x="1526.63" y="-343.3" font-family="Courier New" font-size="14" text-anchor="middle">address (20)</text><text x="1526.63" y="-326.5" font-family="Courier New" font-size="14" text-anchor="middle">0xdAC17F958D2ee523a2206206994597C13D831ec7</text><polyline fill="none" stroke="#000" points="1183.38 -318.3 1719.46 -318.3"/><text x="1258.59" y="-293.3" font-family="Courier New" font-size="14" text-anchor="middle">unallocated (12)</text><polyline fill="none" stroke="#000" points="1333.8 -276.7 1333.8 -318.3"/><text x="1526.63" y="-301.7" font-family="Courier New" font-size="14" text-anchor="middle">address (20)</text><text x="1526.63" y="-284.9" font-family="Courier New" font-size="14" text-anchor="middle">0x6B175474E89094C44Da98b954EedeAC495271d0F</text></g><g id="edge3" class="edge"><title>5:25-&gt;3</title><path fill="none" stroke="#000" d="M493.27,-481.3C500.7,-481.3 531.98,-476.77 577.08,-469.56"/><polygon fill="#000" stroke="#000" points="577.9 -472.98 587.22 -467.93 576.79 -466.06 577.9 -472.98"/></g><g id="node5" class="node"><title>4</title><polygon fill="#f2f2f2" stroke="#000" points="529.27 -.5 529.27 -258.1 1753.46 -258.1 1753.46 -.5 529.27 -.5"/><text x="1141.37" y="-241.5" font-family="Courier New" font-size="14" text-anchor="middle">bytes32[50]: gap &lt;&lt;Array&gt;&gt;</text><polyline fill="none" stroke="#000" points="529.27 -233.3 1753.46 -233.3"/><text x="562.48" y="-216.7" font-family="Courier New" font-size="14" text-anchor="middle">slot</text><polyline fill="none" stroke="#000" points="529.27 -191.7 595.68 -191.7"/><text x="562.48" y="-175.1" font-family="Courier New" font-size="14" text-anchor="middle">11</text><polyline fill="none" stroke="#000" points="529.27 -150.1 595.68 -150.1"/><text x="562.48" y="-133.5" font-family="Courier New" font-size="14" text-anchor="middle">12</text><polyline fill="none" stroke="#000" points="529.27 -108.5 595.68 -108.5"/><text x="562.48" y="-91.9" font-family="Courier New" font-size="14" text-anchor="middle">13-58</text><polyline fill="none" stroke="#000" points="529.27 -83.7 595.68 -83.7"/><text x="562.48" y="-67.1" font-family="Courier New" font-size="14" text-anchor="middle">59</text><polyline fill="none" stroke="#000" points="529.27 -42.1 595.68 -42.1"/><text x="562.48" y="-25.5" font-family="Courier New" font-size="14" text-anchor="middle">60</text><polyline fill="none" stroke="#000" points="595.68 -.5 595.68 -233.3"/><text x="880.93" y="-216.7" font-family="Courier New" font-size="14" text-anchor="middle">value</text><polyline fill="none" stroke="#000" points="595.68 -191.7 1166.17 -191.7"/><text x="880.93" y="-175.1" font-family="Courier New" font-size="14" text-anchor="middle">0x0000000000000000000000000000000000000000000000000000000000000000</text><polyline fill="none" stroke="#000" points="595.68 -150.1 1166.17 -150.1"/><text x="880.93" y="-133.5" font-family="Courier New" font-size="14" text-anchor="middle">0x0000000000000000000000000000000000000000000000000000000000000000</text><polyline fill="none" stroke="#000" points="595.68 -108.5 1166.17 -108.5"/><polyline fill="none" stroke="#000" points="595.68 -83.7 1166.17 -83.7"/><text x="880.93" y="-67.1" font-family="Courier New" font-size="14" text-anchor="middle">0x0000000000000000000000000000000000000000000000000000000000000000</text><polyline fill="none" stroke="#000" points="595.68 -42.1 1166.17 -42.1"/><text x="880.93" y="-25.5" font-family="Courier New" font-size="14" text-anchor="middle">0x0000000000000000000000000000000000000000000000000000000000000000</text><polyline fill="none" stroke="#000" points="1166.17 -.5 1166.17 -233.3"/><text x="1459.82" y="-216.7" font-family="Courier New" font-size="14" text-anchor="middle">type: variable (bytes)</text><text x="1459.82" y="-199.9" font-family="Courier New" font-size="14" text-anchor="middle">decoded data</text><polyline fill="none" stroke="#000" points="1166.17 -191.7 1753.46 -191.7"/><text x="1459.82" y="-175.1" font-family="Courier New" font-size="14" text-anchor="middle">bytes32 (32)</text><text x="1459.82" y="-158.3" font-family="Courier New" font-size="14" text-anchor="middle">0x0000000000000000000000000000000000000000000000000000000000000000</text><polyline fill="none" stroke="#000" points="1166.17 -150.1 1753.46 -150.1"/><text x="1459.82" y="-133.5" font-family="Courier New" font-size="14" text-anchor="middle">bytes32 (32)</text><text x="1459.82" y="-116.7" font-family="Courier New" font-size="14" text-anchor="middle">0x0000000000000000000000000000000000000000000000000000000000000000</text><polyline fill="none" stroke="#000" points="1166.17 -108.5 1753.46 -108.5"/><text x="1459.38" y="-91.9" font-family="Courier New" font-size="14" text-anchor="middle">---- (1472)</text><polyline fill="none" stroke="#000" points="1166.17 -83.7 1753.46 -83.7"/><text x="1459.82" y="-67.1" font-family="Courier New" font-size="14" text-anchor="middle">bytes32 (32)</text><text x="1459.82" y="-50.3" font-family="Courier New" font-size="14" text-anchor="middle">0x0000000000000000000000000000000000000000000000000000000000000000</text><polyline fill="none" stroke="#000" points="1166.17 -42.1 1753.46 -42.1"/><text x="1459.82" y="-25.5" font-family="Courier New" font-size="14" text-anchor="middle">bytes32 (32)</text><text x="1459.82" y="-8.7" font-family="Courier New" font-size="14" text-anchor="middle">0x0000000000000000000000000000000000000000000000000000000000000000</text></g><g id="edge4" class="edge"><title>5:31-&gt;4</title><path fill="none" stroke="#000" d="M493.27,-456.3C578.78,-456.3 469.84,-328.78 529.27,-267.3 529.93,-266.62 530.6,-265.93 531.26,-265.26"/><polygon fill="#000" stroke="#000" points="533.85 -267.62 538.51 -258.11 528.93 -262.64 533.85 -267.62"/></g></g></svg>