<svg xmlns="http://www.w3.org/2000/svg" xmlns:xlink="http://www.w3.org/1999/xlink" width="1729pt" height="260pt" viewBox="0 0 1728.65 260"><g id="graph0" class="graph" transform="scale(1 1) rotate(0) translate(4 256)"><title>StorageDiagram</title><polygon fill="#fff" stroke="transparent" points="-4 4 -4 -256 1724.65 -256 1724.65 4 -4 4"/><g id="node1" class="node"><title>4</title><polygon fill="#f2f2f2" stroke="#000" points="0 -102.7 0 -251.5 569.69 -251.5 569.69 -102.7 0 -102.7"/><text x="284.84" y="-234.9" font-family="Courier New" font-size="14" text-anchor="middle">MappingStorage &lt;&lt;Contract&gt;&gt;</text><polyline fill="none" stroke="#000" points="0 -226.7 569.69 -226.7"/><text x="24.8" y="-210.1" font-family="Courier New" font-size="14" text-anchor="middle">slot</text><polyline fill="none" stroke="#000" points="0 -201.9 49.61 -201.9"/><text x="24.8" y="-185.3" font-family="Courier New" font-size="14" text-anchor="middle">0</text><polyline fill="none" stroke="#000" points="0 -177.1 49.61 -177.1"/><text x="24.8" y="-160.5" font-family="Courier New" font-size="14" text-anchor="middle">1</text><polyline fill="none" stroke="#000" points="0 -152.3 49.61 -152.3"/><text x="24.8" y="-135.7" font-family="Courier New" font-size="14" text-anchor="middle">2</text><polyline fill="none" stroke="#000" points="0 -127.5 49.61 -127.5"/><text x="24.8" y="-110.9" font-family="Courier New" font-size="14" text-anchor="middle">3</text><polyline fill="none" stroke="#000" points="49.61 -102.7 49.61 -226.7"/><text x="309.65" y="-210.1" font-family="Courier New" font-size="14" text-anchor="middle">type: &lt;inherited contract&gt;.variable (bytes)</text><polyline fill="none" stroke="#000" points="49.61 -201.9 569.69 -201.9"/><text x="309.63" y="-185.3" font-family="Courier New" font-size="14" text-anchor="middle">mapping(address=&gt;uint256): balances (32)</text><polyline fill="none" stroke="#000" points="49.61 -177.1 569.69 -177.1"/><text x="309.65" y="-160.5" font-family="Courier New" font-size="14" text-anchor="middle">mapping(address=&gt;mapping(address=&gt;uint256)): allowances (32)</text><polyline fill="none" stroke="#000" points="49.61 -152.3 569.69 -152.3"/><text x="309.44" y="-135.7" font-family="Courier New" font-size="14" text-anchor="middle">mapping(uint256=&gt;address[]): grantRecipients (32)</text><polyline fill="none" stroke="#000" points="49.61 -127.5 569.69 -127.5"/><text x="309.44" y="-110.9" font-family="Courier New" font-size="14" text-anchor="middle">mapping(address=&gt;ExampleStruct): mapToStruct (32)</text></g><g id="node4" class="node"><title>3</title><polygon fill="#f2f2f2" stroke="#000" points="605.69 -28.3 605.69 -201.9 1332.59 -201.9 1332.59 -28.3 605.69 -28.3"/><text x="969.14" y="-185.3" font-family="Courier New" font-size="14" text-anchor="middle">ExampleStruct &lt;&lt;Struct&gt;&gt;</text><polyline fill="none" stroke="#000" points="605.69 -177.1 1332.59 -177.1"/><text x="638.89" y="-160.5" font-family="Courier New" font-size="14" text-anchor="middle">offset</text><polyline fill="none" stroke="#000" points="605.69 -152.3 672.1 -152.3"/><text x="638.89" y="-135.7" font-family="Courier New" font-size="14" text-anchor="middle">0</text><polyline fill="none" stroke="#000" points="605.69 -127.5 672.1 -127.5"/><text x="638.89" y="-110.9" font-family="Courier New" font-size="14" text-anchor="middle">1</text><polyline fill="none" stroke="#000" points="605.69 -102.7 672.1 -102.7"/><text x="638.89" y="-86.1" font-family="Courier New" font-size="14" text-anchor="middle">2-3</text><polyline fill="none" stroke="#000" points="605.69 -77.9 672.1 -77.9"/><text x="638.89" y="-61.3" font-family="Courier New" font-size="14" text-anchor="middle">4</text><polyline fill="none" stroke="#000" points="605.69 -53.1 672.1 -53.1"/><text x="638.89" y="-36.5" font-family="Courier New" font-size="14" text-anchor="middle">5</text><polyline fill="none" stroke="#000" points="672.1 -28.3 672.1 -177.1"/><text x="1002.34" y="-160.5" font-family="Courier New" font-size="14" text-anchor="middle">type: variable (bytes)</text><polyline fill="none" stroke="#000" points="672.1 -152.3 1332.59 -152.3"/><text x="747.31" y="-135.7" font-family="Courier New" font-size="14" text-anchor="middle">unallocated (10)</text><polyline fill="none" stroke="#000" points="822.52 -127.5 822.52 -152.3"/><text x="922.93" y="-135.7" font-family="Courier New" font-size="14" text-anchor="middle">Severity: severity (1)</text><polyline fill="none" stroke="#000" points="1023.35 -127.5 1023.35 -152.3"/><text x="1111.16" y="-135.7" font-family="Courier New" font-size="14" text-anchor="middle">address: token (20)</text><polyline fill="none" stroke="#000" points="1198.97 -127.5 1198.97 -152.3"/><text x="1265.78" y="-135.7" font-family="Courier New" font-size="14" text-anchor="middle">bool: flag (1)</text><polyline fill="none" stroke="#000" points="672.1 -127.5 1332.59 -127.5"/><text x="1002.12" y="-110.9" font-family="Courier New" font-size="14" text-anchor="middle">address[]: dynamicAddressArray (32)</text><polyline fill="none" stroke="#000" points="672.1 -102.7 1332.59 -102.7"/><text x="1002.32" y="-86.1" font-family="Courier New" font-size="14" text-anchor="middle">uint256[2]: staticIntArray (64)</text><polyline fill="none" stroke="#000" points="672.1 -77.9 1332.59 -77.9"/><text x="1002.21" y="-61.3" font-family="Courier New" font-size="14" text-anchor="middle">string: someString (32)</text><polyline fill="none" stroke="#000" points="672.1 -53.1 1332.59 -53.1"/><text x="1001.92" y="-36.5" font-family="Courier New" font-size="14" text-anchor="middle">mapping(address=&gt;uint256): claimed (32)</text></g><g id="edge1" class="edge"><title>4:14-&gt;3</title><path fill="none" stroke="#000" d="M569.69,-115.1C578.14,-115.1 586.69,-115.1 595.32,-115.1"/><polygon fill="#000" stroke="#000" points="595.48 -118.6 605.48 -115.1 595.48 -111.6 595.48 -118.6"/></g><g id="node2" class="node"><title>1</title><polygon fill="#f2f2f2" stroke="#000" points="1368.59 -118.9 1368.59 -193.3 1720.65 -193.3 1720.65 -118.9 1368.59 -118.9"/><text x="1544.62" y="-176.7" font-family="Courier New" font-size="14" text-anchor="middle">address[]: dynamicAddressArray &lt;&lt;Array&gt;&gt;</text><polyline fill="none" stroke="#000" points="1368.59 -168.5 1720.65 -168.5"/><text x="1406.3" y="-151.9" font-family="Courier New" font-size="14" text-anchor="middle">offset</text><polyline fill="none" stroke="#000" points="1368.59 -143.7 1444 -143.7"/><text x="1406.3" y="-127.1" font-family="Courier New" font-size="14" text-anchor="middle">0</text><polyline fill="none" stroke="#000" points="1444 -118.9 1444 -168.5"/><text x="1582.12" y="-151.9" font-family="Courier New" font-size="14" text-anchor="middle">type: variable (bytes)</text><polyline fill="none" stroke="#000" points="1444 -143.7 1720.24 -143.7"/><text x="1521.21" y="-127.1" font-family="Courier New" font-size="14" text-anchor="middle">unallocated (12)</text><polyline fill="none" stroke="#000" points="1598.42 -118.9 1598.42 -143.7"/><text x="1659.33" y="-127.1" font-family="Courier New" font-size="14" text-anchor="middle">address (20)</text></g><g id="node3" class="node"><title>2</title><polygon fill="#f2f2f2" stroke="#000" points="1385.4 -.5 1385.4 -99.7 1703.84 -99.7 1703.84 -.5 1385.4 -.5"/><text x="1544.62" y="-83.1" font-family="Courier New" font-size="14" text-anchor="middle">uint256[2]: staticIntArray &lt;&lt;Array&gt;&gt;</text><polyline fill="none" stroke="#000" points="1385.4 -74.9 1703.84 -74.9"/><text x="1431.1" y="-58.3" font-family="Courier New" font-size="14" text-anchor="middle">offset</text><polyline fill="none" stroke="#000" points="1385.4 -50.1 1476.8 -50.1"/><text x="1431.1" y="-33.5" font-family="Courier New" font-size="14" text-anchor="middle">0</text><polyline fill="none" stroke="#000" points="1385.4 -25.3 1476.8 -25.3"/><text x="1431.1" y="-8.7" font-family="Courier New" font-size="14" text-anchor="middle">1</text><polyline fill="none" stroke="#000" points="1476.8 -.5 1476.8 -74.9"/><text x="1590.22" y="-58.3" font-family="Courier New" font-size="14" text-anchor="middle">type: variable (bytes)</text><polyline fill="none" stroke="#000" points="1476.8 -50.1 1703.63 -50.1"/><text x="1590.21" y="-33.5" font-family="Courier New" font-size="14" text-anchor="middle">uint256 (32)</text><polyline fill="none" stroke="#000" points="1476.8 -25.3 1703.63 -25.3"/><text x="1590.21" y="-8.7" font-family="Courier New" font-size="14" text-anchor="middle">uint256 (32)</text></g><g id="edge2" class="edge"><title>3:8-&gt;1</title><path fill="none" stroke="#000" d="M1332.59,-115.1C1347.29,-115.1 1362.46,-116.07 1377.6,-117.71"/><polygon fill="#000" stroke="#000" points="1377.21 -121.19 1387.55 -118.88 1378.02 -114.24 1377.21 -121.19"/></g><g id="edge3" class="edge"><title>3:11-&gt;2</title><path fill="none" stroke="#000" d="M1332.59,-90.1C1346.53,-90.1 1360.89,-89.25 1375.27,-87.79"/><polygon fill="#000" stroke="#000" points="1375.66 -91.27 1385.21 -86.69 1374.89 -84.31 1375.66 -91.27"/></g></g></svg>