<svg xmlns="http://www.w3.org/2000/svg" xmlns:xlink="http://www.w3.org/1999/xlink" width="3659pt" height="736" viewBox="0 0 3659.34 552"><g id="graph0" class="graph" transform="scale(1 1) rotate(0) translate(4 548)"><title>StorageDiagram</title><polygon fill="#fff" stroke="transparent" points="-4 4 -4 -548 3655.34 -548 3655.34 4 -4 4"/><g id="node1" class="node"><title>6</title><polygon fill="#f2f2f2" stroke="#000" points="0 -224.1 0 -390.5 997.35 -390.5 997.35 -224.1 0 -224.1"/><text x="498.68" y="-373.9" font-family="Courier New" font-size="14" text-anchor="middle">MultiDynamicArrayStorage &lt;&lt;Contract&gt;&gt;</text><text x="498.68" y="-357.1" font-family="Courier New" font-size="14" text-anchor="middle">0x6f44d1108bB79710C1BBE378661d90876682E027</text><polyline fill="none" stroke="#000" points="0 -348.9 997.35 -348.9"/><text x="24.8" y="-332.3" font-family="Courier New" font-size="14" text-anchor="middle">slot</text><polyline fill="none" stroke="#000" points="0 -307.3 49.61 -307.3"/><text x="24.8" y="-290.7" font-family="Courier New" font-size="14" text-anchor="middle">0</text><polyline fill="none" stroke="#000" points="0 -265.7 49.61 -265.7"/><text x="24.8" y="-249.1" font-family="Courier New" font-size="14" text-anchor="middle">1</text><polyline fill="none" stroke="#000" points="49.61 -224.1 49.61 -348.9"/><text x="334.85" y="-332.3" font-family="Courier New" font-size="14" text-anchor="middle">value</text><polyline fill="none" stroke="#000" points="49.61 -307.3 620.1 -307.3"/><text x="334.85" y="-290.7" font-family="Courier New" font-size="14" text-anchor="middle">0x0000000000000000000000000000000000000000000000000000000000000008</text><polyline fill="none" stroke="#000" points="49.61 -265.7 620.1 -265.7"/><text x="334.85" y="-249.1" font-family="Courier New" font-size="14" text-anchor="middle">0x0000000000000000000000000000000000000000000000000000000000000004</text><polyline fill="none" stroke="#000" points="620.1 -224.1 620.1 -348.9"/><text x="808.73" y="-332.3" font-family="Courier New" font-size="14" text-anchor="middle">type: &lt;inherited contract&gt;.variable (bytes)</text><text x="808.73" y="-315.5" font-family="Courier New" font-size="14" text-anchor="middle">decoded data</text><polyline fill="none" stroke="#000" points="620.1 -307.3 997.35 -307.3"/><text x="808.62" y="-290.7" font-family="Courier New" font-size="14" text-anchor="middle">uint256[][]: twoDimDynIntArray (32)</text><text x="808.62" y="-273.9" font-family="Courier New" font-size="14" text-anchor="middle">8</text><polyline fill="none" stroke="#000" points="620.1 -265.7 997.35 -265.7"/><text x="808.42" y="-249.1" font-family="Courier New" font-size="14" text-anchor="middle">uint256[][][]: threeDimDynIntArray (32)</text><text x="808.42" y="-232.3" font-family="Courier New" font-size="14" text-anchor="middle">4</text></g><g id="node3" class="node"><title>2</title><polygon fill="#f2f2f2" stroke="#000" points="1033.35 -269.1 1033.35 -543.5 1871.08 -543.5 1871.08 -269.1 1033.35 -269.1"/><text x="1452.22" y="-526.9" font-family="Courier New" font-size="14" text-anchor="middle">uint256[][]: twoDimDynIntArray &lt;&lt;Array&gt;&gt;</text><text x="1452.22" y="-510.1" font-family="Courier New" font-size="14" text-anchor="middle">0x290decd9548b62a8d60345a988386fc84ba6bc95484008f6362f93160ef3e563</text><polyline fill="none" stroke="#000" points="1033.35 -501.9 1871.08 -501.9"/><text x="1066.56" y="-485.3" font-family="Courier New" font-size="14" text-anchor="middle">offset</text><polyline fill="none" stroke="#000" points="1033.35 -460.3 1099.76 -460.3"/><text x="1066.56" y="-443.7" font-family="Courier New" font-size="14" text-anchor="middle">0</text><polyline fill="none" stroke="#000" points="1033.35 -418.7 1099.76 -418.7"/><text x="1066.56" y="-402.1" font-family="Courier New" font-size="14" text-anchor="middle">1</text><polyline fill="none" stroke="#000" points="1033.35 -377.1 1099.76 -377.1"/><text x="1066.56" y="-360.5" font-family="Courier New" font-size="14" text-anchor="middle">2-5</text><polyline fill="none" stroke="#000" points="1033.35 -352.3 1099.76 -352.3"/><text x="1066.56" y="-335.7" font-family="Courier New" font-size="14" text-anchor="middle">6</text><polyline fill="none" stroke="#000" points="1033.35 -310.7 1099.76 -310.7"/><text x="1066.56" y="-294.1" font-family="Courier New" font-size="14" text-anchor="middle">7</text><polyline fill="none" stroke="#000" points="1099.76 -269.1 1099.76 -501.9"/><text x="1385.01" y="-485.3" font-family="Courier New" font-size="14" text-anchor="middle">value</text><polyline fill="none" stroke="#000" points="1099.76 -460.3 1670.25 -460.3"/><text x="1385.01" y="-443.7" font-family="Courier New" font-size="14" text-anchor="middle">0x0000000000000000000000000000000000000000000000000000000000000002</text><polyline fill="none" stroke="#000" points="1099.76 -418.7 1670.25 -418.7"/><text x="1385.01" y="-402.1" font-family="Courier New" font-size="14" text-anchor="middle">0x0000000000000000000000000000000000000000000000000000000000000003</text><polyline fill="none" stroke="#000" points="1099.76 -377.1 1670.25 -377.1"/><polyline fill="none" stroke="#000" points="1099.76 -352.3 1670.25 -352.3"/><text x="1385.01" y="-335.7" font-family="Courier New" font-size="14" text-anchor="middle">0x000000000000000000000000000000000000000000000000000000000000000B</text><polyline fill="none" stroke="#000" points="1099.76 -310.7 1670.25 -310.7"/><text x="1385.01" y="-294.1" font-family="Courier New" font-size="14" text-anchor="middle">0x0000000000000000000000000000000000000000000000000000000000000004</text><polyline fill="none" stroke="#000" points="1670.25 -269.1 1670.25 -501.9"/><text x="1770.67" y="-485.3" font-family="Courier New" font-size="14" text-anchor="middle">type: variable (bytes)</text><text x="1770.67" y="-468.5" font-family="Courier New" font-size="14" text-anchor="middle">decoded data</text><polyline fill="none" stroke="#000" points="1670.25 -460.3 1871.08 -460.3"/><text x="1770.56" y="-443.7" font-family="Courier New" font-size="14" text-anchor="middle">uint256[] (32)</text><text x="1770.56" y="-426.9" font-family="Courier New" font-size="14" text-anchor="middle">2</text><polyline fill="none" stroke="#000" points="1670.25 -418.7 1871.08 -418.7"/><text x="1770.56" y="-402.1" font-family="Courier New" font-size="14" text-anchor="middle">uint256[] (32)</text><text x="1770.56" y="-385.3" font-family="Courier New" font-size="14" text-anchor="middle">3</text><polyline fill="none" stroke="#000" points="1670.25 -377.1 1871.08 -377.1"/><text x="1770.26" y="-360.5" font-family="Courier New" font-size="14" text-anchor="middle">---- (128)</text><polyline fill="none" stroke="#000" points="1670.25 -352.3 1871.08 -352.3"/><text x="1770.56" y="-335.7" font-family="Courier New" font-size="14" text-anchor="middle">uint256[] (32)</text><text x="1770.56" y="-318.9" font-family="Courier New" font-size="14" text-anchor="middle">11</text><polyline fill="none" stroke="#000" points="1670.25 -310.7 1871.08 -310.7"/><text x="1770.56" y="-294.1" font-family="Courier New" font-size="14" text-anchor="middle">uint256[] (32)</text><text x="1770.56" y="-277.3" font-family="Courier New" font-size="14" text-anchor="middle">4</text></g><g id="edge1" class="edge"><title>6:3-&gt;2</title><path fill="none" stroke="#000" d="M997.35,-286.3C1005.85,-286.3 1014.4,-286.5 1023,-286.88"/><polygon fill="#000" stroke="#000" points="1022.94 -290.38 1033.11 -287.41 1023.31 -283.39 1022.94 -290.38"/></g><g id="node6" class="node"><title>5</title><polygon fill="#f2f2f2" stroke="#000" points="1033.35 -.5 1033.35 -250.1 1871.08 -250.1 1871.08 -.5 1033.35 -.5"/><text x="1452.22" y="-233.5" font-family="Courier New" font-size="14" text-anchor="middle">uint256[][][]: threeDimDynIntArray &lt;&lt;Array&gt;&gt;</text><text x="1452.22" y="-216.7" font-family="Courier New" font-size="14" text-anchor="middle">0xb10e2d527612073b26eecdfd717e6a320cf44b4afac2b0732d9fcbe2b7fa0cf6</text><polyline fill="none" stroke="#000" points="1033.35 -208.5 1871.08 -208.5"/><text x="1066.56" y="-191.9" font-family="Courier New" font-size="14" text-anchor="middle">offset</text><polyline fill="none" stroke="#000" points="1033.35 -166.9 1099.76 -166.9"/><text x="1066.56" y="-150.3" font-family="Courier New" font-size="14" text-anchor="middle">0</text><polyline fill="none" stroke="#000" points="1033.35 -125.3 1099.76 -125.3"/><text x="1066.56" y="-108.7" font-family="Courier New" font-size="14" text-anchor="middle">1</text><polyline fill="none" stroke="#000" points="1033.35 -83.7 1099.76 -83.7"/><text x="1066.56" y="-67.1" font-family="Courier New" font-size="14" text-anchor="middle">2</text><polyline fill="none" stroke="#000" points="1033.35 -42.1 1099.76 -42.1"/><text x="1066.56" y="-25.5" font-family="Courier New" font-size="14" text-anchor="middle">3</text><polyline fill="none" stroke="#000" points="1099.76 -.5 1099.76 -208.5"/><text x="1385.01" y="-191.9" font-family="Courier New" font-size="14" text-anchor="middle">value</text><polyline fill="none" stroke="#000" points="1099.76 -166.9 1670.25 -166.9"/><text x="1385.01" y="-150.3" font-family="Courier New" font-size="14" text-anchor="middle">0x0000000000000000000000000000000000000000000000000000000000000002</text><polyline fill="none" stroke="#000" points="1099.76 -125.3 1670.25 -125.3"/><text x="1385.01" y="-108.7" font-family="Courier New" font-size="14" text-anchor="middle">0x0000000000000000000000000000000000000000000000000000000000000006</text><polyline fill="none" stroke="#000" points="1099.76 -83.7 1670.25 -83.7"/><text x="1385.01" y="-67.1" font-family="Courier New" font-size="14" text-anchor="middle">0x0000000000000000000000000000000000000000000000000000000000000003</text><polyline fill="none" stroke="#000" points="1099.76 -42.1 1670.25 -42.1"/><text x="1385.01" y="-25.5" font-family="Courier New" font-size="14" text-anchor="middle">0x0000000000000000000000000000000000000000000000000000000000000000</text><polyline fill="none" stroke="#000" points="1670.25 -.5 1670.25 -208.5"/><text x="1770.67" y="-191.9" font-family="Courier New" font-size="14" text-anchor="middle">type: variable (bytes)</text><text x="1770.67" y="-175.1" font-family="Courier New" font-size="14" text-anchor="middle">decoded data</text><polyline fill="none" stroke="#000" points="1670.25 -166.9 1871.08 -166.9"/><text x="1770.46" y="-150.3" font-family="Courier New" font-size="14" text-anchor="middle">uint256[][] (32)</text><text x="1770.46" y="-133.5" font-family="Courier New" font-size="14" text-anchor="middle">2</text><polyline fill="none" stroke="#000" points="1670.25 -125.3 1871.08 -125.3"/><text x="1770.46" y="-108.7" font-family="Courier New" font-size="14" text-anchor="middle">uint256[][] (32)</text><text x="1770.46" y="-91.9" font-family="Courier New" font-size="14" text-anchor="middle">6</text><polyline fill="none" stroke="#000" points="1670.25 -83.7 1871.08 -83.7"/><text x="1770.46" y="-67.1" font-family="Courier New" font-size="14" text-anchor="middle">uint256[][] (32)</text><text x="1770.46" y="-50.3" font-family="Courier New" font-size="14" text-anchor="middle">3</text><polyline fill="none" stroke="#000" points="1670.25 -42.1 1871.08 -42.1"/><text x="1770.46" y="-25.5" font-family="Courier New" font-size="14" text-anchor="middle">uint256[][] (32)</text><text x="1770.46" y="-8.7" font-family="Courier New" font-size="14" text-anchor="middle">0</text></g><g id="edge2" class="edge"><title>6:7-&gt;5</title><path fill="none" stroke="#000" d="M997.35,-245.3C1005.85,-245.3 1014.4,-245.1 1023,-244.72"/><polygon fill="#000" stroke="#000" points="1023.31 -248.21 1033.11 -244.19 1022.94 -241.22 1023.31 -248.21"/></g><g id="node2" class="node"><title>1</title><polygon fill="#f2f2f2" stroke="#000" points="1907.08 -356.1 1907.08 -522.5 2744.81 -522.5 2744.81 -356.1 1907.08 -356.1"/><text x="2325.95" y="-505.9" font-family="Courier New" font-size="14" text-anchor="middle">uint256[]: twoDimDynIntArray &lt;&lt;Array&gt;&gt;</text><text x="2325.95" y="-489.1" font-family="Courier New" font-size="14" text-anchor="middle">0x510e4e770828ddbf7f7b00ab00a9f6adaf81c0dc9cc85f1f8249c256942d61d9</text><polyline fill="none" stroke="#000" points="1907.08 -480.9 2744.81 -480.9"/><text x="1940.29" y="-464.3" font-family="Courier New" font-size="14" text-anchor="middle">offset</text><polyline fill="none" stroke="#000" points="1907.08 -439.3 1973.49 -439.3"/><text x="1940.29" y="-422.7" font-family="Courier New" font-size="14" text-anchor="middle">0</text><polyline fill="none" stroke="#000" points="1907.08 -397.7 1973.49 -397.7"/><text x="1940.29" y="-381.1" font-family="Courier New" font-size="14" text-anchor="middle">1</text><polyline fill="none" stroke="#000" points="1973.49 -356.1 1973.49 -480.9"/><text x="2258.74" y="-464.3" font-family="Courier New" font-size="14" text-anchor="middle">value</text><polyline fill="none" stroke="#000" points="1973.49 -439.3 2543.98 -439.3"/><text x="2258.74" y="-422.7" font-family="Courier New" font-size="14" text-anchor="middle">0x0000000000000000000000000000000000000000000000000000000000002B67</text><polyline fill="none" stroke="#000" points="1973.49 -397.7 2543.98 -397.7"/><text x="2258.74" y="-381.1" font-family="Courier New" font-size="14" text-anchor="middle">0x0000000000000000000000000000000000000000000000000000000000002B72</text><polyline fill="none" stroke="#000" points="2543.98 -356.1 2543.98 -480.9"/><text x="2644.4" y="-464.3" font-family="Courier New" font-size="14" text-anchor="middle">type: variable (bytes)</text><text x="2644.4" y="-447.5" font-family="Courier New" font-size="14" text-anchor="middle">decoded data</text><polyline fill="none" stroke="#000" points="2543.98 -439.3 2744.81 -439.3"/><text x="2644.39" y="-422.7" font-family="Courier New" font-size="14" text-anchor="middle">uint256 (32)</text><text x="2644.39" y="-405.9" font-family="Courier New" font-size="14" text-anchor="middle">11,111</text><polyline fill="none" stroke="#000" points="2543.98 -397.7 2744.81 -397.7"/><text x="2644.39" y="-381.1" font-family="Courier New" font-size="14" text-anchor="middle">uint256 (32)</text><text x="2644.39" y="-364.3" font-family="Courier New" font-size="14" text-anchor="middle">11,122</text></g><g id="edge3" class="edge"><title>2:2-&gt;1</title><path fill="none" stroke="#000" d="M1871.08,-439.3C1879.58,-439.3 1888.16,-439.3 1896.81,-439.3"/><polygon fill="#000" stroke="#000" points="1897 -442.8 1907 -439.3 1897 -435.8 1897 -442.8"/></g><g id="node4" class="node"><title>3</title><polygon fill="#f2f2f2" stroke="#000" points="2780.81 -21.3 2780.81 -229.3 3651.34 -229.3 3651.34 -21.3 2780.81 -21.3"/><text x="3216.08" y="-212.7" font-family="Courier New" font-size="14" text-anchor="middle">uint256[]: threeDimDynIntArray &lt;&lt;Array&gt;&gt;</text><text x="3216.08" y="-195.9" font-family="Courier New" font-size="14" text-anchor="middle">0x73139abbd176cf7f94893453632c00afefb2776f9805a21d03d176c885cd0d63</text><polyline fill="none" stroke="#000" points="2780.81 -187.7 3651.34 -187.7"/><text x="2814.02" y="-171.1" font-family="Courier New" font-size="14" text-anchor="middle">offset</text><polyline fill="none" stroke="#000" points="2780.81 -146.1 2847.22 -146.1"/><text x="2814.02" y="-129.5" font-family="Courier New" font-size="14" text-anchor="middle">0</text><polyline fill="none" stroke="#000" points="2780.81 -104.5 2847.22 -104.5"/><text x="2814.02" y="-87.9" font-family="Courier New" font-size="14" text-anchor="middle">1</text><polyline fill="none" stroke="#000" points="2780.81 -62.9 2847.22 -62.9"/><text x="2814.02" y="-46.3" font-family="Courier New" font-size="14" text-anchor="middle">1</text><polyline fill="none" stroke="#000" points="2847.22 -21.3 2847.22 -187.7"/><text x="3132.46" y="-171.1" font-family="Courier New" font-size="14" text-anchor="middle">value</text><polyline fill="none" stroke="#000" points="2847.22 -146.1 3417.71 -146.1"/><text x="3132.46" y="-129.5" font-family="Courier New" font-size="14" text-anchor="middle">0x000000000000000000000000000000000000000000000000000000000001B207</text><polyline fill="none" stroke="#000" points="2847.22 -104.5 3417.71 -104.5"/><text x="3132.46" y="-87.9" font-family="Courier New" font-size="14" text-anchor="middle">0x000000000000000000000000000000000000000000000000000000000001B212</text><polyline fill="none" stroke="#000" points="2847.22 -62.9 3417.71 -62.9"/><text x="3132.46" y="-46.3" font-family="Courier New" font-size="14" text-anchor="middle">0x000000000000000000000000000000000000000000000000000000000001B212</text><polyline fill="none" stroke="#000" points="3417.71 -21.3 3417.71 -187.7"/><text x="3534.53" y="-171.1" font-family="Courier New" font-size="14" text-anchor="middle">type: variable (bytes)</text><text x="3534.53" y="-154.3" font-family="Courier New" font-size="14" text-anchor="middle">decoded data</text><polyline fill="none" stroke="#000" points="3417.71 -146.1 3651.34 -146.1"/><text x="3534.12" y="-129.5" font-family="Courier New" font-size="14" text-anchor="middle">uint256 (32)</text><text x="3534.12" y="-112.7" font-family="Courier New" font-size="14" text-anchor="middle">111,111</text><polyline fill="none" stroke="#000" points="3417.71 -104.5 3651.34 -104.5"/><text x="3476.12" y="-87.9" font-family="Courier New" font-size="14" text-anchor="middle">uint256 (32)</text><text x="3476.12" y="-71.1" font-family="Courier New" font-size="14" text-anchor="middle">111,122</text><polyline fill="none" stroke="#000" points="3534.53 -62.9 3534.53 -104.5"/><text x="3592.93" y="-87.9" font-family="Courier New" font-size="14" text-anchor="middle">uint256 (32)</text><text x="3592.93" y="-71.1" font-family="Courier New" font-size="14" text-anchor="middle">111,122</text><polyline fill="none" stroke="#000" points="3417.71 -62.9 3651.34 -62.9"/><text x="3476.12" y="-46.3" font-family="Courier New" font-size="14" text-anchor="middle">uint256 (32)</text><text x="3476.12" y="-29.5" font-family="Courier New" font-size="14" text-anchor="middle">111,122</text><polyline fill="none" stroke="#000" points="3534.53 -21.3 3534.53 -62.9"/><text x="3592.93" y="-46.3" font-family="Courier New" font-size="14" text-anchor="middle">uint256 (32)</text><text x="3592.93" y="-29.5" font-family="Courier New" font-size="14" text-anchor="middle">111,122</text></g><g id="node5" class="node"><title>4</title><polygon fill="#f2f2f2" stroke="#000" points="1907.08 -63.1 1907.08 -229.5 2744.81 -229.5 2744.81 -63.1 1907.08 -63.1"/><text x="2325.95" y="-212.9" font-family="Courier New" font-size="14" text-anchor="middle">uint256[][]: threeDimDynIntArray &lt;&lt;Array&gt;&gt;</text><text x="2325.95" y="-196.1" font-family="Courier New" font-size="14" text-anchor="middle">0xb5d9d894133a730aa651ef62d26b0ffa846233c74177a591a4a896adfda97d22</text><polyline fill="none" stroke="#000" points="1907.08 -187.9 2744.81 -187.9"/><text x="1940.29" y="-171.3" font-family="Courier New" font-size="14" text-anchor="middle">offset</text><polyline fill="none" stroke="#000" points="1907.08 -146.3 1973.49 -146.3"/><text x="1940.29" y="-129.7" font-family="Courier New" font-size="14" text-anchor="middle">0</text><polyline fill="none" stroke="#000" points="1907.08 -104.7 1973.49 -104.7"/><text x="1940.29" y="-88.1" font-family="Courier New" font-size="14" text-anchor="middle">1</text><polyline fill="none" stroke="#000" points="1973.49 -63.1 1973.49 -187.9"/><text x="2258.74" y="-171.3" font-family="Courier New" font-size="14" text-anchor="middle">value</text><polyline fill="none" stroke="#000" points="1973.49 -146.3 2543.98 -146.3"/><text x="2258.74" y="-129.7" font-family="Courier New" font-size="14" text-anchor="middle">0x0000000000000000000000000000000000000000000000000000000000000002</text><polyline fill="none" stroke="#000" points="1973.49 -104.7 2543.98 -104.7"/><text x="2258.74" y="-88.1" font-family="Courier New" font-size="14" text-anchor="middle">0x0000000000000000000000000000000000000000000000000000000000000003</text><polyline fill="none" stroke="#000" points="2543.98 -63.1 2543.98 -187.9"/><text x="2644.4" y="-171.3" font-family="Courier New" font-size="14" text-anchor="middle">type: variable (bytes)</text><text x="2644.4" y="-154.5" font-family="Courier New" font-size="14" text-anchor="middle">decoded data</text><polyline fill="none" stroke="#000" points="2543.98 -146.3 2744.81 -146.3"/><text x="2644.29" y="-129.7" font-family="Courier New" font-size="14" text-anchor="middle">uint256[] (32)</text><text x="2644.29" y="-112.9" font-family="Courier New" font-size="14" text-anchor="middle">2</text><polyline fill="none" stroke="#000" points="2543.98 -104.7 2744.81 -104.7"/><text x="2644.29" y="-88.1" font-family="Courier New" font-size="14" text-anchor="middle">uint256[] (32)</text><text x="2644.29" y="-71.3" font-family="Courier New" font-size="14" text-anchor="middle">3</text></g><g id="edge4" class="edge"><title>4:5-&gt;3</title><path fill="none" stroke="#000" d="M2744.81,-125.3C2753.32,-125.3 2761.92,-125.3 2770.58,-125.3"/><polygon fill="#000" stroke="#000" points="2770.77 -128.8 2780.77 -125.3 2770.77 -121.8 2770.77 -128.8"/></g><g id="edge5" class="edge"><title>5:6-&gt;4</title><path fill="none" stroke="#000" d="M1871.08,-146.3C1879.58,-146.3 1888.16,-146.3 1896.81,-146.3"/><polygon fill="#000" stroke="#000" points="1897 -149.8 1907 -146.3 1897 -142.8 1897 -149.8"/></g></g></svg>