<svg xmlns="http://www.w3.org/2000/svg" xmlns:xlink="http://www.w3.org/1999/xlink" width="1954pt" height="1046pt" viewBox="0 0 1953.88 1045.6"><g id="graph0" class="graph" transform="scale(1 1) rotate(0) translate(4 1041.6)"><title>StorageDiagram</title><polygon fill="#fff" stroke="transparent" points="-4 4 -4 -1041.6 1949.88 -1041.6 1949.88 4 -4 4"/><g id="node1" class="node"><title>11</title><polygon fill="#f2f2f2" stroke="#000" points="0 -431.7 0 -589.3 484.87 -589.3 484.87 -431.7 0 -431.7"/><text x="242.44" y="-572.7" font-family="Courier New" font-size="14" text-anchor="middle">MultiFixedArrayStorage &lt;&lt;Contract&gt;&gt;</text><text x="242.44" y="-555.9" font-family="Courier New" font-size="14" text-anchor="middle">0xe147cB7D90B9253844130E2C4A7Ef0ffB641C3ea</text><polyline fill="none" stroke="#000" points="0 -547.7 484.87 -547.7"/><text x="24.8" y="-531.1" font-family="Courier New" font-size="14" text-anchor="middle">slot</text><polyline fill="none" stroke="#000" points="0 -506.1 49.61 -506.1"/><text x="24.8" y="-489.5" font-family="Courier New" font-size="14" text-anchor="middle">0-5</text><polyline fill="none" stroke="#000" points="0 -481.3 49.61 -481.3"/><text x="24.8" y="-464.7" font-family="Courier New" font-size="14" text-anchor="middle">6-8</text><polyline fill="none" stroke="#000" points="0 -456.5 49.61 -456.5"/><text x="24.8" y="-439.9" font-family="Courier New" font-size="14" text-anchor="middle">9-10</text><polyline fill="none" stroke="#000" points="49.61 -431.7 49.61 -547.7"/><text x="78.61" y="-531.1" font-family="Courier New" font-size="14" text-anchor="middle">value</text><polyline fill="none" stroke="#000" points="49.61 -506.1 107.61 -506.1"/><polyline fill="none" stroke="#000" points="49.61 -481.3 107.61 -481.3"/><polyline fill="none" stroke="#000" points="49.61 -456.5 107.61 -456.5"/><polyline fill="none" stroke="#000" points="107.61 -431.7 107.61 -547.7"/><text x="296.24" y="-531.1" font-family="Courier New" font-size="14" text-anchor="middle">type: &lt;inherited contract&gt;.variable (bytes)</text><text x="296.24" y="-514.3" font-family="Courier New" font-size="14" text-anchor="middle">decoded data</text><polyline fill="none" stroke="#000" points="107.61 -506.1 484.87 -506.1"/><text x="296.24" y="-489.5" font-family="Courier New" font-size="14" text-anchor="middle">uint256[3][2]: twoByThreeNumbers (192)</text><polyline fill="none" stroke="#000" points="107.61 -481.3 484.87 -481.3"/><text x="295.83" y="-464.7" font-family="Courier New" font-size="14" text-anchor="middle">bool[2][3]: threeByTwoBool (96)</text><polyline fill="none" stroke="#000" points="107.61 -456.5 484.87 -456.5"/><text x="295.83" y="-439.9" font-family="Courier New" font-size="14" text-anchor="middle">bool[3][2]: twoByThreeBool (64)</text></g><g id="node4" class="node"><title>3</title><polygon fill="#f2f2f2" stroke="#000" points="520.87 -719.5 520.87 -835.5 889.73 -835.5 889.73 -719.5 520.87 -719.5"/><text x="705.3" y="-818.9" font-family="Courier New" font-size="14" text-anchor="middle">uint256[3][2]: twoByThreeNumbers &lt;&lt;Array&gt;&gt;</text><polyline fill="none" stroke="#000" points="520.87 -810.7 889.73 -810.7"/><text x="555.67" y="-794.1" font-family="Courier New" font-size="14" text-anchor="middle">slot</text><polyline fill="none" stroke="#000" points="520.87 -769.1 590.48 -769.1"/><text x="555.67" y="-752.5" font-family="Courier New" font-size="14" text-anchor="middle">0-2</text><polyline fill="none" stroke="#000" points="520.87 -744.3 590.48 -744.3"/><text x="555.67" y="-727.7" font-family="Courier New" font-size="14" text-anchor="middle">3-6</text><polyline fill="none" stroke="#000" points="590.48 -719.5 590.48 -810.7"/><text x="629.48" y="-794.1" font-family="Courier New" font-size="14" text-anchor="middle">value</text><polyline fill="none" stroke="#000" points="590.48 -769.1 668.48 -769.1"/><polyline fill="none" stroke="#000" points="590.48 -744.3 668.48 -744.3"/><polyline fill="none" stroke="#000" points="668.48 -719.5 668.48 -810.7"/><text x="778.9" y="-794.1" font-family="Courier New" font-size="14" text-anchor="middle">type: variable (bytes)</text><text x="778.9" y="-777.3" font-family="Courier New" font-size="14" text-anchor="middle">decoded data</text><polyline fill="none" stroke="#000" points="668.48 -769.1 889.31 -769.1"/><text x="778.49" y="-752.5" font-family="Courier New" font-size="14" text-anchor="middle">uint256[3] (96)</text><polyline fill="none" stroke="#000" points="668.48 -744.3 889.31 -744.3"/><text x="778.49" y="-727.7" font-family="Courier New" font-size="14" text-anchor="middle">uint256[3] (96)</text></g><g id="edge1" class="edge"><title>11:9-&gt;3</title><path fill="none" stroke="#000" d="M484.87,-493.5C514.09,-493.5 503.72,-524.85 520.87,-548.5 561.78,-604.91 611.34,-666.41 648.63,-711.47"/><polygon fill="#000" stroke="#000" points="646.13 -713.94 655.21 -719.4 651.52 -709.47 646.13 -713.94"/></g><g id="node8" class="node"><title>7</title><polygon fill="#f2f2f2" stroke="#000" points="546.08 -398.1 546.08 -538.9 864.52 -538.9 864.52 -398.1 546.08 -398.1"/><text x="705.3" y="-522.3" font-family="Courier New" font-size="14" text-anchor="middle">bool[2][3]: threeByTwoBool &lt;&lt;Array&gt;&gt;</text><polyline fill="none" stroke="#000" points="546.08 -514.1 864.52 -514.1"/><text x="572.38" y="-497.5" font-family="Courier New" font-size="14" text-anchor="middle">slot</text><polyline fill="none" stroke="#000" points="546.08 -472.5 598.68 -472.5"/><text x="572.38" y="-455.9" font-family="Courier New" font-size="14" text-anchor="middle">6</text><polyline fill="none" stroke="#000" points="546.08 -447.7 598.68 -447.7"/><text x="572.38" y="-431.1" font-family="Courier New" font-size="14" text-anchor="middle">7</text><polyline fill="none" stroke="#000" points="546.08 -422.9 598.68 -422.9"/><text x="572.38" y="-406.3" font-family="Courier New" font-size="14" text-anchor="middle">8</text><polyline fill="none" stroke="#000" points="598.68 -398.1 598.68 -514.1"/><text x="629.18" y="-497.5" font-family="Courier New" font-size="14" text-anchor="middle">value</text><polyline fill="none" stroke="#000" points="598.68 -472.5 659.69 -472.5"/><polyline fill="none" stroke="#000" points="598.68 -447.7 659.69 -447.7"/><polyline fill="none" stroke="#000" points="598.68 -422.9 659.69 -422.9"/><polyline fill="none" stroke="#000" points="659.69 -398.1 659.69 -514.1"/><text x="762.1" y="-497.5" font-family="Courier New" font-size="14" text-anchor="middle">type: variable (bytes)</text><text x="762.1" y="-480.7" font-family="Courier New" font-size="14" text-anchor="middle">decoded data</text><polyline fill="none" stroke="#000" points="659.69 -472.5 864.52 -472.5"/><text x="762.1" y="-455.9" font-family="Courier New" font-size="14" text-anchor="middle">bool[2] (32)</text><polyline fill="none" stroke="#000" points="659.69 -447.7 864.52 -447.7"/><text x="762.1" y="-431.1" font-family="Courier New" font-size="14" text-anchor="middle">bool[2] (32)</text><polyline fill="none" stroke="#000" points="659.69 -422.9 864.52 -422.9"/><text x="762.1" y="-406.3" font-family="Courier New" font-size="14" text-anchor="middle">bool[2] (32)</text></g><g id="edge2" class="edge"><title>11:19-&gt;7</title><path fill="none" stroke="#000" d="M484.87,-468.5C501.35,-468.5 518.53,-468.5 535.69,-468.5"/><polygon fill="#000" stroke="#000" points="535.79 -472 545.79 -468.5 535.79 -465 535.79 -472"/></g><g id="node11" class="node"><title>10</title><polygon fill="#f2f2f2" stroke="#000" points="546.08 -144.5 546.08 -260.5 864.52 -260.5 864.52 -144.5 546.08 -144.5"/><text x="705.3" y="-243.9" font-family="Courier New" font-size="14" text-anchor="middle">bool[3][2]: twoByThreeBool &lt;&lt;Array&gt;&gt;</text><polyline fill="none" stroke="#000" points="546.08 -235.7 864.52 -235.7"/><text x="572.38" y="-219.1" font-family="Courier New" font-size="14" text-anchor="middle">slot</text><polyline fill="none" stroke="#000" points="546.08 -194.1 598.68 -194.1"/><text x="572.38" y="-177.5" font-family="Courier New" font-size="14" text-anchor="middle">9</text><polyline fill="none" stroke="#000" points="546.08 -169.3 598.68 -169.3"/><text x="572.38" y="-152.7" font-family="Courier New" font-size="14" text-anchor="middle">10</text><polyline fill="none" stroke="#000" points="598.68 -144.5 598.68 -235.7"/><text x="629.18" y="-219.1" font-family="Courier New" font-size="14" text-anchor="middle">value</text><polyline fill="none" stroke="#000" points="598.68 -194.1 659.69 -194.1"/><polyline fill="none" stroke="#000" points="598.68 -169.3 659.69 -169.3"/><polyline fill="none" stroke="#000" points="659.69 -144.5 659.69 -235.7"/><text x="762.1" y="-219.1" font-family="Courier New" font-size="14" text-anchor="middle">type: variable (bytes)</text><text x="762.1" y="-202.3" font-family="Courier New" font-size="14" text-anchor="middle">decoded data</text><polyline fill="none" stroke="#000" points="659.69 -194.1 864.52 -194.1"/><text x="762.1" y="-177.5" font-family="Courier New" font-size="14" text-anchor="middle">bool[3] (32)</text><polyline fill="none" stroke="#000" points="659.69 -169.3 864.52 -169.3"/><text x="762.1" y="-152.7" font-family="Courier New" font-size="14" text-anchor="middle">bool[3] (32)</text></g><g id="edge3" class="edge"><title>11:28-&gt;10</title><path fill="none" stroke="#000" d="M484.87,-444.5C514.46,-444.5 502.38,-411.6 520.87,-388.5 555,-345.85 597.61,-302.17 633.17,-267.86"/><polygon fill="#000" stroke="#000" points="635.86 -270.13 640.65 -260.68 631.01 -265.08 635.86 -270.13"/></g><g id="node2" class="node"><title>1</title><polygon fill="#f2f2f2" stroke="#000" points="1025.34 -845.9 1025.34 -1037.1 1846.27 -1037.1 1846.27 -845.9 1025.34 -845.9"/><text x="1435.8" y="-1020.5" font-family="Courier New" font-size="14" text-anchor="middle">uint256[3]: twoByThreeNumbers &lt;&lt;Array&gt;&gt;</text><polyline fill="none" stroke="#000" points="1025.34 -1012.3 1846.27 -1012.3"/><text x="1050.14" y="-995.7" font-family="Courier New" font-size="14" text-anchor="middle">slot</text><polyline fill="none" stroke="#000" points="1025.34 -970.7 1074.95 -970.7"/><text x="1050.14" y="-954.1" font-family="Courier New" font-size="14" text-anchor="middle">0</text><polyline fill="none" stroke="#000" points="1025.34 -929.1 1074.95 -929.1"/><text x="1050.14" y="-912.5" font-family="Courier New" font-size="14" text-anchor="middle">1</text><polyline fill="none" stroke="#000" points="1025.34 -887.5 1074.95 -887.5"/><text x="1050.14" y="-870.9" font-family="Courier New" font-size="14" text-anchor="middle">2</text><polyline fill="none" stroke="#000" points="1074.95 -845.9 1074.95 -1012.3"/><text x="1360.19" y="-995.7" font-family="Courier New" font-size="14" text-anchor="middle">value</text><polyline fill="none" stroke="#000" points="1074.95 -970.7 1645.44 -970.7"/><text x="1360.19" y="-954.1" font-family="Courier New" font-size="14" text-anchor="middle">0x0000000000000000000000000000000000000000000000000000000000000001</text><polyline fill="none" stroke="#000" points="1074.95 -929.1 1645.44 -929.1"/><text x="1360.19" y="-912.5" font-family="Courier New" font-size="14" text-anchor="middle">0x0000000000000000000000000000000000000000000000000000000000000002</text><polyline fill="none" stroke="#000" points="1074.95 -887.5 1645.44 -887.5"/><text x="1360.19" y="-870.9" font-family="Courier New" font-size="14" text-anchor="middle">0x0000000000000000000000000000000000000000000000000000000000000003</text><polyline fill="none" stroke="#000" points="1645.44 -845.9 1645.44 -1012.3"/><text x="1745.85" y="-995.7" font-family="Courier New" font-size="14" text-anchor="middle">type: variable (bytes)</text><text x="1745.85" y="-978.9" font-family="Courier New" font-size="14" text-anchor="middle">decoded data</text><polyline fill="none" stroke="#000" points="1645.44 -970.7 1846.27 -970.7"/><text x="1745.84" y="-954.1" font-family="Courier New" font-size="14" text-anchor="middle">uint256 (32)</text><text x="1745.84" y="-937.3" font-family="Courier New" font-size="14" text-anchor="middle">1</text><polyline fill="none" stroke="#000" points="1645.44 -929.1 1846.27 -929.1"/><text x="1745.84" y="-912.5" font-family="Courier New" font-size="14" text-anchor="middle">uint256 (32)</text><text x="1745.84" y="-895.7" font-family="Courier New" font-size="14" text-anchor="middle">2</text><polyline fill="none" stroke="#000" points="1645.44 -887.5 1846.27 -887.5"/><text x="1745.84" y="-870.9" font-family="Courier New" font-size="14" text-anchor="middle">uint256 (32)</text><text x="1745.84" y="-854.1" font-family="Courier New" font-size="14" text-anchor="middle">3</text></g><g id="node3" class="node"><title>2</title><polygon fill="#f2f2f2" stroke="#000" points="1025.34 -635.9 1025.34 -827.1 1846.27 -827.1 1846.27 -635.9 1025.34 -635.9"/><text x="1435.8" y="-810.5" font-family="Courier New" font-size="14" text-anchor="middle">uint256[3]: twoByThreeNumbers &lt;&lt;Array&gt;&gt;</text><polyline fill="none" stroke="#000" points="1025.34 -802.3 1846.27 -802.3"/><text x="1050.14" y="-785.7" font-family="Courier New" font-size="14" text-anchor="middle">slot</text><polyline fill="none" stroke="#000" points="1025.34 -760.7 1074.95 -760.7"/><text x="1050.14" y="-744.1" font-family="Courier New" font-size="14" text-anchor="middle">3</text><polyline fill="none" stroke="#000" points="1025.34 -719.1 1074.95 -719.1"/><text x="1050.14" y="-702.5" font-family="Courier New" font-size="14" text-anchor="middle">4</text><polyline fill="none" stroke="#000" points="1025.34 -677.5 1074.95 -677.5"/><text x="1050.14" y="-660.9" font-family="Courier New" font-size="14" text-anchor="middle">5</text><polyline fill="none" stroke="#000" points="1074.95 -635.9 1074.95 -802.3"/><text x="1360.19" y="-785.7" font-family="Courier New" font-size="14" text-anchor="middle">value</text><polyline fill="none" stroke="#000" points="1074.95 -760.7 1645.44 -760.7"/><text x="1360.19" y="-744.1" font-family="Courier New" font-size="14" text-anchor="middle">0x0000000000000000000000000000000000000000000000000000000000000004</text><polyline fill="none" stroke="#000" points="1074.95 -719.1 1645.44 -719.1"/><text x="1360.19" y="-702.5" font-family="Courier New" font-size="14" text-anchor="middle">0x0000000000000000000000000000000000000000000000000000000000000005</text><polyline fill="none" stroke="#000" points="1074.95 -677.5 1645.44 -677.5"/><text x="1360.19" y="-660.9" font-family="Courier New" font-size="14" text-anchor="middle">0x0000000000000000000000000000000000000000000000000000000000000006</text><polyline fill="none" stroke="#000" points="1645.44 -635.9 1645.44 -802.3"/><text x="1745.85" y="-785.7" font-family="Courier New" font-size="14" text-anchor="middle">type: variable (bytes)</text><text x="1745.85" y="-768.9" font-family="Courier New" font-size="14" text-anchor="middle">decoded data</text><polyline fill="none" stroke="#000" points="1645.44 -760.7 1846.27 -760.7"/><text x="1745.84" y="-744.1" font-family="Courier New" font-size="14" text-anchor="middle">uint256 (32)</text><text x="1745.84" y="-727.3" font-family="Courier New" font-size="14" text-anchor="middle">4</text><polyline fill="none" stroke="#000" points="1645.44 -719.1 1846.27 -719.1"/><text x="1745.84" y="-702.5" font-family="Courier New" font-size="14" text-anchor="middle">uint256 (32)</text><text x="1745.84" y="-685.7" font-family="Courier New" font-size="14" text-anchor="middle">5</text><polyline fill="none" stroke="#000" points="1645.44 -677.5 1846.27 -677.5"/><text x="1745.84" y="-660.9" font-family="Courier New" font-size="14" text-anchor="middle">uint256 (32)</text><text x="1745.84" y="-644.1" font-family="Courier New" font-size="14" text-anchor="middle">6</text></g><g id="edge4" class="edge"><title>3:4-&gt;1</title><path fill="none" stroke="#000" d="M889.3,-756.5C928.37,-756.5 895.19,-812.13 925.73,-836.5 952.85,-858.14 983.32,-875.65 1015.5,-889.78"/><polygon fill="#000" stroke="#000" points="1014.51 -893.17 1025.08 -893.87 1017.26 -886.73 1014.51 -893.17"/></g><g id="edge5" class="edge"><title>3:5-&gt;2</title><path fill="none" stroke="#000" d="M889.3,-731.5C930.07,-731.5 972.55,-731.5 1015.02,-731.5"/><polygon fill="#000" stroke="#000" points="1015.23 -735 1025.23 -731.5 1015.23 -728 1015.23 -735"/></g><g id="node5" class="node"><title>4</title><polygon fill="#f2f2f2" stroke="#000" points="967.33 -508.5 967.33 -616.5 1904.27 -616.5 1904.27 -508.5 967.33 -508.5"/><text x="1435.8" y="-599.9" font-family="Courier New" font-size="14" text-anchor="middle">bool[2]: threeByTwoBool &lt;&lt;Array&gt;&gt;</text><polyline fill="none" stroke="#000" points="967.33 -591.7 1904.27 -591.7"/><text x="992.14" y="-575.1" font-family="Courier New" font-size="14" text-anchor="middle">slot</text><polyline fill="none" stroke="#000" points="967.33 -550.1 1016.94 -550.1"/><text x="992.14" y="-533.5" font-family="Courier New" font-size="14" text-anchor="middle">6</text><polyline fill="none" stroke="#000" points="1016.94 -508.5 1016.94 -591.7"/><text x="1302.18" y="-575.1" font-family="Courier New" font-size="14" text-anchor="middle">value</text><polyline fill="none" stroke="#000" points="1016.94 -550.1 1587.43 -550.1"/><text x="1302.18" y="-533.5" font-family="Courier New" font-size="14" text-anchor="middle">0x0000000000000000000000000000000000000000000000000000000000000001</text><polyline fill="none" stroke="#000" points="1587.43 -508.5 1587.43 -591.7"/><text x="1745.85" y="-575.1" font-family="Courier New" font-size="14" text-anchor="middle">type: variable (bytes)</text><text x="1745.85" y="-558.3" font-family="Courier New" font-size="14" text-anchor="middle">decoded data</text><polyline fill="none" stroke="#000" points="1587.43 -550.1 1904.27 -550.1"/><text x="1662.64" y="-525.1" font-family="Courier New" font-size="14" text-anchor="middle">unallocated (30)</text><polyline fill="none" stroke="#000" points="1737.85 -508.5 1737.85 -550.1"/><text x="1779.46" y="-533.5" font-family="Courier New" font-size="14" text-anchor="middle">bool (1)</text><text x="1779.46" y="-516.7" font-family="Courier New" font-size="14" text-anchor="middle">false</text><polyline fill="none" stroke="#000" points="1821.06 -508.5 1821.06 -550.1"/><text x="1862.67" y="-533.5" font-family="Courier New" font-size="14" text-anchor="middle">bool (1)</text><text x="1862.67" y="-516.7" font-family="Courier New" font-size="14" text-anchor="middle">true</text></g><g id="node6" class="node"><title>5</title><polygon fill="#f2f2f2" stroke="#000" points="967.33 -381.5 967.33 -489.5 1904.27 -489.5 1904.27 -381.5 967.33 -381.5"/><text x="1435.8" y="-472.9" font-family="Courier New" font-size="14" text-anchor="middle">bool[2]: threeByTwoBool &lt;&lt;Array&gt;&gt;</text><polyline fill="none" stroke="#000" points="967.33 -464.7 1904.27 -464.7"/><text x="992.14" y="-448.1" font-family="Courier New" font-size="14" text-anchor="middle">slot</text><polyline fill="none" stroke="#000" points="967.33 -423.1 1016.94 -423.1"/><text x="992.14" y="-406.5" font-family="Courier New" font-size="14" text-anchor="middle">7</text><polyline fill="none" stroke="#000" points="1016.94 -381.5 1016.94 -464.7"/><text x="1302.18" y="-448.1" font-family="Courier New" font-size="14" text-anchor="middle">value</text><polyline fill="none" stroke="#000" points="1016.94 -423.1 1587.43 -423.1"/><text x="1302.18" y="-406.5" font-family="Courier New" font-size="14" text-anchor="middle">0x0000000000000000000000000000000000000000000000000000000000000100</text><polyline fill="none" stroke="#000" points="1587.43 -381.5 1587.43 -464.7"/><text x="1745.85" y="-448.1" font-family="Courier New" font-size="14" text-anchor="middle">type: variable (bytes)</text><text x="1745.85" y="-431.3" font-family="Courier New" font-size="14" text-anchor="middle">decoded data</text><polyline fill="none" stroke="#000" points="1587.43 -423.1 1904.27 -423.1"/><text x="1662.64" y="-398.1" font-family="Courier New" font-size="14" text-anchor="middle">unallocated (30)</text><polyline fill="none" stroke="#000" points="1737.85 -381.5 1737.85 -423.1"/><text x="1779.46" y="-406.5" font-family="Courier New" font-size="14" text-anchor="middle">bool (1)</text><text x="1779.46" y="-389.7" font-family="Courier New" font-size="14" text-anchor="middle">true</text><polyline fill="none" stroke="#000" points="1821.06 -381.5 1821.06 -423.1"/><text x="1862.67" y="-406.5" font-family="Courier New" font-size="14" text-anchor="middle">bool (1)</text><text x="1862.67" y="-389.7" font-family="Courier New" font-size="14" text-anchor="middle">false</text></g><g id="node7" class="node"><title>6</title><polygon fill="#f2f2f2" stroke="#000" points="967.33 -254.5 967.33 -362.5 1904.27 -362.5 1904.27 -254.5 967.33 -254.5"/><text x="1435.8" y="-345.9" font-family="Courier New" font-size="14" text-anchor="middle">bool[2]: threeByTwoBool &lt;&lt;Array&gt;&gt;</text><polyline fill="none" stroke="#000" points="967.33 -337.7 1904.27 -337.7"/><text x="992.14" y="-321.1" font-family="Courier New" font-size="14" text-anchor="middle">slot</text><polyline fill="none" stroke="#000" points="967.33 -296.1 1016.94 -296.1"/><text x="992.14" y="-279.5" font-family="Courier New" font-size="14" text-anchor="middle">8</text><polyline fill="none" stroke="#000" points="1016.94 -254.5 1016.94 -337.7"/><text x="1302.18" y="-321.1" font-family="Courier New" font-size="14" text-anchor="middle">value</text><polyline fill="none" stroke="#000" points="1016.94 -296.1 1587.43 -296.1"/><text x="1302.18" y="-279.5" font-family="Courier New" font-size="14" text-anchor="middle">0x0000000000000000000000000000000000000000000000000000000000000001</text><polyline fill="none" stroke="#000" points="1587.43 -254.5 1587.43 -337.7"/><text x="1745.85" y="-321.1" font-family="Courier New" font-size="14" text-anchor="middle">type: variable (bytes)</text><text x="1745.85" y="-304.3" font-family="Courier New" font-size="14" text-anchor="middle">decoded data</text><polyline fill="none" stroke="#000" points="1587.43 -296.1 1904.27 -296.1"/><text x="1662.64" y="-271.1" font-family="Courier New" font-size="14" text-anchor="middle">unallocated (30)</text><polyline fill="none" stroke="#000" points="1737.85 -254.5 1737.85 -296.1"/><text x="1779.46" y="-279.5" font-family="Courier New" font-size="14" text-anchor="middle">bool (1)</text><text x="1779.46" y="-262.7" font-family="Courier New" font-size="14" text-anchor="middle">false</text><polyline fill="none" stroke="#000" points="1821.06 -254.5 1821.06 -296.1"/><text x="1862.67" y="-279.5" font-family="Courier New" font-size="14" text-anchor="middle">bool (1)</text><text x="1862.67" y="-262.7" font-family="Courier New" font-size="14" text-anchor="middle">true</text></g><g id="edge6" class="edge"><title>7:12-&gt;4</title><path fill="none" stroke="#000" d="M865.3,-460.5C897.26,-460.5 895.68,-488.6 925.73,-499.5 936.06,-503.25 946.59,-506.79 957.25,-510.12"/><polygon fill="#000" stroke="#000" points="956.5 -513.55 967.09 -513.12 958.55 -506.85 956.5 -513.55"/></g><g id="edge7" class="edge"><title>7:13-&gt;5</title><path fill="none" stroke="#000" d="M865.3,-435.5C895.19,-435.5 925.96,-435.5 956.98,-435.5"/><polygon fill="#000" stroke="#000" points="957.07 -439 967.07 -435.5 957.07 -432 957.07 -439"/></g><g id="edge8" class="edge"><title>7:14-&gt;6</title><path fill="none" stroke="#000" d="M865.3,-410.5C897.03,-410.5 895.85,-383.18 925.73,-372.5 936.08,-368.8 946.63,-365.31 957.31,-362.01"/><polygon fill="#000" stroke="#000" points="958.6 -365.28 967.16 -359.04 956.58 -358.58 958.6 -365.28"/></g><g id="node9" class="node"><title>8</title><polygon fill="#f2f2f2" stroke="#000" points="925.73 -127.5 925.73 -235.5 1945.88 -235.5 1945.88 -127.5 925.73 -127.5"/><text x="1435.8" y="-218.9" font-family="Courier New" font-size="14" text-anchor="middle">bool[3]: twoByThreeBool &lt;&lt;Array&gt;&gt;</text><polyline fill="none" stroke="#000" points="925.73 -210.7 1945.88 -210.7"/><text x="950.53" y="-194.1" font-family="Courier New" font-size="14" text-anchor="middle">slot</text><polyline fill="none" stroke="#000" points="925.73 -169.1 975.33 -169.1"/><text x="950.53" y="-152.5" font-family="Courier New" font-size="14" text-anchor="middle">9</text><polyline fill="none" stroke="#000" points="975.33 -127.5 975.33 -210.7"/><text x="1260.58" y="-194.1" font-family="Courier New" font-size="14" text-anchor="middle">value</text><polyline fill="none" stroke="#000" points="975.33 -169.1 1545.82 -169.1"/><text x="1260.58" y="-152.5" font-family="Courier New" font-size="14" text-anchor="middle">0x0000000000000000000000000000000000000000000000000000000000010001</text><polyline fill="none" stroke="#000" points="1545.82 -127.5 1545.82 -210.7"/><text x="1745.85" y="-194.1" font-family="Courier New" font-size="14" text-anchor="middle">type: variable (bytes)</text><text x="1745.85" y="-177.3" font-family="Courier New" font-size="14" text-anchor="middle">decoded data</text><polyline fill="none" stroke="#000" points="1545.82 -169.1 1945.88 -169.1"/><text x="1621.04" y="-144.1" font-family="Courier New" font-size="14" text-anchor="middle">unallocated (29)</text><polyline fill="none" stroke="#000" points="1696.25 -127.5 1696.25 -169.1"/><text x="1737.85" y="-152.5" font-family="Courier New" font-size="14" text-anchor="middle">bool (1)</text><text x="1737.85" y="-135.7" font-family="Courier New" font-size="14" text-anchor="middle">true</text><polyline fill="none" stroke="#000" points="1779.46 -127.5 1779.46 -169.1"/><text x="1821.06" y="-152.5" font-family="Courier New" font-size="14" text-anchor="middle">bool (1)</text><text x="1821.06" y="-135.7" font-family="Courier New" font-size="14" text-anchor="middle">false</text><polyline fill="none" stroke="#000" points="1862.67 -127.5 1862.67 -169.1"/><text x="1904.27" y="-152.5" font-family="Courier New" font-size="14" text-anchor="middle">bool (1)</text><text x="1904.27" y="-135.7" font-family="Courier New" font-size="14" text-anchor="middle">true</text></g><g id="node10" class="node"><title>9</title><polygon fill="#f2f2f2" stroke="#000" points="925.73 -.5 925.73 -108.5 1945.88 -108.5 1945.88 -.5 925.73 -.5"/><text x="1435.8" y="-91.9" font-family="Courier New" font-size="14" text-anchor="middle">bool[3]: twoByThreeBool &lt;&lt;Array&gt;&gt;</text><polyline fill="none" stroke="#000" points="925.73 -83.7 1945.88 -83.7"/><text x="950.53" y="-67.1" font-family="Courier New" font-size="14" text-anchor="middle">slot</text><polyline fill="none" stroke="#000" points="925.73 -42.1 975.33 -42.1"/><text x="950.53" y="-25.5" font-family="Courier New" font-size="14" text-anchor="middle">10</text><polyline fill="none" stroke="#000" points="975.33 -.5 975.33 -83.7"/><text x="1260.58" y="-67.1" font-family="Courier New" font-size="14" text-anchor="middle">value</text><polyline fill="none" stroke="#000" points="975.33 -42.1 1545.82 -42.1"/><text x="1260.58" y="-25.5" font-family="Courier New" font-size="14" text-anchor="middle">0x0000000000000000000000000000000000000000000000000000000000000100</text><polyline fill="none" stroke="#000" points="1545.82 -.5 1545.82 -83.7"/><text x="1745.85" y="-67.1" font-family="Courier New" font-size="14" text-anchor="middle">type: variable (bytes)</text><text x="1745.85" y="-50.3" font-family="Courier New" font-size="14" text-anchor="middle">decoded data</text><polyline fill="none" stroke="#000" points="1545.82 -42.1 1945.88 -42.1"/><text x="1621.04" y="-17.1" font-family="Courier New" font-size="14" text-anchor="middle">unallocated (29)</text><polyline fill="none" stroke="#000" points="1696.25 -.5 1696.25 -42.1"/><text x="1737.85" y="-25.5" font-family="Courier New" font-size="14" text-anchor="middle">bool (1)</text><text x="1737.85" y="-8.7" font-family="Courier New" font-size="14" text-anchor="middle">false</text><polyline fill="none" stroke="#000" points="1779.46 -.5 1779.46 -42.1"/><text x="1821.06" y="-25.5" font-family="Courier New" font-size="14" text-anchor="middle">bool (1)</text><text x="1821.06" y="-8.7" font-family="Courier New" font-size="14" text-anchor="middle">true</text><polyline fill="none" stroke="#000" points="1862.67 -.5 1862.67 -42.1"/><text x="1904.27" y="-25.5" font-family="Courier New" font-size="14" text-anchor="middle">bool (1)</text><text x="1904.27" y="-8.7" font-family="Courier New" font-size="14" text-anchor="middle">false</text></g><g id="edge9" class="edge"><title>10:23-&gt;8</title><path fill="none" stroke="#000" d="M865.3,-181.5C881.83,-181.5 898.63,-181.5 915.59,-181.5"/><polygon fill="#000" stroke="#000" points="915.6 -185 925.6 -181.5 915.6 -178 915.6 -185"/></g><g id="edge10" class="edge"><title>10:24-&gt;9</title><path fill="none" stroke="#000" d="M865.3,-156.5C897.03,-156.5 895.85,-129.18 925.73,-118.5 932.28,-116.16 938.91,-113.9 945.6,-111.72"/><polygon fill="#000" stroke="#000" points="946.97 -114.96 955.44 -108.59 944.85 -108.29 946.97 -114.96"/></g></g></svg>