<svg xmlns="http://www.w3.org/2000/svg" xmlns:xlink="http://www.w3.org/1999/xlink" width="1620" height="325pt" viewBox="0 0 1214.59 325"><g id="graph0" class="graph" transform="scale(1 1) rotate(0) translate(4 321)"><title>StorageDiagram</title><polygon fill="#fff" stroke="transparent" points="-4 4 -4 -321 1210.59 -321 1210.59 4 -4 4"/><g id="node1" class="node"><title>1</title><polygon fill="#f2f2f2" stroke="#000" points="0 -.5 0 -316.5 1206.59 -316.5 1206.59 -.5 0 -.5"/><text x="603.29" y="-299.9" font-family="Courier New" font-size="14" text-anchor="middle">OETHDripper &lt;&lt;Contract&gt;&gt;</text><text x="603.29" y="-283.1" font-family="Courier New" font-size="14" text-anchor="middle">0x2fdfbb2b905484f1445e23a97c97f65fe0e43dec</text><polyline fill="none" stroke="#000" points="0 -274.9 1206.59 -274.9"/><text x="50.01" y="-258.3" font-family="Courier New" font-size="14" text-anchor="middle">slot</text><polyline fill="none" stroke="#000" points="0 -233.3 100.01 -233.3"/><text x="50.01" y="-216.7" font-family="Courier New" font-size="14" text-anchor="middle">0</text><polyline fill="none" stroke="#000" points="0 -191.7 100.01 -191.7"/><text x="50.01" y="-175.1" font-family="Courier New" font-size="14" text-anchor="middle">1</text><polyline fill="none" stroke="#000" points="0 -166.9 100.01 -166.9"/><text x="50.01" y="-150.3" font-family="Courier New" font-size="14" text-anchor="middle">0x360..bbc</text><polyline fill="none" stroke="#000" points="0 -125.3 100.01 -125.3"/><text x="50.01" y="-108.7" font-family="Courier New" font-size="14" text-anchor="middle">0x44c..1db</text><polyline fill="none" stroke="#000" points="0 -83.7 100.01 -83.7"/><text x="50.01" y="-67.1" font-family="Courier New" font-size="14" text-anchor="middle">0x53b..535</text><polyline fill="none" stroke="#000" points="0 -42.1 100.01 -42.1"/><text x="50.01" y="-25.5" font-family="Courier New" font-size="14" text-anchor="middle">0x7be..a4a</text><polyline fill="none" stroke="#000" points="100.01 -.5 100.01 -274.9"/><text x="385.26" y="-258.3" font-family="Courier New" font-size="14" text-anchor="middle">value</text><polyline fill="none" stroke="#000" points="100.01 -233.3 670.5 -233.3"/><text x="385.26" y="-216.7" font-family="Courier New" font-size="14" text-anchor="middle">0x000000000000000000000000000000000000000000000000000000000003F480</text><polyline fill="none" stroke="#000" points="100.01 -191.7 670.5 -191.7"/><polyline fill="none" stroke="#000" points="100.01 -166.9 670.5 -166.9"/><text x="385.26" y="-150.3" font-family="Courier New" font-size="14" text-anchor="middle">0x0000000000000000000000002FDFBB2B905484F1445E23A97C97F65FE0E43DEC</text><polyline fill="none" stroke="#000" points="100.01 -125.3 670.5 -125.3"/><text x="385.26" y="-108.7" font-family="Courier New" font-size="14" text-anchor="middle">0x00000000000000000000000035918CDE7233F2DD33FA41AE3CB6AE0E42E0E69F</text><polyline fill="none" stroke="#000" points="100.01 -83.7 670.5 -83.7"/><text x="385.26" y="-67.1" font-family="Courier New" font-size="14" text-anchor="middle">0x0000000000000000000000000000000000000000000000000000000000000000</text><polyline fill="none" stroke="#000" points="100.01 -42.1 670.5 -42.1"/><text x="385.26" y="-25.5" font-family="Courier New" font-size="14" text-anchor="middle">0x00000000000000000000000035918CDE7233F2DD33FA41AE3CB6AE0E42E0E69F</text><polyline fill="none" stroke="#000" points="670.5 -.5 670.5 -274.9"/><text x="938.54" y="-258.3" font-family="Courier New" font-size="14" text-anchor="middle">type: &lt;inherited contract&gt;.variable (bytes)</text><text x="938.54" y="-241.5" font-family="Courier New" font-size="14" text-anchor="middle">decoded data</text><polyline fill="none" stroke="#000" points="670.5 -233.3 1206.59 -233.3"/><text x="938.33" y="-216.7" font-family="Courier New" font-size="14" text-anchor="middle">uint256: Dripper.dripDuration (32)</text><text x="938.33" y="-199.9" font-family="Courier New" font-size="14" text-anchor="middle">259,200</text><polyline fill="none" stroke="#000" points="670.5 -191.7 1206.59 -191.7"/><text x="938.12" y="-175.1" font-family="Courier New" font-size="14" text-anchor="middle">Drip: Dripper.drip (32)</text><polyline fill="none" stroke="#000" points="670.5 -166.9 1206.59 -166.9"/><text x="745.71" y="-141.9" font-family="Courier New" font-size="14" text-anchor="middle">unallocated (12)</text><polyline fill="none" stroke="#000" points="820.93 -125.3 820.93 -166.9"/><text x="1013.76" y="-150.3" font-family="Courier New" font-size="14" text-anchor="middle">address (20)</text><text x="1013.76" y="-133.5" font-family="Courier New" font-size="14" text-anchor="middle">0x2FDfBb2b905484f1445E23A97C97F65fe0e43dEC</text><polyline fill="none" stroke="#000" points="670.5 -125.3 1206.59 -125.3"/><text x="745.71" y="-100.3" font-family="Courier New" font-size="14" text-anchor="middle">unallocated (12)</text><polyline fill="none" stroke="#000" points="820.93 -83.7 820.93 -125.3"/><text x="1013.76" y="-108.7" font-family="Courier New" font-size="14" text-anchor="middle">address: OUSD.pending.governor (20)</text><text x="1013.76" y="-91.9" font-family="Courier New" font-size="14" text-anchor="middle">0x35918cDE7233F2dD33fA41ae3Cb6aE0e42E0e69F</text><polyline fill="none" stroke="#000" points="670.5 -83.7 1206.59 -83.7"/><text x="777.21" y="-58.7" font-family="Courier New" font-size="14" text-anchor="middle">unallocated (31)</text><polyline fill="none" stroke="#000" points="883.93 -42.1 883.93 -83.7"/><text x="1045.25" y="-67.1" font-family="Courier New" font-size="14" text-anchor="middle">bool: OUSD.reentry.status (1)</text><text x="1045.25" y="-50.3" font-family="Courier New" font-size="14" text-anchor="middle">false</text><polyline fill="none" stroke="#000" points="670.5 -42.1 1206.59 -42.1"/><text x="745.71" y="-17.1" font-family="Courier New" font-size="14" text-anchor="middle">unallocated (12)</text><polyline fill="none" stroke="#000" points="820.93 -.5 820.93 -42.1"/><text x="1013.76" y="-25.5" font-family="Courier New" font-size="14" text-anchor="middle">address: OUSD.governor (20)</text><text x="1013.76" y="-8.7" font-family="Courier New" font-size="14" text-anchor="middle">0x35918cDE7233F2dD33fA41ae3Cb6aE0e42E0e69F</text></g></g></svg>