<svg xmlns="http://www.w3.org/2000/svg" xmlns:xlink="http://www.w3.org/1999/xlink" width="1688" height="325pt" viewBox="0 0 1265.8 325"><g id="graph0" class="graph" transform="scale(1 1) rotate(0) translate(4 321)"><title>StorageDiagram</title><polygon fill="#fff" stroke="transparent" points="-4 4 -4 -321 1261.8 -321 1261.8 4 -4 4"/><g id="node1" class="node"><title>1</title><polygon fill="#f2f2f2" stroke="#000" points="0 -.5 0 -316.5 1257.8 -316.5 1257.8 -.5 0 -.5"/><text x="628.9" y="-299.9" font-family="Courier New" font-size="14" text-anchor="middle">OETHDripper &lt;&lt;Contract&gt;&gt;</text><text x="628.9" y="-283.1" font-family="Courier New" font-size="14" text-anchor="middle">0x2fdfbb2b905484f1445e23a97c97f65fe0e43dec</text><polyline fill="none" stroke="#000" points="0 -274.9 1257.8 -274.9"/><text x="50.01" y="-258.3" font-family="Courier New" font-size="14" text-anchor="middle">slot</text><polyline fill="none" stroke="#000" points="0 -233.3 100.01 -233.3"/><text x="50.01" y="-216.7" font-family="Courier New" font-size="14" text-anchor="middle">0</text><polyline fill="none" stroke="#000" points="0 -191.7 100.01 -191.7"/><text x="50.01" y="-175.1" font-family="Courier New" font-size="14" text-anchor="middle">1</text><polyline fill="none" stroke="#000" points="0 -166.9 100.01 -166.9"/><text x="50.01" y="-150.3" font-family="Courier New" font-size="14" text-anchor="middle">0x360..bbc</text><polyline fill="none" stroke="#000" points="0 -125.3 100.01 -125.3"/><text x="50.01" y="-108.7" font-family="Courier New" font-size="14" text-anchor="middle">0x44c..1db</text><polyline fill="none" stroke="#000" points="0 -83.7 100.01 -83.7"/><text x="50.01" y="-67.1" font-family="Courier New" font-size="14" text-anchor="middle">0x53b..535</text><polyline fill="none" stroke="#000" points="0 -42.1 100.01 -42.1"/><text x="50.01" y="-25.5" font-family="Courier New" font-size="14" text-anchor="middle">0x7be..a4a</text><polyline fill="none" stroke="#000" points="100.01 -.5 100.01 -274.9"/><text x="385.26" y="-258.3" font-family="Courier New" font-size="14" text-anchor="middle">value</text><polyline fill="none" stroke="#000" points="100.01 -233.3 670.5 -233.3"/><text x="385.26" y="-216.7" font-family="Courier New" font-size="14" text-anchor="middle">0x000000000000000000000000000000000000000000000000000000000003F480</text><polyline fill="none" stroke="#000" points="100.01 -191.7 670.5 -191.7"/><polyline fill="none" stroke="#000" points="100.01 -166.9 670.5 -166.9"/><text x="385.26" y="-150.3" font-family="Courier New" font-size="14" text-anchor="middle">0x0000000000000000000000002FDFBB2B905484F1445E23A97C97F65FE0E43DEC</text><polyline fill="none" stroke="#000" points="100.01 -125.3 670.5 -125.3"/><text x="385.26" y="-108.7" font-family="Courier New" font-size="14" text-anchor="middle">0x00000000000000000000000035918CDE7233F2DD33FA41AE3CB6AE0E42E0E69F</text><polyline fill="none" stroke="#000" points="100.01 -83.7 670.5 -83.7"/><text x="385.26" y="-67.1" font-family="Courier New" font-size="14" text-anchor="middle">0x0000000000000000000000000000000000000000000000000000000000000000</text><polyline fill="none" stroke="#000" points="100.01 -42.1 670.5 -42.1"/><text x="385.26" y="-25.5" font-family="Courier New" font-size="14" text-anchor="middle">0x00000000000000000000000035918CDE7233F2DD33FA41AE3CB6AE0E42E0E69F</text><polyline fill="none" stroke="#000" points="670.5 -.5 670.5 -274.9"/><text x="964.15" y="-258.3" font-family="Courier New" font-size="14" text-anchor="middle">type: &lt;inherited contract&gt;.variable (bytes)</text><text x="964.15" y="-241.5" font-family="Courier New" font-size="14" text-anchor="middle">decoded data</text><polyline fill="none" stroke="#000" points="670.5 -233.3 1257.8 -233.3"/><text x="963.83" y="-216.7" font-family="Courier New" font-size="14" text-anchor="middle">uint256: Dripper.dripDuration (32)</text><text x="963.83" y="-199.9" font-family="Courier New" font-size="14" text-anchor="middle">259,200</text><polyline fill="none" stroke="#000" points="670.5 -191.7 1257.8 -191.7"/><text x="964.12" y="-175.1" font-family="Courier New" font-size="14" text-anchor="middle">Drip: Dripper.drip (32)</text><polyline fill="none" stroke="#000" points="670.5 -166.9 1257.8 -166.9"/><text x="964.15" y="-150.3" font-family="Courier New" font-size="14" text-anchor="middle">bytes32 (32)</text><text x="964.15" y="-133.5" font-family="Courier New" font-size="14" text-anchor="middle">0x0000000000000000000000002FDFBB2B905484F1445E23A97C97F65FE0E43DEC</text><polyline fill="none" stroke="#000" points="670.5 -125.3 1257.8 -125.3"/><text x="964.15" y="-108.7" font-family="Courier New" font-size="14" text-anchor="middle">bytes32: OUSD.pending.governor (32)</text><text x="964.15" y="-91.9" font-family="Courier New" font-size="14" text-anchor="middle">0x00000000000000000000000035918CDE7233F2DD33FA41AE3CB6AE0E42E0E69F</text><polyline fill="none" stroke="#000" points="670.5 -83.7 1257.8 -83.7"/><text x="964.15" y="-67.1" font-family="Courier New" font-size="14" text-anchor="middle">bytes32: OUSD.reentry.status (32)</text><text x="964.15" y="-50.3" font-family="Courier New" font-size="14" text-anchor="middle">0x0000000000000000000000000000000000000000000000000000000000000000</text><polyline fill="none" stroke="#000" points="670.5 -42.1 1257.8 -42.1"/><text x="964.15" y="-25.5" font-family="Courier New" font-size="14" text-anchor="middle">bytes32: OUSD.governor (32)</text><text x="964.15" y="-8.7" font-family="Courier New" font-size="14" text-anchor="middle">0x00000000000000000000000035918CDE7233F2DD33FA41AE3CB6AE0E42E0E69F</text></g></g></svg>