<svg xmlns="http://www.w3.org/2000/svg" xmlns:xlink="http://www.w3.org/1999/xlink" width="580" height="232pt" viewBox="0 0 434.86 232.2"><g id="graph0" class="graph" transform="scale(1 1) rotate(0) translate(4 228.2)"><title>StorageDiagram</title><polygon fill="#fff" stroke="transparent" points="-4 4 -4 -228.2 430.86 -228.2 430.86 4 -4 4"/><g id="node1" class="node"><title>1</title><polygon fill="#f2f2f2" stroke="#000" points="0 -.5 0 -223.7 426.86 -223.7 426.86 -.5 0 -.5"/><text x="213.43" y="-207.1" font-family="Courier New" font-size="14" text-anchor="middle">StringStorage &lt;&lt;Contract&gt;&gt;</text><polyline fill="none" stroke="#000" points="0 -198.9 426.86 -198.9"/><text x="24.8" y="-182.3" font-family="Courier New" font-size="14" text-anchor="middle">slot</text><polyline fill="none" stroke="#000" points="0 -174.1 49.61 -174.1"/><text x="24.8" y="-157.5" font-family="Courier New" font-size="14" text-anchor="middle">0</text><polyline fill="none" stroke="#000" points="0 -149.3 49.61 -149.3"/><text x="24.8" y="-132.7" font-family="Courier New" font-size="14" text-anchor="middle">1</text><polyline fill="none" stroke="#000" points="0 -124.5 49.61 -124.5"/><text x="24.8" y="-107.9" font-family="Courier New" font-size="14" text-anchor="middle">2</text><polyline fill="none" stroke="#000" points="0 -99.7 49.61 -99.7"/><text x="24.8" y="-83.1" font-family="Courier New" font-size="14" text-anchor="middle">3</text><polyline fill="none" stroke="#000" points="0 -74.9 49.61 -74.9"/><text x="24.8" y="-58.3" font-family="Courier New" font-size="14" text-anchor="middle">4</text><polyline fill="none" stroke="#000" points="0 -50.1 49.61 -50.1"/><text x="24.8" y="-33.5" font-family="Courier New" font-size="14" text-anchor="middle">5</text><polyline fill="none" stroke="#000" points="0 -25.3 49.61 -25.3"/><text x="24.8" y="-8.7" font-family="Courier New" font-size="14" text-anchor="middle">6</text><polyline fill="none" stroke="#000" points="49.61 -.5 49.61 -198.9"/><text x="238.23" y="-182.3" font-family="Courier New" font-size="14" text-anchor="middle">type: &lt;inherited contract&gt;.variable (bytes)</text><polyline fill="none" stroke="#000" points="49.61 -174.1 426.86 -174.1"/><text x="238.12" y="-157.5" font-family="Courier New" font-size="14" text-anchor="middle">string: uninitString (32)</text><polyline fill="none" stroke="#000" points="49.61 -149.3 426.86 -149.3"/><text x="237.92" y="-132.7" font-family="Courier New" font-size="14" text-anchor="middle">string: emptyString (32)</text><polyline fill="none" stroke="#000" points="49.61 -124.5 426.86 -124.5"/><text x="238.02" y="-107.9" font-family="Courier New" font-size="14" text-anchor="middle">string: name (32)</text><polyline fill="none" stroke="#000" points="49.61 -99.7 426.86 -99.7"/><text x="238.02" y="-83.1" font-family="Courier New" font-size="14" text-anchor="middle">string: exactly31 (32)</text><polyline fill="none" stroke="#000" points="49.61 -74.9 426.86 -74.9"/><text x="238.02" y="-58.3" font-family="Courier New" font-size="14" text-anchor="middle">string: exactly32 (32)</text><polyline fill="none" stroke="#000" points="49.61 -50.1 426.86 -50.1"/><text x="238.22" y="-33.5" font-family="Courier New" font-size="14" text-anchor="middle">string: long2 (32)</text><polyline fill="none" stroke="#000" points="49.61 -25.3 426.86 -25.3"/><text x="238.22" y="-8.7" font-family="Courier New" font-size="14" text-anchor="middle">string: long3 (32)</text></g></g></svg>