<svg xmlns="http://www.w3.org/2000/svg" xmlns:xlink="http://www.w3.org/1999/xlink" width="2114pt" height="631pt" viewBox="0 0 2113.52 631.2"><g id="graph0" class="graph" transform="scale(1 1) rotate(0) translate(4 627.2)"><title>StorageDiagram</title><polygon fill="#fff" stroke="transparent" points="-4 4 -4 -627.2 2109.52 -627.2 2109.52 4 -4 4"/><g id="node1" class="node"><title>1</title><polygon fill="#f2f2f2" stroke="#000" points="0 -248.3 0 -622.7 997.35 -622.7 997.35 -248.3 0 -248.3"/><text x="498.68" y="-606.1" font-family="Courier New" font-size="14" text-anchor="middle">StringStorage &lt;&lt;Contract&gt;&gt;</text><text x="498.68" y="-589.3" font-family="Courier New" font-size="14" text-anchor="middle">0xeF2A93be2beD1b577D460c347f82De1Ba8bD9861</text><polyline fill="none" stroke="#000" points="0 -581.1 997.35 -581.1"/><text x="24.8" y="-564.5" font-family="Courier New" font-size="14" text-anchor="middle">slot</text><polyline fill="none" stroke="#000" points="0 -539.5 49.61 -539.5"/><text x="24.8" y="-522.9" font-family="Courier New" font-size="14" text-anchor="middle">0</text><polyline fill="none" stroke="#000" points="0 -497.9 49.61 -497.9"/><text x="24.8" y="-481.3" font-family="Courier New" font-size="14" text-anchor="middle">1</text><polyline fill="none" stroke="#000" points="0 -456.3 49.61 -456.3"/><text x="24.8" y="-439.7" font-family="Courier New" font-size="14" text-anchor="middle">2</text><polyline fill="none" stroke="#000" points="0 -414.7 49.61 -414.7"/><text x="24.8" y="-398.1" font-family="Courier New" font-size="14" text-anchor="middle">3</text><polyline fill="none" stroke="#000" points="0 -373.1 49.61 -373.1"/><text x="24.8" y="-356.5" font-family="Courier New" font-size="14" text-anchor="middle">4</text><polyline fill="none" stroke="#000" points="0 -331.5 49.61 -331.5"/><text x="24.8" y="-314.9" font-family="Courier New" font-size="14" text-anchor="middle">5</text><polyline fill="none" stroke="#000" points="0 -289.9 49.61 -289.9"/><text x="24.8" y="-273.3" font-family="Courier New" font-size="14" text-anchor="middle">6</text><polyline fill="none" stroke="#000" points="49.61 -248.3 49.61 -581.1"/><text x="334.85" y="-564.5" font-family="Courier New" font-size="14" text-anchor="middle">value</text><polyline fill="none" stroke="#000" points="49.61 -539.5 620.1 -539.5"/><text x="334.85" y="-522.9" font-family="Courier New" font-size="14" text-anchor="middle">0x0000000000000000000000000000000000000000000000000000000000000000</text><polyline fill="none" stroke="#000" points="49.61 -497.9 620.1 -497.9"/><text x="334.85" y="-481.3" font-family="Courier New" font-size="14" text-anchor="middle">0x0000000000000000000000000000000000000000000000000000000000000000</text><polyline fill="none" stroke="#000" points="49.61 -456.3 620.1 -456.3"/><text x="334.85" y="-439.7" font-family="Courier New" font-size="14" text-anchor="middle">0x537472696E6753746F7261676520636F6E74726163740000000000000000002C</text><polyline fill="none" stroke="#000" points="49.61 -414.7 620.1 -414.7"/><text x="334.85" y="-398.1" font-family="Courier New" font-size="14" text-anchor="middle">0x65786163746C7920333120636861727320736F2075736573203120736C6F743E</text><polyline fill="none" stroke="#000" points="49.61 -373.1 620.1 -373.1"/><text x="334.85" y="-356.5" font-family="Courier New" font-size="14" text-anchor="middle">0x0000000000000000000000000000000000000000000000000000000000000041</text><polyline fill="none" stroke="#000" points="49.61 -331.5 620.1 -331.5"/><text x="334.85" y="-314.9" font-family="Courier New" font-size="14" text-anchor="middle">0x0000000000000000000000000000000000000000000000000000000000000077</text><polyline fill="none" stroke="#000" points="49.61 -289.9 620.1 -289.9"/><text x="334.85" y="-273.3" font-family="Courier New" font-size="14" text-anchor="middle">0x0000000000000000000000000000000000000000000000000000000000000099</text><polyline fill="none" stroke="#000" points="620.1 -248.3 620.1 -581.1"/><text x="808.73" y="-564.5" font-family="Courier New" font-size="14" text-anchor="middle">type: &lt;inherited contract&gt;.variable (bytes)</text><text x="808.73" y="-547.7" font-family="Courier New" font-size="14" text-anchor="middle">decoded data</text><polyline fill="none" stroke="#000" points="620.1 -539.5 997.35 -539.5"/><text x="808.61" y="-522.9" font-family="Courier New" font-size="14" text-anchor="middle">string: uninitString (32)</text><text x="808.61" y="-506.1" font-family="Courier New" font-size="14" text-anchor="middle">&quot;&quot;</text><polyline fill="none" stroke="#000" points="620.1 -497.9 997.35 -497.9"/><text x="808.41" y="-481.3" font-family="Courier New" font-size="14" text-anchor="middle">string: emptyString (32)</text><text x="808.41" y="-464.5" font-family="Courier New" font-size="14" text-anchor="middle">&quot;&quot;</text><polyline fill="none" stroke="#000" points="620.1 -456.3 997.35 -456.3"/><text x="808.31" y="-439.7" font-family="Courier New" font-size="14" text-anchor="middle">string: name (32)</text><text x="808.31" y="-422.9" font-family="Courier New" font-size="14" text-anchor="middle">&quot;StringStorage contract&quot;</text><polyline fill="none" stroke="#000" points="620.1 -414.7 997.35 -414.7"/><text x="808.62" y="-398.1" font-family="Courier New" font-size="14" text-anchor="middle">string: exactly31 (32)</text><text x="808.62" y="-381.3" font-family="Courier New" font-size="14" text-anchor="middle">&quot;exactly 31 chars so uses 1 slot&quot;</text><polyline fill="none" stroke="#000" points="620.1 -373.1 997.35 -373.1"/><text x="808.51" y="-356.5" font-family="Courier New" font-size="14" text-anchor="middle">string: exactly32 (32)</text><text x="808.51" y="-339.7" font-family="Courier New" font-size="14" text-anchor="middle">32</text><polyline fill="none" stroke="#000" points="620.1 -331.5 997.35 -331.5"/><text x="808.71" y="-314.9" font-family="Courier New" font-size="14" text-anchor="middle">string: long2 (32)</text><text x="808.71" y="-298.1" font-family="Courier New" font-size="14" text-anchor="middle">59</text><polyline fill="none" stroke="#000" points="620.1 -289.9 997.35 -289.9"/><text x="808.71" y="-273.3" font-family="Courier New" font-size="14" text-anchor="middle">string: long3 (32)</text><text x="808.71" y="-256.5" font-family="Courier New" font-size="14" text-anchor="middle">76</text></g><g id="node2" class="node"><title>2</title><polygon fill="#f2f2f2" stroke="#000" points="1091.76 -413.1 1091.76 -537.9 2047.11 -537.9 2047.11 -413.1 1091.76 -413.1"/><text x="1569.44" y="-521.3" font-family="Courier New" font-size="14" text-anchor="middle">string: exactly32 &lt;&lt;String&gt;&gt;</text><text x="1569.44" y="-504.5" font-family="Courier New" font-size="14" text-anchor="middle">0x8a35acfbc15ff81a39ae7d344fd709f28e8600b4aa8c65c6b64bfe7fe36bd19b</text><polyline fill="none" stroke="#000" points="1091.76 -496.3 2047.11 -496.3"/><text x="1124.97" y="-479.7" font-family="Courier New" font-size="14" text-anchor="middle">offset</text><polyline fill="none" stroke="#000" points="1091.76 -454.7 1158.17 -454.7"/><text x="1124.97" y="-438.1" font-family="Courier New" font-size="14" text-anchor="middle">0</text><polyline fill="none" stroke="#000" points="1158.17 -413.1 1158.17 -496.3"/><text x="1443.42" y="-479.7" font-family="Courier New" font-size="14" text-anchor="middle">value</text><polyline fill="none" stroke="#000" points="1158.17 -454.7 1728.66 -454.7"/><text x="1443.42" y="-438.1" font-family="Courier New" font-size="14" text-anchor="middle">0x3332206368617220736F2075736573206F6E652064796E616D696320736C6F74</text><polyline fill="none" stroke="#000" points="1728.66 -413.1 1728.66 -496.3"/><text x="1887.89" y="-479.7" font-family="Courier New" font-size="14" text-anchor="middle">type: variable (bytes)</text><text x="1887.89" y="-462.9" font-family="Courier New" font-size="14" text-anchor="middle">decoded data</text><polyline fill="none" stroke="#000" points="1728.66 -454.7 2047.11 -454.7"/><text x="1887.89" y="-438.1" font-family="Courier New" font-size="14" text-anchor="middle">string (32)</text><text x="1887.89" y="-421.3" font-family="Courier New" font-size="14" text-anchor="middle">&quot;32 char so uses one dynamic slot&quot;</text></g><g id="edge1" class="edge"><title>1:5-&gt;2</title><path fill="none" stroke="#000" d="M997.35,-352.5C1025.1,-352.5 1009.63,-389.12 1033.35,-403.5 1048.99,-412.98 1065.36,-421.43 1082.25,-428.96"/><polygon fill="#000" stroke="#000" points="1081.11 -432.29 1091.68 -433.05 1083.9 -425.86 1081.11 -432.29"/></g><g id="node3" class="node"><title>3</title><polygon fill="#f2f2f2" stroke="#000" points="1033.35 -227.3 1033.35 -393.7 2105.52 -393.7 2105.52 -227.3 1033.35 -227.3"/><text x="1569.44" y="-377.1" font-family="Courier New" font-size="14" text-anchor="middle">string: long2 &lt;&lt;String&gt;&gt;</text><text x="1569.44" y="-360.3" font-family="Courier New" font-size="14" text-anchor="middle">0x036b6384b5eca791c62761152d0c79bb0604c104a5fb6f4eb0703f3154bb3db0</text><polyline fill="none" stroke="#000" points="1033.35 -352.1 2105.52 -352.1"/><text x="1066.56" y="-335.5" font-family="Courier New" font-size="14" text-anchor="middle">offset</text><polyline fill="none" stroke="#000" points="1033.35 -310.5 1099.76 -310.5"/><text x="1066.56" y="-293.9" font-family="Courier New" font-size="14" text-anchor="middle">0</text><polyline fill="none" stroke="#000" points="1033.35 -268.9 1099.76 -268.9"/><text x="1066.56" y="-252.3" font-family="Courier New" font-size="14" text-anchor="middle">1</text><polyline fill="none" stroke="#000" points="1099.76 -227.3 1099.76 -352.1"/><text x="1385.01" y="-335.5" font-family="Courier New" font-size="14" text-anchor="middle">value</text><polyline fill="none" stroke="#000" points="1099.76 -310.5 1670.25 -310.5"/><text x="1385.01" y="-293.9" font-family="Courier New" font-size="14" text-anchor="middle">0x6D6F7265207468616E20333220627974657320736F2064617461206973207374</text><polyline fill="none" stroke="#000" points="1099.76 -268.9 1670.25 -268.9"/><text x="1385.01" y="-252.3" font-family="Courier New" font-size="14" text-anchor="middle">0x6F7265642064796E616D6963616C6C7920696E203220736C6F74730000000000</text><polyline fill="none" stroke="#000" points="1670.25 -227.3 1670.25 -352.1"/><text x="1887.89" y="-335.5" font-family="Courier New" font-size="14" text-anchor="middle">type: variable (bytes)</text><text x="1887.89" y="-318.7" font-family="Courier New" font-size="14" text-anchor="middle">decoded data</text><polyline fill="none" stroke="#000" points="1670.25 -310.5 2105.52 -310.5"/><text x="1887.48" y="-293.9" font-family="Courier New" font-size="14" text-anchor="middle">string (32)</text><text x="1887.48" y="-277.1" font-family="Courier New" font-size="14" text-anchor="middle">&quot;more than 32 bytes so data is st&quot;</text><polyline fill="none" stroke="#000" points="1670.25 -268.9 2105.52 -268.9"/><text x="1812.67" y="-252.3" font-family="Courier New" font-size="14" text-anchor="middle">string (27)</text><text x="1812.67" y="-235.5" font-family="Courier New" font-size="14" text-anchor="middle">&quot;ored dynamically in 2 slots&quot;</text><polyline fill="none" stroke="#000" points="1955.1 -227.3 1955.1 -268.9"/><text x="2030.31" y="-243.9" font-family="Courier New" font-size="14" text-anchor="middle">unallocated (5)</text></g><g id="edge2" class="edge"><title>1:6-&gt;3</title><path fill="none" stroke="#000" d="M997.35,-310.5C1005.82,-310.5 1014.35,-310.5 1022.94,-310.5"/><polygon fill="#000" stroke="#000" points="1023.05 -314 1033.05 -310.5 1023.05 -307 1023.05 -314"/></g><g id="node4" class="node"><title>4</title><polygon fill="#f2f2f2" stroke="#000" points="1091.76 -.5 1091.76 -208.5 2047.11 -208.5 2047.11 -.5 1091.76 -.5"/><text x="1569.44" y="-191.9" font-family="Courier New" font-size="14" text-anchor="middle">string: long3 &lt;&lt;String&gt;&gt;</text><text x="1569.44" y="-175.1" font-family="Courier New" font-size="14" text-anchor="middle">0xf652222313e28459528d920b65115c16c04f3efc82aaedc97be59f3f377c0d3f</text><polyline fill="none" stroke="#000" points="1091.76 -166.9 2047.11 -166.9"/><text x="1124.97" y="-150.3" font-family="Courier New" font-size="14" text-anchor="middle">offset</text><polyline fill="none" stroke="#000" points="1091.76 -125.3 1158.17 -125.3"/><text x="1124.97" y="-108.7" font-family="Courier New" font-size="14" text-anchor="middle">0</text><polyline fill="none" stroke="#000" points="1091.76 -83.7 1158.17 -83.7"/><text x="1124.97" y="-67.1" font-family="Courier New" font-size="14" text-anchor="middle">1</text><polyline fill="none" stroke="#000" points="1091.76 -42.1 1158.17 -42.1"/><text x="1124.97" y="-25.5" font-family="Courier New" font-size="14" text-anchor="middle">2</text><polyline fill="none" stroke="#000" points="1158.17 -.5 1158.17 -166.9"/><text x="1443.42" y="-150.3" font-family="Courier New" font-size="14" text-anchor="middle">value</text><polyline fill="none" stroke="#000" points="1158.17 -125.3 1728.66 -125.3"/><text x="1443.42" y="-108.7" font-family="Courier New" font-size="14" text-anchor="middle">0x6D6F7265207468616E20736978747920666F7572202836342920627974657320</text><polyline fill="none" stroke="#000" points="1158.17 -83.7 1728.66 -83.7"/><text x="1443.42" y="-67.1" font-family="Courier New" font-size="14" text-anchor="middle">0x736F20646174612069732073746F7265642064796E616D6963616C6C7920696E</text><polyline fill="none" stroke="#000" points="1158.17 -42.1 1728.66 -42.1"/><text x="1443.42" y="-25.5" font-family="Courier New" font-size="14" text-anchor="middle">0x20746872656520736C6F74730000000000000000000000000000000000000000</text><polyline fill="none" stroke="#000" points="1728.66 -.5 1728.66 -166.9"/><text x="1887.89" y="-150.3" font-family="Courier New" font-size="14" text-anchor="middle">type: variable (bytes)</text><text x="1887.89" y="-133.5" font-family="Courier New" font-size="14" text-anchor="middle">decoded data</text><polyline fill="none" stroke="#000" points="1728.66 -125.3 2047.11 -125.3"/><text x="1887.89" y="-108.7" font-family="Courier New" font-size="14" text-anchor="middle">string (32)</text><text x="1887.89" y="-91.9" font-family="Courier New" font-size="14" text-anchor="middle">&quot;more than sixty four (64) bytes &quot;</text><polyline fill="none" stroke="#000" points="1728.66 -83.7 2047.11 -83.7"/><text x="1887.89" y="-67.1" font-family="Courier New" font-size="14" text-anchor="middle">string (32)</text><text x="1887.89" y="-50.3" font-family="Courier New" font-size="14" text-anchor="middle">&quot;so data is stored dynamically in&quot;</text><polyline fill="none" stroke="#000" points="1728.66 -42.1 2047.11 -42.1"/><text x="1808.07" y="-25.5" font-family="Courier New" font-size="14" text-anchor="middle">string (12)</text><text x="1808.07" y="-8.7" font-family="Courier New" font-size="14" text-anchor="middle">&quot; three slots&quot;</text><polyline fill="none" stroke="#000" points="1887.48 -.5 1887.48 -42.1"/><text x="1966.9" y="-17.1" font-family="Courier New" font-size="14" text-anchor="middle">unallocated (20)</text></g><g id="edge3" class="edge"><title>1:7-&gt;4</title><path fill="none" stroke="#000" d="M997.35,-269.5C1025.46,-269.5 1009.95,-233.06 1033.35,-217.5 1049.09,-207.04 1065.62,-197.52 1082.72,-188.86"/><polygon fill="#000" stroke="#000" points="1084.3 -191.98 1091.71 -184.41 1081.19 -185.71 1084.3 -191.98"/></g></g></svg>