<svg xmlns="http://www.w3.org/2000/svg" xmlns:xlink="http://www.w3.org/1999/xlink" width="3400" height="473pt" viewBox="0 0 2550.36 472.6"><g id="graph0" class="graph" transform="scale(1 1) rotate(0) translate(4 468.6)"><title>StorageDiagram</title><polygon fill="#fff" stroke="transparent" points="-4 4 -4 -468.6 2546.36 -468.6 2546.36 4 -4 4"/><g id="node1" class="node"><title>8</title><polygon fill="#f2f2f2" stroke="#000" points="0 -227.9 0 -327.1 426.86 -327.1 426.86 -227.9 0 -227.9"/><text x="213.43" y="-310.5" font-family="Courier New" font-size="14" text-anchor="middle">StructStorage &lt;&lt;Contract&gt;&gt;</text><polyline fill="none" stroke="#000" points="0 -302.3 426.86 -302.3"/><text x="24.8" y="-285.7" font-family="Courier New" font-size="14" text-anchor="middle">slot</text><polyline fill="none" stroke="#000" points="0 -277.5 49.61 -277.5"/><text x="24.8" y="-260.9" font-family="Courier New" font-size="14" text-anchor="middle">0-5</text><polyline fill="none" stroke="#000" points="0 -252.7 49.61 -252.7"/><text x="24.8" y="-236.1" font-family="Courier New" font-size="14" text-anchor="middle">6</text><polyline fill="none" stroke="#000" points="49.61 -227.9 49.61 -302.3"/><text x="238.23" y="-285.7" font-family="Courier New" font-size="14" text-anchor="middle">type: &lt;inherited contract&gt;.variable (bytes)</text><polyline fill="none" stroke="#000" points="49.61 -277.5 426.86 -277.5"/><text x="237.93" y="-260.9" font-family="Courier New" font-size="14" text-anchor="middle">ExampleStruct: exampleStruct (192)</text><polyline fill="none" stroke="#000" points="49.61 -252.7 426.86 -252.7"/><text x="237.83" y="-236.1" font-family="Courier New" font-size="14" text-anchor="middle">ExampleStruct[]: dynamicStructs (32)</text></g><g id="node4" class="node"><title>3</title><polygon fill="#f2f2f2" stroke="#000" points="462.86 -242.7 462.86 -416.3 1172.97 -416.3 1172.97 -242.7 462.86 -242.7"/><text x="817.92" y="-399.7" font-family="Courier New" font-size="14" text-anchor="middle">ExampleStruct &lt;&lt;Struct&gt;&gt;</text><polyline fill="none" stroke="#000" points="462.86 -391.5 1172.97 -391.5"/><text x="487.67" y="-374.9" font-family="Courier New" font-size="14" text-anchor="middle">slot</text><polyline fill="none" stroke="#000" points="462.86 -366.7 512.47 -366.7"/><text x="487.67" y="-350.1" font-family="Courier New" font-size="14" text-anchor="middle">0</text><polyline fill="none" stroke="#000" points="462.86 -341.9 512.47 -341.9"/><text x="487.67" y="-325.3" font-family="Courier New" font-size="14" text-anchor="middle">1</text><polyline fill="none" stroke="#000" points="462.86 -317.1 512.47 -317.1"/><text x="487.67" y="-300.5" font-family="Courier New" font-size="14" text-anchor="middle">2-3</text><polyline fill="none" stroke="#000" points="462.86 -292.3 512.47 -292.3"/><text x="487.67" y="-275.7" font-family="Courier New" font-size="14" text-anchor="middle">4</text><polyline fill="none" stroke="#000" points="462.86 -267.5 512.47 -267.5"/><text x="487.67" y="-250.9" font-family="Courier New" font-size="14" text-anchor="middle">5</text><polyline fill="none" stroke="#000" points="512.47 -242.7 512.47 -391.5"/><text x="842.72" y="-374.9" font-family="Courier New" font-size="14" text-anchor="middle">type: variable (bytes)</text><polyline fill="none" stroke="#000" points="512.47 -366.7 1172.97 -366.7"/><text x="587.68" y="-350.1" font-family="Courier New" font-size="14" text-anchor="middle">unallocated (10)</text><polyline fill="none" stroke="#000" points="662.89 -341.9 662.89 -366.7"/><text x="763.31" y="-350.1" font-family="Courier New" font-size="14" text-anchor="middle">Severity: severity (1)</text><polyline fill="none" stroke="#000" points="863.72 -341.9 863.72 -366.7"/><text x="951.53" y="-350.1" font-family="Courier New" font-size="14" text-anchor="middle">address: token (20)</text><polyline fill="none" stroke="#000" points="1039.35 -341.9 1039.35 -366.7"/><text x="1106.16" y="-350.1" font-family="Courier New" font-size="14" text-anchor="middle">bool: flag (1)</text><polyline fill="none" stroke="#000" points="512.47 -341.9 1172.97 -341.9"/><text x="842.49" y="-325.3" font-family="Courier New" font-size="14" text-anchor="middle">address[]: dynamicAddressArray (32)</text><polyline fill="none" stroke="#000" points="512.47 -317.1 1172.97 -317.1"/><text x="842.69" y="-300.5" font-family="Courier New" font-size="14" text-anchor="middle">uint256[2]: staticIntArray (64)</text><polyline fill="none" stroke="#000" points="512.47 -292.3 1172.97 -292.3"/><text x="842.59" y="-275.7" font-family="Courier New" font-size="14" text-anchor="middle">string: someString (32)</text><polyline fill="none" stroke="#000" points="512.47 -267.5 1172.97 -267.5"/><text x="842.3" y="-250.9" font-family="Courier New" font-size="14" text-anchor="middle">mapping(address=&gt;uint256): claimed (32)</text></g><g id="edge1" class="edge"><title>8:11-&gt;3</title><path fill="none" stroke="#000" d="M426.86,-265.5C435.37,-265.5 443.97,-265.65 452.63,-265.94"/><polygon fill="#000" stroke="#000" points="452.7 -269.44 462.83 -266.33 452.97 -262.45 452.7 -269.44"/></g><g id="node8" class="node"><title>7</title><polygon fill="#f2f2f2" stroke="#000" points="532.67 -130.9 532.67 -222.1 1103.16 -222.1 1103.16 -130.9 532.67 -130.9"/><text x="817.92" y="-205.5" font-family="Courier New" font-size="14" text-anchor="middle">ExampleStruct[]: dynamicStructs &lt;&lt;Array&gt;&gt;</text><text x="817.92" y="-188.7" font-family="Courier New" font-size="14" text-anchor="middle">0xf652222313e28459528d920b65115c16c04f3efc82aaedc97be59f3f377c0d3f</text><polyline fill="none" stroke="#000" points="532.67 -180.5 1103.16 -180.5"/><text x="641.37" y="-163.9" font-family="Courier New" font-size="14" text-anchor="middle">offset</text><polyline fill="none" stroke="#000" points="532.67 -155.7 750.08 -155.7"/><text x="641.37" y="-139.1" font-family="Courier New" font-size="14" text-anchor="middle">0-5</text><polyline fill="none" stroke="#000" points="750.08 -130.9 750.08 -180.5"/><text x="926.49" y="-163.9" font-family="Courier New" font-size="14" text-anchor="middle">type: variable (bytes)</text><polyline fill="none" stroke="#000" points="750.08 -155.7 1102.91 -155.7"/><text x="926.39" y="-139.1" font-family="Courier New" font-size="14" text-anchor="middle">ExampleStruct (192)</text></g><g id="edge2" class="edge"><title>8:23-&gt;7</title><path fill="none" stroke="#000" d="M426.86,-240.5C443.16,-240.5 446.82,-236.35 462.86,-233.5 482.22,-230.06 502.19,-226.6 522.33,-223.18"/><polygon fill="#000" stroke="#000" points="522.95 -226.63 532.23 -221.51 521.79 -219.72 522.95 -226.63"/></g><g id="node2" class="node"><title>1</title><polygon fill="#f2f2f2" stroke="#000" points="1287.17 -372.9 1287.17 -464.1 1857.66 -464.1 1857.66 -372.9 1287.17 -372.9"/><text x="1572.42" y="-447.5" font-family="Courier New" font-size="14" text-anchor="middle">address[]: dynamicAddressArray &lt;&lt;Array&gt;&gt;</text><text x="1572.42" y="-430.7" font-family="Courier New" font-size="14" text-anchor="middle">0xb10e2d527612073b26eecdfd717e6a320cf44b4afac2b0732d9fcbe2b7fa0cf6</text><polyline fill="none" stroke="#000" points="1287.17 -422.5 1857.66 -422.5"/><text x="1379.38" y="-405.9" font-family="Courier New" font-size="14" text-anchor="middle">offset</text><polyline fill="none" stroke="#000" points="1287.17 -397.7 1471.58 -397.7"/><text x="1379.38" y="-381.1" font-family="Courier New" font-size="14" text-anchor="middle">0</text><polyline fill="none" stroke="#000" points="1471.58 -372.9 1471.58 -422.5"/><text x="1664.2" y="-405.9" font-family="Courier New" font-size="14" text-anchor="middle">type: variable (bytes)</text><polyline fill="none" stroke="#000" points="1471.58 -397.7 1856.82 -397.7"/><text x="1576.29" y="-381.1" font-family="Courier New" font-size="14" text-anchor="middle">unallocated (12)</text><polyline fill="none" stroke="#000" points="1681 -372.9 1681 -397.7"/><text x="1768.91" y="-381.1" font-family="Courier New" font-size="14" text-anchor="middle">address (20)</text></g><g id="node3" class="node"><title>2</title><polygon fill="#f2f2f2" stroke="#000" points="1413.19 -254.9 1413.19 -354.1 1731.64 -354.1 1731.64 -254.9 1413.19 -254.9"/><text x="1572.42" y="-337.5" font-family="Courier New" font-size="14" text-anchor="middle">uint256[2]: staticIntArray &lt;&lt;Array&gt;&gt;</text><polyline fill="none" stroke="#000" points="1413.19 -329.3 1731.64 -329.3"/><text x="1455" y="-312.7" font-family="Courier New" font-size="14" text-anchor="middle">slot</text><polyline fill="none" stroke="#000" points="1413.19 -304.5 1496.8 -304.5"/><text x="1455" y="-287.9" font-family="Courier New" font-size="14" text-anchor="middle">2</text><polyline fill="none" stroke="#000" points="1413.19 -279.7 1496.8 -279.7"/><text x="1455" y="-263.1" font-family="Courier New" font-size="14" text-anchor="middle">3</text><polyline fill="none" stroke="#000" points="1496.8 -254.9 1496.8 -329.3"/><text x="1614.22" y="-312.7" font-family="Courier New" font-size="14" text-anchor="middle">type: variable (bytes)</text><polyline fill="none" stroke="#000" points="1496.8 -304.5 1731.63 -304.5"/><text x="1614.21" y="-287.9" font-family="Courier New" font-size="14" text-anchor="middle">uint256 (32)</text><polyline fill="none" stroke="#000" points="1496.8 -279.7 1731.63 -279.7"/><text x="1614.21" y="-263.1" font-family="Courier New" font-size="14" text-anchor="middle">uint256 (32)</text></g><g id="edge3" class="edge"><title>3:5-&gt;1</title><path fill="none" stroke="#000" d="M1172.97,-329.5C1194.97,-329.5 1189.19,-353.85 1208.97,-363.5 1230.46,-373.98 1253.45,-382.57 1277.04,-389.6"/><polygon fill="#000" stroke="#000" points="1276.25 -393.01 1286.82 -392.41 1278.18 -386.28 1276.25 -393.01"/></g><g id="edge4" class="edge"><title>3:8-&gt;2</title><path fill="none" stroke="#000" d="M1172.97,-304.5C1248.3,-304.5 1331.63,-304.5 1402.54,-304.5"/><polygon fill="#000" stroke="#000" points="1402.91 -308 1412.91 -304.5 1402.91 -301 1402.91 -308"/></g><g id="node5" class="node"><title>4</title><polygon fill="#f2f2f2" stroke="#000" points="1971.87 -135.9 1971.87 -227.1 2542.36 -227.1 2542.36 -135.9 1971.87 -135.9"/><text x="2257.12" y="-210.5" font-family="Courier New" font-size="14" text-anchor="middle">address[]: dynamicAddressArray &lt;&lt;Array&gt;&gt;</text><text x="2257.12" y="-193.7" font-family="Courier New" font-size="14" text-anchor="middle">0x768c3a22b1e4688c94525eb9bc2cf1ce7601fc9e871dc6e10fc44f0f06340ce1</text><polyline fill="none" stroke="#000" points="1971.87 -185.5 2542.36 -185.5"/><text x="2064.08" y="-168.9" font-family="Courier New" font-size="14" text-anchor="middle">offset</text><polyline fill="none" stroke="#000" points="1971.87 -160.7 2156.28 -160.7"/><text x="2064.08" y="-144.1" font-family="Courier New" font-size="14" text-anchor="middle">0</text><polyline fill="none" stroke="#000" points="2156.28 -135.9 2156.28 -185.5"/><text x="2348.9" y="-168.9" font-family="Courier New" font-size="14" text-anchor="middle">type: variable (bytes)</text><polyline fill="none" stroke="#000" points="2156.28 -160.7 2541.52 -160.7"/><text x="2260.99" y="-144.1" font-family="Courier New" font-size="14" text-anchor="middle">unallocated (12)</text><polyline fill="none" stroke="#000" points="2365.7 -135.9 2365.7 -160.7"/><text x="2453.61" y="-144.1" font-family="Courier New" font-size="14" text-anchor="middle">address (20)</text></g><g id="node6" class="node"><title>5</title><polygon fill="#f2f2f2" stroke="#000" points="1971.87 -.5 1971.87 -116.5 2542.36 -116.5 2542.36 -.5 1971.87 -.5"/><text x="2257.12" y="-99.9" font-family="Courier New" font-size="14" text-anchor="middle">uint256[2]: staticIntArray &lt;&lt;Array&gt;&gt;</text><text x="2257.12" y="-83.1" font-family="Courier New" font-size="14" text-anchor="middle">0xf652222313e28459528d920b65115c16c04f3efc82aaedc97be59f3f377c0d3f</text><polyline fill="none" stroke="#000" points="1971.87 -74.9 2542.36 -74.9"/><text x="2080.58" y="-58.3" font-family="Courier New" font-size="14" text-anchor="middle">offset</text><polyline fill="none" stroke="#000" points="1971.87 -50.1 2189.28 -50.1"/><text x="2080.58" y="-33.5" font-family="Courier New" font-size="14" text-anchor="middle">2</text><polyline fill="none" stroke="#000" points="1971.87 -25.3 2189.28 -25.3"/><text x="2080.58" y="-8.7" font-family="Courier New" font-size="14" text-anchor="middle">3</text><polyline fill="none" stroke="#000" points="2189.28 -.5 2189.28 -74.9"/><text x="2365.7" y="-58.3" font-family="Courier New" font-size="14" text-anchor="middle">type: variable (bytes)</text><polyline fill="none" stroke="#000" points="2189.28 -50.1 2542.11 -50.1"/><text x="2365.69" y="-33.5" font-family="Courier New" font-size="14" text-anchor="middle">uint256 (32)</text><polyline fill="none" stroke="#000" points="2189.28 -25.3 2542.11 -25.3"/><text x="2365.69" y="-8.7" font-family="Courier New" font-size="14" text-anchor="middle">uint256 (32)</text></g><g id="node7" class="node"><title>6</title><polygon fill="#f2f2f2" stroke="#000" points="1208.97 -45.3 1208.97 -235.7 1935.87 -235.7 1935.87 -45.3 1208.97 -45.3"/><text x="1572.42" y="-219.1" font-family="Courier New" font-size="14" text-anchor="middle">ExampleStruct &lt;&lt;Struct&gt;&gt;</text><text x="1572.42" y="-202.3" font-family="Courier New" font-size="14" text-anchor="middle">0xf652222313e28459528d920b65115c16c04f3efc82aaedc97be59f3f377c0d3f</text><polyline fill="none" stroke="#000" points="1208.97 -194.1 1935.87 -194.1"/><text x="1242.17" y="-177.5" font-family="Courier New" font-size="14" text-anchor="middle">offset</text><polyline fill="none" stroke="#000" points="1208.97 -169.3 1275.38 -169.3"/><text x="1242.17" y="-152.7" font-family="Courier New" font-size="14" text-anchor="middle">0</text><polyline fill="none" stroke="#000" points="1208.97 -144.5 1275.38 -144.5"/><text x="1242.17" y="-127.9" font-family="Courier New" font-size="14" text-anchor="middle">1</text><polyline fill="none" stroke="#000" points="1208.97 -119.7 1275.38 -119.7"/><text x="1242.17" y="-103.1" font-family="Courier New" font-size="14" text-anchor="middle">2-3</text><polyline fill="none" stroke="#000" points="1208.97 -94.9 1275.38 -94.9"/><text x="1242.17" y="-78.3" font-family="Courier New" font-size="14" text-anchor="middle">4</text><polyline fill="none" stroke="#000" points="1208.97 -70.1 1275.38 -70.1"/><text x="1242.17" y="-53.5" font-family="Courier New" font-size="14" text-anchor="middle">5</text><polyline fill="none" stroke="#000" points="1275.38 -45.3 1275.38 -194.1"/><text x="1605.62" y="-177.5" font-family="Courier New" font-size="14" text-anchor="middle">type: variable (bytes)</text><polyline fill="none" stroke="#000" points="1275.38 -169.3 1935.87 -169.3"/><text x="1350.59" y="-152.7" font-family="Courier New" font-size="14" text-anchor="middle">unallocated (10)</text><polyline fill="none" stroke="#000" points="1425.8 -144.5 1425.8 -169.3"/><text x="1526.21" y="-152.7" font-family="Courier New" font-size="14" text-anchor="middle">Severity: severity (1)</text><polyline fill="none" stroke="#000" points="1626.63 -144.5 1626.63 -169.3"/><text x="1714.44" y="-152.7" font-family="Courier New" font-size="14" text-anchor="middle">address: token (20)</text><polyline fill="none" stroke="#000" points="1802.25 -144.5 1802.25 -169.3"/><text x="1869.06" y="-152.7" font-family="Courier New" font-size="14" text-anchor="middle">bool: flag (1)</text><polyline fill="none" stroke="#000" points="1275.38 -144.5 1935.87 -144.5"/><text x="1605.4" y="-127.9" font-family="Courier New" font-size="14" text-anchor="middle">address[]: dynamicAddressArray (32)</text><polyline fill="none" stroke="#000" points="1275.38 -119.7 1935.87 -119.7"/><text x="1605.6" y="-103.1" font-family="Courier New" font-size="14" text-anchor="middle">uint256[2]: staticIntArray (64)</text><polyline fill="none" stroke="#000" points="1275.38 -94.9 1935.87 -94.9"/><text x="1605.49" y="-78.3" font-family="Courier New" font-size="14" text-anchor="middle">string: someString (32)</text><polyline fill="none" stroke="#000" points="1275.38 -70.1 1935.87 -70.1"/><text x="1605.2" y="-53.5" font-family="Courier New" font-size="14" text-anchor="middle">mapping(address=&gt;uint256): claimed (32)</text></g><g id="edge5" class="edge"><title>6:16-&gt;4</title><path fill="none" stroke="#000" d="M1935.87,-132.5C1955.69,-132.5 1976.12,-133.43 1996.62,-135.03"/><polygon fill="#000" stroke="#000" points="1996.42 -138.53 2006.68 -135.87 1997.01 -131.55 1996.42 -138.53"/></g><g id="edge6" class="edge"><title>6:19-&gt;5</title><path fill="none" stroke="#000" d="M1935.87,-107.5C1944.36,-107.5 1952.96,-107.33 1961.63,-107.01"/><polygon fill="#000" stroke="#000" points="1962 -110.5 1971.84 -106.56 1961.7 -103.5 1962 -110.5"/></g><g id="edge7" class="edge"><title>7:22-&gt;6</title><path fill="none" stroke="#000" d="M1103.92,-143.5C1134.58,-143.5 1166.38,-143.43 1198.31,-143.32"/><polygon fill="#000" stroke="#000" points="1198.7 -146.82 1208.68 -143.29 1198.67 -139.82 1198.7 -146.82"/></g></g></svg>