<svg xmlns="http://www.w3.org/2000/svg" xmlns:xlink="http://www.w3.org/1999/xlink" width="1457pt" height="1020" viewBox="0 0 1457.42 765"><g id="graph0" class="graph" transform="scale(1 1) rotate(0) translate(4 761)"><title>StorageDiagram</title><polygon fill="#fff" stroke="transparent" points="-4 4 -4 -761 1453.42 -761 1453.42 4 -4 4"/><g id="node1" class="node"><title>1</title><polygon fill="#f2f2f2" stroke="#000" points="0 -.5 0 -756.5 1449.42 -756.5 1449.42 -.5 0 -.5"/><text x="724.71" y="-739.9" font-family="Courier New" font-size="14" text-anchor="middle">FiatTokenV2_1 &lt;&lt;Contract&gt;&gt;</text><text x="724.71" y="-723.1" font-family="Courier New" font-size="14" text-anchor="middle">0xa2327a938febf5fec13bacfb16ae10ecbc4cbdcf</text><polyline fill="none" stroke="#000" points="0 -714.9 1449.42 -714.9"/><text x="24.8" y="-698.3" font-family="Courier New" font-size="14" text-anchor="middle">slot</text><polyline fill="none" stroke="#000" points="0 -673.3 49.61 -673.3"/><text x="24.8" y="-656.7" font-family="Courier New" font-size="14" text-anchor="middle">0</text><polyline fill="none" stroke="#000" points="0 -631.7 49.61 -631.7"/><text x="24.8" y="-615.1" font-family="Courier New" font-size="14" text-anchor="middle">1</text><polyline fill="none" stroke="#000" points="0 -590.1 49.61 -590.1"/><text x="24.8" y="-573.5" font-family="Courier New" font-size="14" text-anchor="middle">2</text><polyline fill="none" stroke="#000" points="0 -548.5 49.61 -548.5"/><text x="24.8" y="-531.9" font-family="Courier New" font-size="14" text-anchor="middle">3</text><polyline fill="none" stroke="#000" points="0 -523.7 49.61 -523.7"/><text x="24.8" y="-507.1" font-family="Courier New" font-size="14" text-anchor="middle">4</text><polyline fill="none" stroke="#000" points="0 -482.1 49.61 -482.1"/><text x="24.8" y="-465.5" font-family="Courier New" font-size="14" text-anchor="middle">5</text><polyline fill="none" stroke="#000" points="0 -440.5 49.61 -440.5"/><text x="24.8" y="-423.9" font-family="Courier New" font-size="14" text-anchor="middle">6</text><polyline fill="none" stroke="#000" points="0 -398.9 49.61 -398.9"/><text x="24.8" y="-382.3" font-family="Courier New" font-size="14" text-anchor="middle">7</text><polyline fill="none" stroke="#000" points="0 -357.3 49.61 -357.3"/><text x="24.8" y="-340.7" font-family="Courier New" font-size="14" text-anchor="middle">8</text><polyline fill="none" stroke="#000" points="0 -315.7 49.61 -315.7"/><text x="24.8" y="-299.1" font-family="Courier New" font-size="14" text-anchor="middle">9</text><polyline fill="none" stroke="#000" points="0 -290.9 49.61 -290.9"/><text x="24.8" y="-274.3" font-family="Courier New" font-size="14" text-anchor="middle">10</text><polyline fill="none" stroke="#000" points="0 -266.1 49.61 -266.1"/><text x="24.8" y="-249.5" font-family="Courier New" font-size="14" text-anchor="middle">11</text><polyline fill="none" stroke="#000" points="0 -224.5 49.61 -224.5"/><text x="24.8" y="-207.9" font-family="Courier New" font-size="14" text-anchor="middle">12</text><polyline fill="none" stroke="#000" points="0 -199.7 49.61 -199.7"/><text x="24.8" y="-183.1" font-family="Courier New" font-size="14" text-anchor="middle">13</text><polyline fill="none" stroke="#000" points="0 -174.9 49.61 -174.9"/><text x="24.8" y="-158.3" font-family="Courier New" font-size="14" text-anchor="middle">14</text><polyline fill="none" stroke="#000" points="0 -133.3 49.61 -133.3"/><text x="24.8" y="-116.7" font-family="Courier New" font-size="14" text-anchor="middle">15</text><polyline fill="none" stroke="#000" points="0 -91.7 49.61 -91.7"/><text x="24.8" y="-75.1" font-family="Courier New" font-size="14" text-anchor="middle">16</text><polyline fill="none" stroke="#000" points="0 -66.9 49.61 -66.9"/><text x="24.8" y="-50.3" font-family="Courier New" font-size="14" text-anchor="middle">17</text><polyline fill="none" stroke="#000" points="0 -42.1 49.61 -42.1"/><text x="24.8" y="-25.5" font-family="Courier New" font-size="14" text-anchor="middle">18</text><polyline fill="none" stroke="#000" points="49.61 -.5 49.61 -714.9"/><text x="334.85" y="-698.3" font-family="Courier New" font-size="14" text-anchor="middle">value</text><polyline fill="none" stroke="#000" points="49.61 -673.3 620.1 -673.3"/><text x="334.85" y="-656.7" font-family="Courier New" font-size="14" text-anchor="middle">0x000000000000000000000000FCB19E6A322B27C06842A71E8C725399F049AE3A</text><polyline fill="none" stroke="#000" points="49.61 -631.7 620.1 -631.7"/><text x="334.85" y="-615.1" font-family="Courier New" font-size="14" text-anchor="middle">0x000000000000000000000000F0D160DEC1749AFAF5A831668093B1431F7C8527</text><polyline fill="none" stroke="#000" points="49.61 -590.1 620.1 -590.1"/><text x="334.85" y="-573.5" font-family="Courier New" font-size="14" text-anchor="middle">0x0000000000000000000000005DB0115F3B72D19CEA34DD697CF412FF86DC7E1B</text><polyline fill="none" stroke="#000" points="49.61 -548.5 620.1 -548.5"/><polyline fill="none" stroke="#000" points="49.61 -523.7 620.1 -523.7"/><text x="334.85" y="-507.1" font-family="Courier New" font-size="14" text-anchor="middle">0x55534420436F696E000000000000000000000000000000000000000000000010</text><polyline fill="none" stroke="#000" points="49.61 -482.1 620.1 -482.1"/><text x="334.85" y="-465.5" font-family="Courier New" font-size="14" text-anchor="middle">0x5553444300000000000000000000000000000000000000000000000000000008</text><polyline fill="none" stroke="#000" points="49.61 -440.5 620.1 -440.5"/><text x="334.85" y="-423.9" font-family="Courier New" font-size="14" text-anchor="middle">0x0000000000000000000000000000000000000000000000000000000000000006</text><polyline fill="none" stroke="#000" points="49.61 -398.9 620.1 -398.9"/><text x="334.85" y="-382.3" font-family="Courier New" font-size="14" text-anchor="middle">0x5553440000000000000000000000000000000000000000000000000000000006</text><polyline fill="none" stroke="#000" points="49.61 -357.3 620.1 -357.3"/><text x="334.85" y="-340.7" font-family="Courier New" font-size="14" text-anchor="middle">0x000000000000000000000001E982615D461DD5CD06575BBEA87624FDA4E3DE17</text><polyline fill="none" stroke="#000" points="49.61 -315.7 620.1 -315.7"/><polyline fill="none" stroke="#000" points="49.61 -290.9 620.1 -290.9"/><polyline fill="none" stroke="#000" points="49.61 -266.1 620.1 -266.1"/><text x="334.85" y="-249.5" font-family="Courier New" font-size="14" text-anchor="middle">0x000000000000000000000000000000000000000000000000008CF705220FA4BE</text><polyline fill="none" stroke="#000" points="49.61 -224.5 620.1 -224.5"/><polyline fill="none" stroke="#000" points="49.61 -199.7 620.1 -199.7"/><polyline fill="none" stroke="#000" points="49.61 -174.9 620.1 -174.9"/><text x="334.85" y="-158.3" font-family="Courier New" font-size="14" text-anchor="middle">0x0000000000000000000000000000000000000000000000000000000000000000</text><polyline fill="none" stroke="#000" points="49.61 -133.3 620.1 -133.3"/><text x="334.85" y="-116.7" font-family="Courier New" font-size="14" text-anchor="middle">0x06C37168A7DB5138DEFC7866392BB87A741F9B3D104DEB5094588CE041CAE335</text><polyline fill="none" stroke="#000" points="49.61 -91.7 620.1 -91.7"/><polyline fill="none" stroke="#000" points="49.61 -66.9 620.1 -66.9"/><polyline fill="none" stroke="#000" points="49.61 -42.1 620.1 -42.1"/><text x="334.85" y="-25.5" font-family="Courier New" font-size="14" text-anchor="middle">0x0000000000000000000000000000000000000000000000000000000000000002</text><polyline fill="none" stroke="#000" points="620.1 -.5 620.1 -714.9"/><text x="1034.76" y="-698.3" font-family="Courier New" font-size="14" text-anchor="middle">type: &lt;inherited contract&gt;.variable (bytes)</text><text x="1034.76" y="-681.5" font-family="Courier New" font-size="14" text-anchor="middle">decoded data</text><polyline fill="none" stroke="#000" points="620.1 -673.3 1449.42 -673.3"/><text x="768.31" y="-648.3" font-family="Courier New" font-size="14" text-anchor="middle">unallocated (12)</text><polyline fill="none" stroke="#000" points="916.52 -631.7 916.52 -673.3"/><text x="1182.85" y="-656.7" font-family="Courier New" font-size="14" text-anchor="middle">address: Ownable._owner (20)</text><text x="1182.85" y="-639.9" font-family="Courier New" font-size="14" text-anchor="middle">0xFcb19e6a322b27c06842A71e8c725399f049AE3a</text><polyline fill="none" stroke="#000" points="620.1 -631.7 1449.42 -631.7"/><text x="706.31" y="-606.7" font-family="Courier New" font-size="14" text-anchor="middle">unallocated (11)</text><polyline fill="none" stroke="#000" points="792.52 -590.1 792.52 -631.7"/><text x="916.53" y="-615.1" font-family="Courier New" font-size="14" text-anchor="middle">bool: Pausable.paused (1)</text><text x="916.53" y="-598.3" font-family="Courier New" font-size="14" text-anchor="middle">false</text><polyline fill="none" stroke="#000" points="1040.55 -590.1 1040.55 -631.7"/><text x="1244.88" y="-615.1" font-family="Courier New" font-size="14" text-anchor="middle">address: Pausable.pauser (20)</text><text x="1244.88" y="-598.3" font-family="Courier New" font-size="14" text-anchor="middle">0xf0d160DEC1749aFaF5A831668093B1431f7C8527</text><polyline fill="none" stroke="#000" points="620.1 -590.1 1449.42 -590.1"/><text x="768.31" y="-565.1" font-family="Courier New" font-size="14" text-anchor="middle">unallocated (12)</text><polyline fill="none" stroke="#000" points="916.52 -548.5 916.52 -590.1"/><text x="1182.85" y="-573.5" font-family="Courier New" font-size="14" text-anchor="middle">address: Blacklistable.blacklister (20)</text><text x="1182.85" y="-556.7" font-family="Courier New" font-size="14" text-anchor="middle">0x5dB0115f3B72d19cEa34dD697cf412Ff86dc7E1b</text><polyline fill="none" stroke="#000" points="620.1 -548.5 1449.42 -548.5"/><text x="1034.43" y="-531.9" font-family="Courier New" font-size="14" text-anchor="middle">mapping(address=&gt;bool): Blacklistable.blacklisted (32)</text><polyline fill="none" stroke="#000" points="620.1 -523.7 1449.42 -523.7"/><text x="1034.42" y="-507.1" font-family="Courier New" font-size="14" text-anchor="middle">string: FiatTokenV1.name (32)</text><text x="1034.42" y="-490.3" font-family="Courier New" font-size="14" text-anchor="middle">&quot;USD Coin&quot;</text><polyline fill="none" stroke="#000" points="620.1 -482.1 1449.42 -482.1"/><text x="1034.32" y="-465.5" font-family="Courier New" font-size="14" text-anchor="middle">string: FiatTokenV1.symbol (32)</text><text x="1034.32" y="-448.7" font-family="Courier New" font-size="14" text-anchor="middle">&quot;USDC&quot;</text><polyline fill="none" stroke="#000" points="620.1 -440.5 1449.42 -440.5"/><text x="795.81" y="-415.5" font-family="Courier New" font-size="14" text-anchor="middle">unallocated (31)</text><polyline fill="none" stroke="#000" points="971.52 -398.9 971.52 -440.5"/><text x="1210.24" y="-423.9" font-family="Courier New" font-size="14" text-anchor="middle">uint8: FiatTokenV1.decimals (1)</text><text x="1210.24" y="-407.1" font-family="Courier New" font-size="14" text-anchor="middle">6</text><polyline fill="none" stroke="#000" points="620.1 -398.9 1449.42 -398.9"/><text x="1034.72" y="-382.3" font-family="Courier New" font-size="14" text-anchor="middle">string: FiatTokenV1.currency (32)</text><text x="1034.72" y="-365.5" font-family="Courier New" font-size="14" text-anchor="middle">&quot;USD&quot;</text><polyline fill="none" stroke="#000" points="620.1 -357.3 1449.42 -357.3"/><text x="695.31" y="-332.3" font-family="Courier New" font-size="14" text-anchor="middle">unallocated (11)</text><polyline fill="none" stroke="#000" points="770.52 -315.7 770.52 -357.3"/><text x="917.14" y="-340.7" font-family="Courier New" font-size="14" text-anchor="middle">bool: FiatTokenV1.initialized (1)</text><text x="917.14" y="-323.9" font-family="Courier New" font-size="14" text-anchor="middle">true</text><polyline fill="none" stroke="#000" points="1063.76 -315.7 1063.76 -357.3"/><text x="1256.59" y="-340.7" font-family="Courier New" font-size="14" text-anchor="middle">address: FiatTokenV1.masterMinter (20)</text><text x="1256.59" y="-323.9" font-family="Courier New" font-size="14" text-anchor="middle">0xE982615d461DD5cD06575BbeA87624fda4e3de17</text><polyline fill="none" stroke="#000" points="620.1 -315.7 1449.42 -315.7"/><text x="1034.53" y="-299.1" font-family="Courier New" font-size="14" text-anchor="middle">mapping(address=&gt;uint256): FiatTokenV1.balances (32)</text><polyline fill="none" stroke="#000" points="620.1 -290.9 1449.42 -290.9"/><text x="1034.44" y="-274.3" font-family="Courier New" font-size="14" text-anchor="middle">mapping(address=&gt;mapping(address=&gt;uint256)): FiatTokenV1.allowed (32)</text><polyline fill="none" stroke="#000" points="620.1 -266.1 1449.42 -266.1"/><text x="1034.72" y="-249.5" font-family="Courier New" font-size="14" text-anchor="middle">uint256: FiatTokenV1.totalSupply_ (32)</text><text x="1034.72" y="-232.7" font-family="Courier New" font-size="14" text-anchor="middle">39,678,098,157,839,550</text><polyline fill="none" stroke="#000" points="620.1 -224.5 1449.42 -224.5"/><text x="1034.73" y="-207.9" font-family="Courier New" font-size="14" text-anchor="middle">mapping(address=&gt;bool): FiatTokenV1.minters (32)</text><polyline fill="none" stroke="#000" points="620.1 -199.7 1449.42 -199.7"/><text x="1034.53" y="-183.1" font-family="Courier New" font-size="14" text-anchor="middle">mapping(address=&gt;uint256): FiatTokenV1.minterAllowed (32)</text><polyline fill="none" stroke="#000" points="620.1 -174.9 1449.42 -174.9"/><text x="768.31" y="-149.9" font-family="Courier New" font-size="14" text-anchor="middle">unallocated (12)</text><polyline fill="none" stroke="#000" points="916.52 -133.3 916.52 -174.9"/><text x="1182.85" y="-158.3" font-family="Courier New" font-size="14" text-anchor="middle">address: Rescuable._rescuer (20)</text><text x="1182.85" y="-141.5" font-family="Courier New" font-size="14" text-anchor="middle">0x0000000000000000000000000000000000000000</text><polyline fill="none" stroke="#000" points="620.1 -133.3 1449.42 -133.3"/><text x="1034.74" y="-116.7" font-family="Courier New" font-size="14" text-anchor="middle">bytes32: EIP712Domain.DOMAIN_SEPARATOR (32)</text><text x="1034.74" y="-99.9" font-family="Courier New" font-size="14" text-anchor="middle">0x06C37168A7DB5138DEFC7866392BB87A741F9B3D104DEB5094588CE041CAE335</text><polyline fill="none" stroke="#000" points="620.1 -91.7 1449.42 -91.7"/><text x="1034.65" y="-75.1" font-family="Courier New" font-size="14" text-anchor="middle">mapping(address=&gt;mapping(bytes32=&gt;bool)): EIP3009._authorizationStates (32)</text><polyline fill="none" stroke="#000" points="620.1 -66.9 1449.42 -66.9"/><text x="1034.73" y="-50.3" font-family="Courier New" font-size="14" text-anchor="middle">mapping(address=&gt;uint256): EIP2612._permitNonces (32)</text><polyline fill="none" stroke="#000" points="620.1 -42.1 1449.42 -42.1"/><text x="772.81" y="-17.1" font-family="Courier New" font-size="14" text-anchor="middle">unallocated (31)</text><polyline fill="none" stroke="#000" points="925.52 -.5 925.52 -42.1"/><text x="1187.45" y="-25.5" font-family="Courier New" font-size="14" text-anchor="middle">uint8: FiatTokenV2._initializedVersion (1)</text><text x="1187.45" y="-8.7" font-family="Courier New" font-size="14" text-anchor="middle">2</text></g></g></svg>