<svg xmlns="http://www.w3.org/2000/svg" xmlns:xlink="http://www.w3.org/1999/xlink" width="4234pt" height="876" viewBox="0 0 4233.84 657.2"><g id="graph0" class="graph" transform="scale(1 1) rotate(0) translate(4 653.2)"><title>UmlClassDiagram</title><polygon fill="#fff" stroke="transparent" points="-4 4 -4 -653.2 4229.84 -653.2 4229.84 4 -4 4"/><g id="node1" class="node"><title>0</title><polygon fill="#f2f2f2" stroke="#000" points="0 -42.5 0 -318.5 716.26 -318.5 716.26 -42.5 0 -42.5"/><text x="358.13" y="-301.9" font-family="Times,serif" font-size="14" text-anchor="middle">&lt;&lt;Abstract&gt;&gt;</text><text x="358.13" y="-285.1" font-family="Times,serif" font-size="14" text-anchor="middle">BaseAccount</text><text x="358.13" y="-268.3" font-family="Times,serif" font-size="14" text-anchor="middle">../../../account-abstraction/contracts/core/BaseAccount.sol</text><polyline fill="none" stroke="#000" points="0 -260.1 716.26 -260.1"/><text x="8" y="-243.5" font-family="Times,serif" font-size="14" text-anchor="start">Internal:</text><text x="8" y="-226.7" font-family="Times,serif" font-size="14" text-anchor="start">SIG_VALIDATION_FAILED: uint256</text><polyline fill="none" stroke="#000" points="0 -218.5 716.26 -218.5"/><text x="8" y="-201.9" font-family="Times,serif" font-size="14" text-anchor="start">Internal:</text><text x="8" y="-185.1" font-family="Times,serif" font-size="14" text-anchor="start">&lt;&lt;abstract&gt;&gt; _validateSignature(userOp: UserOperation, userOpHash: bytes32): (validationData: uint256)</text><text x="8" y="-168.3" font-family="Times,serif" font-size="14" text-anchor="start">&lt;&lt;abstract&gt;&gt; _validateAndUpdateNonce(userOp: UserOperation)</text><text x="8" y="-151.5" font-family="Times,serif" font-size="14" text-anchor="start">_requireFromEntryPoint()</text><text x="8" y="-134.7" font-family="Times,serif" font-size="14" text-anchor="start">_payPrefund(missingAccountFunds: uint256)</text><text x="8" y="-117.9" font-family="Times,serif" font-size="14" text-anchor="start">External:</text><text x="8" y="-101.1" font-family="Times,serif" font-size="14" text-anchor="start">validateUserOp(userOp: UserOperation, userOpHash: bytes32, missingAccountFunds: uint256): (validationData: uint256)</text><text x="8" y="-84.3" font-family="Times,serif" font-size="14" text-anchor="start">Public:</text><text x="8" y="-67.5" font-family="Times,serif" font-size="14" text-anchor="start">&lt;&lt;abstract&gt;&gt; nonce(): uint256</text><text x="8" y="-50.7" font-family="Times,serif" font-size="14" text-anchor="start">&lt;&lt;abstract&gt;&gt; entryPoint(): IEntryPoint</text></g><g id="node12" class="node"><title>19</title><polygon fill="#f2f2f2" stroke="#000" points="980.56 -397.5 980.56 -648.7 1357.7 -648.7 1357.7 -397.5 980.56 -397.5"/><text x="1169.13" y="-632.1" font-family="Times,serif" font-size="14" text-anchor="middle">&lt;&lt;Struct&gt;&gt;</text><text x="1169.13" y="-615.3" font-family="Times,serif" font-size="14" text-anchor="middle">UserOperation</text><text x="1169.13" y="-598.5" font-family="Times,serif" font-size="14" text-anchor="middle">../../../account-abstraction/contracts/interfaces/UserOperation.sol</text><polyline fill="none" stroke="#000" points="980.56 -590.3 1357.7 -590.3"/><text x="988.56" y="-573.7" font-family="Times,serif" font-size="14" text-anchor="start">sender: address</text><text x="988.56" y="-556.9" font-family="Times,serif" font-size="14" text-anchor="start">nonce: uint256</text><text x="988.56" y="-540.1" font-family="Times,serif" font-size="14" text-anchor="start">initCode: bytes</text><text x="988.56" y="-523.3" font-family="Times,serif" font-size="14" text-anchor="start">callData: bytes</text><text x="988.56" y="-506.5" font-family="Times,serif" font-size="14" text-anchor="start">callGasLimit: uint256</text><text x="988.56" y="-489.7" font-family="Times,serif" font-size="14" text-anchor="start">verificationGasLimit: uint256</text><text x="988.56" y="-472.9" font-family="Times,serif" font-size="14" text-anchor="start">preVerificationGas: uint256</text><text x="988.56" y="-456.1" font-family="Times,serif" font-size="14" text-anchor="start">maxFeePerGas: uint256</text><text x="988.56" y="-439.3" font-family="Times,serif" font-size="14" text-anchor="start">maxPriorityFeePerGas: uint256</text><text x="988.56" y="-422.5" font-family="Times,serif" font-size="14" text-anchor="start">paymasterAndData: bytes</text><text x="988.56" y="-405.7" font-family="Times,serif" font-size="14" text-anchor="start">signature: bytes</text></g><g id="edge1" class="edge"><title>0-&gt;19</title><path fill="none" stroke="#000" stroke-dasharray="5 2" d="M630.2,-318.55C661.98,-333.37 694.12,-347.83 725.13,-361 804.39,-394.65 893.33,-427.8 970.68,-455.2"/><polygon fill="#000" stroke="#000" points="969.94 -458.65 980.54 -458.68 972.27 -452.05 969.94 -458.65"/></g><g id="node2" class="node"><title>1</title><polygon fill="#f2f2f2" stroke="#000" points="734.18 -.5 734.18 -360.5 1604.08 -360.5 1604.08 -.5 734.18 -.5"/><text x="1169.13" y="-343.9" font-family="Times,serif" font-size="14" text-anchor="middle">&lt;&lt;Abstract&gt;&gt;</text><text x="1169.13" y="-327.1" font-family="Times,serif" font-size="14" text-anchor="middle">BasePaymaster</text><text x="1169.13" y="-310.3" font-family="Times,serif" font-size="14" text-anchor="middle">../../../account-abstraction/contracts/core/BasePaymaster.sol</text><polyline fill="none" stroke="#000" points="734.18 -302.1 1604.08 -302.1"/><text x="742.18" y="-285.5" font-family="Times,serif" font-size="14" text-anchor="start">Public:</text><text x="742.18" y="-268.7" font-family="Times,serif" font-size="14" text-anchor="start">entryPoint: IEntryPoint</text><polyline fill="none" stroke="#000" points="734.18 -260.5 1604.08 -260.5"/><text x="742.18" y="-243.9" font-family="Times,serif" font-size="14" text-anchor="start">Internal:</text><text x="742.18" y="-227.1" font-family="Times,serif" font-size="14" text-anchor="start">&lt;&lt;abstract&gt;&gt; _validatePaymasterUserOp(userOp: UserOperation, userOpHash: bytes32, maxCost: uint256): (context: bytes, validationData: uint256)</text><text x="742.18" y="-210.3" font-family="Times,serif" font-size="14" text-anchor="start">_postOp(mode: PostOpMode, context: bytes, actualGasCost: uint256)</text><text x="742.18" y="-193.5" font-family="Times,serif" font-size="14" text-anchor="start">_requireFromEntryPoint()</text><text x="742.18" y="-176.7" font-family="Times,serif" font-size="14" text-anchor="start">External:</text><text x="742.18" y="-159.9" font-family="Times,serif" font-size="14" text-anchor="start">&lt;&lt;payable&gt;&gt; addStake(unstakeDelaySec: uint32) &lt;&lt;onlyOwner&gt;&gt;</text><text x="742.18" y="-143.1" font-family="Times,serif" font-size="14" text-anchor="start">validatePaymasterUserOp(userOp: UserOperation, userOpHash: bytes32, maxCost: uint256): (context: bytes, validationData: uint256)</text><text x="742.18" y="-126.3" font-family="Times,serif" font-size="14" text-anchor="start">postOp(mode: PostOpMode, context: bytes, actualGasCost: uint256)</text><text x="742.18" y="-109.5" font-family="Times,serif" font-size="14" text-anchor="start">unlockStake() &lt;&lt;onlyOwner&gt;&gt;</text><text x="742.18" y="-92.7" font-family="Times,serif" font-size="14" text-anchor="start">withdrawStake(withdrawAddress: address) &lt;&lt;onlyOwner&gt;&gt;</text><text x="742.18" y="-75.9" font-family="Times,serif" font-size="14" text-anchor="start">Public:</text><text x="742.18" y="-59.1" font-family="Times,serif" font-size="14" text-anchor="start">&lt;&lt;payable&gt;&gt; deposit()</text><text x="742.18" y="-42.3" font-family="Times,serif" font-size="14" text-anchor="start">constructor(_entryPoint: IEntryPoint)</text><text x="742.18" y="-25.5" font-family="Times,serif" font-size="14" text-anchor="start">withdrawTo(withdrawAddress: address, amount: uint256) &lt;&lt;onlyOwner&gt;&gt;</text><text x="742.18" y="-8.7" font-family="Times,serif" font-size="14" text-anchor="start">getDeposit(): uint256</text></g><g id="edge2" class="edge"><title>1-&gt;19</title><path fill="none" stroke="#000" stroke-dasharray="5 2" d="M1169.13,-360.78C1169.13,-369.65 1169.13,-378.48 1169.13,-387.19"/><polygon fill="#000" stroke="#000" points="1165.63 -387.35 1169.13 -397.35 1172.63 -387.35 1165.63 -387.35"/></g><g id="node3" class="node"><title>3</title><polygon fill="#f2f2f2" stroke="#000" points="2000.59 -422.7 2000.59 -623.5 2325.67 -623.5 2325.67 -422.7 2000.59 -422.7"/><text x="2163.13" y="-606.9" font-family="Times,serif" font-size="14" text-anchor="middle">&lt;&lt;Struct&gt;&gt;</text><text x="2163.13" y="-590.1" font-family="Times,serif" font-size="14" text-anchor="middle">MemoryUserOp</text><text x="2163.13" y="-573.3" font-family="Times,serif" font-size="14" text-anchor="middle">../../../account-abstraction/contracts/core/EntryPoint.sol</text><polyline fill="none" stroke="#000" points="2000.59 -565.1 2325.67 -565.1"/><text x="2008.59" y="-548.5" font-family="Times,serif" font-size="14" text-anchor="start">sender: address</text><text x="2008.59" y="-531.7" font-family="Times,serif" font-size="14" text-anchor="start">nonce: uint256</text><text x="2008.59" y="-514.9" font-family="Times,serif" font-size="14" text-anchor="start">callGasLimit: uint256</text><text x="2008.59" y="-498.1" font-family="Times,serif" font-size="14" text-anchor="start">verificationGasLimit: uint256</text><text x="2008.59" y="-481.3" font-family="Times,serif" font-size="14" text-anchor="start">preVerificationGas: uint256</text><text x="2008.59" y="-464.5" font-family="Times,serif" font-size="14" text-anchor="start">paymaster: address</text><text x="2008.59" y="-447.7" font-family="Times,serif" font-size="14" text-anchor="start">maxFeePerGas: uint256</text><text x="2008.59" y="-430.9" font-family="Times,serif" font-size="14" text-anchor="start">maxPriorityFeePerGas: uint256</text></g><g id="node4" class="node"><title>4</title><polygon fill="#f2f2f2" stroke="#000" points="2000.59 -105.3 2000.59 -255.7 2325.67 -255.7 2325.67 -105.3 2000.59 -105.3"/><text x="2163.13" y="-239.1" font-family="Times,serif" font-size="14" text-anchor="middle">&lt;&lt;Struct&gt;&gt;</text><text x="2163.13" y="-222.3" font-family="Times,serif" font-size="14" text-anchor="middle">UserOpInfo</text><text x="2163.13" y="-205.5" font-family="Times,serif" font-size="14" text-anchor="middle">../../../account-abstraction/contracts/core/EntryPoint.sol</text><polyline fill="none" stroke="#000" points="2000.59 -197.3 2325.67 -197.3"/><text x="2008.59" y="-180.7" font-family="Times,serif" font-size="14" text-anchor="start">mUserOp: MemoryUserOp</text><text x="2008.59" y="-163.9" font-family="Times,serif" font-size="14" text-anchor="start">userOpHash: bytes32</text><text x="2008.59" y="-147.1" font-family="Times,serif" font-size="14" text-anchor="start">prefund: uint256</text><text x="2008.59" y="-130.3" font-family="Times,serif" font-size="14" text-anchor="start">contextOffset: uint256</text><text x="2008.59" y="-113.5" font-family="Times,serif" font-size="14" text-anchor="start">preOpGas: uint256</text></g><g id="edge3" class="edge"><title>4-&gt;3</title><path fill="none" stroke="#000" stroke-dasharray="5 2" d="M2163.13,-255.83C2163.13,-301.61 2163.13,-361.14 2163.13,-412.29"/><polygon fill="#000" stroke="#000" points="2159.63 -412.4 2163.13 -422.4 2166.63 -412.4 2159.63 -412.4"/></g><g id="node5" class="node"><title>5</title><polygon fill="#f2f2f2" stroke="#000" points="2344.16 -122.1 2344.16 -238.9 2652.1 -238.9 2652.1 -122.1 2344.16 -122.1"/><text x="2498.13" y="-222.3" font-family="Times,serif" font-size="14" text-anchor="middle">&lt;&lt;Struct&gt;&gt;</text><text x="2498.13" y="-205.5" font-family="Times,serif" font-size="14" text-anchor="middle">ValidationData</text><text x="2498.13" y="-188.7" font-family="Times,serif" font-size="14" text-anchor="middle">../../../account-abstraction/contracts/core/Helpers.sol</text><polyline fill="none" stroke="#000" points="2344.16 -180.5 2652.1 -180.5"/><text x="2352.16" y="-163.9" font-family="Times,serif" font-size="14" text-anchor="start">aggregator: address</text><text x="2352.16" y="-147.1" font-family="Times,serif" font-size="14" text-anchor="start">validAfter: uint48</text><text x="2352.16" y="-130.3" font-family="Times,serif" font-size="14" text-anchor="start">validUntil: uint48</text></g><g id="node6" class="node"><title>7</title><polygon fill="#f2f2f2" stroke="#000" points="2670.22 -17.3 2670.22 -343.7 3082.04 -343.7 3082.04 -17.3 2670.22 -17.3"/><text x="2876.13" y="-327.1" font-family="Times,serif" font-size="14" text-anchor="middle">&lt;&lt;Abstract&gt;&gt;</text><text x="2876.13" y="-310.3" font-family="Times,serif" font-size="14" text-anchor="middle">StakeManager</text><text x="2876.13" y="-293.5" font-family="Times,serif" font-size="14" text-anchor="middle">../../../account-abstraction/contracts/core/StakeManager.sol</text><polyline fill="none" stroke="#000" points="2670.22 -285.3 3082.04 -285.3"/><text x="2678.22" y="-268.7" font-family="Times,serif" font-size="14" text-anchor="start">Public:</text><text x="2678.22" y="-251.9" font-family="Times,serif" font-size="14" text-anchor="start">deposits: mapping(address=&gt;DepositInfo)</text><polyline fill="none" stroke="#000" points="2670.22 -243.7 3082.04 -243.7"/><text x="2678.22" y="-227.1" font-family="Times,serif" font-size="14" text-anchor="start">Internal:</text><text x="2678.22" y="-210.3" font-family="Times,serif" font-size="14" text-anchor="start">_getStakeInfo(addr: address): (info: StakeInfo)</text><text x="2678.22" y="-193.5" font-family="Times,serif" font-size="14" text-anchor="start">_incrementDeposit(account: address, amount: uint256)</text><text x="2678.22" y="-176.7" font-family="Times,serif" font-size="14" text-anchor="start">External:</text><text x="2678.22" y="-159.9" font-family="Times,serif" font-size="14" text-anchor="start">&lt;&lt;payable&gt;&gt; null()</text><text x="2678.22" y="-143.1" font-family="Times,serif" font-size="14" text-anchor="start">unlockStake()</text><text x="2678.22" y="-126.3" font-family="Times,serif" font-size="14" text-anchor="start">withdrawStake(withdrawAddress: address)</text><text x="2678.22" y="-109.5" font-family="Times,serif" font-size="14" text-anchor="start">withdrawTo(withdrawAddress: address, withdrawAmount: uint256)</text><text x="2678.22" y="-92.7" font-family="Times,serif" font-size="14" text-anchor="start">Public:</text><text x="2678.22" y="-75.9" font-family="Times,serif" font-size="14" text-anchor="start">&lt;&lt;payable&gt;&gt; depositTo(account: address)</text><text x="2678.22" y="-59.1" font-family="Times,serif" font-size="14" text-anchor="start">&lt;&lt;payable&gt;&gt; addStake(unstakeDelaySec: uint32)</text><text x="2678.22" y="-42.3" font-family="Times,serif" font-size="14" text-anchor="start">getDepositInfo(account: address): (info: DepositInfo)</text><text x="2678.22" y="-25.5" font-family="Times,serif" font-size="14" text-anchor="start">balanceOf(account: address): uint256</text></g><g id="node10" class="node"><title>17</title><polygon fill="#f2f2f2" stroke="#000" points="2686.01 -447.9 2686.01 -598.3 3066.25 -598.3 3066.25 -447.9 2686.01 -447.9"/><text x="2876.13" y="-581.7" font-family="Times,serif" font-size="14" text-anchor="middle">&lt;&lt;Struct&gt;&gt;</text><text x="2876.13" y="-564.9" font-family="Times,serif" font-size="14" text-anchor="middle">DepositInfo</text><text x="2876.13" y="-548.1" font-family="Times,serif" font-size="14" text-anchor="middle">../../../account-abstraction/contracts/interfaces/IStakeManager.sol</text><polyline fill="none" stroke="#000" points="2686.01 -539.9 3066.25 -539.9"/><text x="2694.01" y="-523.3" font-family="Times,serif" font-size="14" text-anchor="start">deposit: uint112</text><text x="2694.01" y="-506.5" font-family="Times,serif" font-size="14" text-anchor="start">staked: bool</text><text x="2694.01" y="-489.7" font-family="Times,serif" font-size="14" text-anchor="start">stake: uint112</text><text x="2694.01" y="-472.9" font-family="Times,serif" font-size="14" text-anchor="start">unstakeDelaySec: uint32</text><text x="2694.01" y="-456.1" font-family="Times,serif" font-size="14" text-anchor="start">withdrawTime: uint48</text></g><g id="edge4" class="edge"><title>7-&gt;17</title><path fill="none" stroke="#000" d="M2876.13,-343.82C2876.13,-376.17 2876.13,-408.91 2876.13,-437.34"/><polygon fill="#000" stroke="#000" points="2872.63 -437.62 2876.13 -447.62 2879.63 -437.62 2872.63 -437.62"/></g><g id="node11" class="node"><title>18</title><polygon fill="#f2f2f2" stroke="#000" points="3087.01 -473.1 3087.01 -573.1 3467.25 -573.1 3467.25 -473.1 3087.01 -473.1"/><text x="3277.13" y="-556.5" font-family="Times,serif" font-size="14" text-anchor="middle">&lt;&lt;Struct&gt;&gt;</text><text x="3277.13" y="-539.7" font-family="Times,serif" font-size="14" text-anchor="middle">StakeInfo</text><text x="3277.13" y="-522.9" font-family="Times,serif" font-size="14" text-anchor="middle">../../../account-abstraction/contracts/interfaces/IStakeManager.sol</text><polyline fill="none" stroke="#000" points="3087.01 -514.7 3467.25 -514.7"/><text x="3095.01" y="-498.1" font-family="Times,serif" font-size="14" text-anchor="start">stake: uint256</text><text x="3095.01" y="-481.3" font-family="Times,serif" font-size="14" text-anchor="start">unstakeDelaySec: uint256</text></g><g id="edge5" class="edge"><title>7-&gt;18</title><path fill="none" stroke="#000" stroke-dasharray="5 2" d="M3067.23,-343.82C3119.05,-387.83 3171.71,-432.56 3211.32,-466.2"/><polygon fill="#000" stroke="#000" points="3209.17 -468.97 3219.06 -472.78 3213.71 -463.64 3209.17 -468.97"/></g><g id="node7" class="node"><title>11</title><polygon fill="#f2f2f2" stroke="#000" points="1622.1 -122.1 1622.1 -238.9 1982.16 -238.9 1982.16 -122.1 1622.1 -122.1"/><text x="1802.13" y="-222.3" font-family="Times,serif" font-size="14" text-anchor="middle">&lt;&lt;Struct&gt;&gt;</text><text x="1802.13" y="-205.5" font-family="Times,serif" font-size="14" text-anchor="middle">UserOpsPerAggregator</text><text x="1802.13" y="-188.7" font-family="Times,serif" font-size="14" text-anchor="middle">../../../account-abstraction/contracts/interfaces/IEntryPoint.sol</text><polyline fill="none" stroke="#000" points="1622.1 -180.5 1982.16 -180.5"/><text x="1630.1" y="-163.9" font-family="Times,serif" font-size="14" text-anchor="start">userOps: UserOperation[]</text><text x="1630.1" y="-147.1" font-family="Times,serif" font-size="14" text-anchor="start">aggregator: IAggregator</text><text x="1630.1" y="-130.3" font-family="Times,serif" font-size="14" text-anchor="start">signature: bytes</text></g><g id="edge6" class="edge"><title>11-&gt;19</title><path fill="none" stroke="#000" stroke-dasharray="5 2" d="M1753.31,-238.98C1717.75,-277.84 1666.63,-327.92 1613.13,-361 1537.9,-407.52 1447.24,-443.44 1367.51,-469.43"/><polygon fill="#000" stroke="#000" points="1366.29 -466.15 1357.85 -472.55 1368.44 -472.81 1366.29 -466.15"/></g><g id="node8" class="node"><title>12</title><polygon fill="#f2f2f2" stroke="#000" points="3478.1 -96.9 3478.1 -264.1 3838.16 -264.1 3838.16 -96.9 3478.1 -96.9"/><text x="3658.13" y="-247.5" font-family="Times,serif" font-size="14" text-anchor="middle">&lt;&lt;Struct&gt;&gt;</text><text x="3658.13" y="-230.7" font-family="Times,serif" font-size="14" text-anchor="middle">ReturnInfo</text><text x="3658.13" y="-213.9" font-family="Times,serif" font-size="14" text-anchor="middle">../../../account-abstraction/contracts/interfaces/IEntryPoint.sol</text><polyline fill="none" stroke="#000" points="3478.1 -205.7 3838.16 -205.7"/><text x="3486.1" y="-189.1" font-family="Times,serif" font-size="14" text-anchor="start">preOpGas: uint256</text><text x="3486.1" y="-172.3" font-family="Times,serif" font-size="14" text-anchor="start">prefund: uint256</text><text x="3486.1" y="-155.5" font-family="Times,serif" font-size="14" text-anchor="start">sigFailed: bool</text><text x="3486.1" y="-138.7" font-family="Times,serif" font-size="14" text-anchor="start">validAfter: uint48</text><text x="3486.1" y="-121.9" font-family="Times,serif" font-size="14" text-anchor="start">validUntil: uint48</text><text x="3486.1" y="-105.1" font-family="Times,serif" font-size="14" text-anchor="start">paymasterContext: bytes</text></g><g id="node9" class="node"><title>13</title><polygon fill="#f2f2f2" stroke="#000" points="3100.1 -130.5 3100.1 -230.5 3460.16 -230.5 3460.16 -130.5 3100.1 -130.5"/><text x="3280.13" y="-213.9" font-family="Times,serif" font-size="14" text-anchor="middle">&lt;&lt;Struct&gt;&gt;</text><text x="3280.13" y="-197.1" font-family="Times,serif" font-size="14" text-anchor="middle">AggregatorStakeInfo</text><text x="3280.13" y="-180.3" font-family="Times,serif" font-size="14" text-anchor="middle">../../../account-abstraction/contracts/interfaces/IEntryPoint.sol</text><polyline fill="none" stroke="#000" points="3100.1 -172.1 3460.16 -172.1"/><text x="3108.1" y="-155.5" font-family="Times,serif" font-size="14" text-anchor="start">aggregator: address</text><text x="3108.1" y="-138.7" font-family="Times,serif" font-size="14" text-anchor="start">stakeInfo: StakeInfo</text></g><g id="edge7" class="edge"><title>13-&gt;18</title><path fill="none" stroke="#000" stroke-dasharray="5 2" d="M3279.7,-230.66C3279.16,-292.04 3278.23,-396.95 3277.65,-462.74"/><polygon fill="#000" stroke="#000" points="3274.15 -462.92 3277.56 -472.95 3281.15 -462.98 3274.15 -462.92"/></g><g id="node13" class="node"><title>47</title><polygon fill="#f2f2f2" stroke="#000" points="3856.42 -130.5 3856.42 -230.5 4225.84 -230.5 4225.84 -130.5 3856.42 -130.5"/><text x="4041.13" y="-213.9" font-family="Times,serif" font-size="14" text-anchor="middle">&lt;&lt;Struct&gt;&gt;</text><text x="4041.13" y="-197.1" font-family="Times,serif" font-size="14" text-anchor="middle">XY</text><text x="4041.13" y="-180.3" font-family="Times,serif" font-size="14" text-anchor="middle">../../../account-abstraction/contracts/samples/bls/BLSHelper.sol</text><polyline fill="none" stroke="#000" points="3856.42 -172.1 4225.84 -172.1"/><text x="3864.42" y="-155.5" font-family="Times,serif" font-size="14" text-anchor="start">x: uint</text><text x="3864.42" y="-138.7" font-family="Times,serif" font-size="14" text-anchor="start">y: uint</text></g></g></svg>