<svg xmlns="http://www.w3.org/2000/svg" xmlns:xlink="http://www.w3.org/1999/xlink" width="4678pt" height="1916pt" viewBox="0 0 4677.51 1916.2"><g id="graph0" class="graph" transform="scale(1 1) rotate(0) translate(4 1912.2)"><title>UmlClassDiagram</title><polygon fill="#fff" stroke="transparent" points="-4 4 -4 -1912.2 4673.51 -1912.2 4673.51 4 -4 4"/><g id="node1" class="node"><title>3</title><polygon fill="#f2f2f2" stroke="#000" points="1400 -.5 1400 -201.3 1725.08 -201.3 1725.08 -.5 1400 -.5"/><text x="1562.54" y="-184.7" font-family="Times,serif" font-size="14" text-anchor="middle">&lt;&lt;Struct&gt;&gt;</text><text x="1562.54" y="-167.9" font-family="Times,serif" font-size="14" text-anchor="middle">MemoryUserOp</text><text x="1562.54" y="-151.1" font-family="Times,serif" font-size="14" text-anchor="middle">../../../account-abstraction/contracts/core/EntryPoint.sol</text><polyline fill="none" stroke="#000" points="1400 -142.9 1725.08 -142.9"/><text x="1408" y="-126.3" font-family="Times,serif" font-size="14" text-anchor="start">sender: address</text><text x="1408" y="-109.5" font-family="Times,serif" font-size="14" text-anchor="start">nonce: uint256</text><text x="1408" y="-92.7" font-family="Times,serif" font-size="14" text-anchor="start">callGasLimit: uint256</text><text x="1408" y="-75.9" font-family="Times,serif" font-size="14" text-anchor="start">verificationGasLimit: uint256</text><text x="1408" y="-59.1" font-family="Times,serif" font-size="14" text-anchor="start">preVerificationGas: uint256</text><text x="1408" y="-42.3" font-family="Times,serif" font-size="14" text-anchor="start">paymaster: address</text><text x="1408" y="-25.5" font-family="Times,serif" font-size="14" text-anchor="start">maxFeePerGas: uint256</text><text x="1408" y="-8.7" font-family="Times,serif" font-size="14" text-anchor="start">maxPriorityFeePerGas: uint256</text></g><g id="node3" class="node"><title>2</title><polygon fill="#f2f2f2" stroke="#000" points="957.73 -238.3 957.73 -900.7 2167.35 -900.7 2167.35 -238.3 957.73 -238.3"/><text x="1562.54" y="-884.1" font-family="Times,serif" font-size="14" text-anchor="middle">EntryPoint</text><text x="1562.54" y="-867.3" font-family="Times,serif" font-size="14" text-anchor="middle">../../../account-abstraction/contracts/core/EntryPoint.sol</text><polyline fill="none" stroke="#000" points="957.73 -859.1 2167.35 -859.1"/><text x="965.73" y="-842.5" font-family="Times,serif" font-size="14" text-anchor="start">Private:</text><text x="965.73" y="-825.7" font-family="Times,serif" font-size="14" text-anchor="start">senderCreator: SenderCreator</text><text x="965.73" y="-808.9" font-family="Times,serif" font-size="14" text-anchor="start">SIMULATE_FIND_AGGREGATOR: address</text><text x="965.73" y="-792.1" font-family="Times,serif" font-size="14" text-anchor="start">INNER_OUT_OF_GAS: bytes32</text><text x="965.73" y="-775.3" font-family="Times,serif" font-size="14" text-anchor="start">REVERT_REASON_MAX_LEN: uint256</text><text x="965.73" y="-758.5" font-family="Times,serif" font-size="14" text-anchor="start">Public:</text><text x="965.73" y="-741.7" font-family="Times,serif" font-size="14" text-anchor="start">SIG_VALIDATION_FAILED: uint256</text><polyline fill="none" stroke="#000" points="957.73 -733.5 2167.35 -733.5"/><text x="965.73" y="-716.9" font-family="Times,serif" font-size="14" text-anchor="start">Private:</text><text x="965.73" y="-700.1" font-family="Times,serif" font-size="14" text-anchor="start">_executeUserOp(opIndex: uint256, userOp: UserOperation, opInfo: UserOpInfo): (collected: uint256)</text><text x="965.73" y="-683.3" font-family="Times,serif" font-size="14" text-anchor="start">_validatePrepayment(opIndex: uint256, userOp: UserOperation, outOpInfo: UserOpInfo): (validationData: uint256, paymasterValidationData: uint256)</text><text x="965.73" y="-666.5" font-family="Times,serif" font-size="14" text-anchor="start">_handlePostOp(opIndex: uint256, mode: IPaymaster.PostOpMode, opInfo: UserOpInfo, context: bytes, actualGas: uint256): (actualGasCost: uint256)</text><text x="965.73" y="-649.7" font-family="Times,serif" font-size="14" text-anchor="start">Internal:</text><text x="965.73" y="-632.9" font-family="Times,serif" font-size="14" text-anchor="start">_compensate(beneficiary: address, amount: uint256)</text><text x="965.73" y="-616.1" font-family="Times,serif" font-size="14" text-anchor="start">_copyUserOpToMemory(userOp: UserOperation, mUserOp: MemoryUserOp)</text><text x="965.73" y="-599.3" font-family="Times,serif" font-size="14" text-anchor="start">_getRequiredPrefund(mUserOp: MemoryUserOp): (requiredPrefund: uint256)</text><text x="965.73" y="-582.5" font-family="Times,serif" font-size="14" text-anchor="start">_createSenderIfNeeded(opIndex: uint256, opInfo: UserOpInfo, initCode: bytes)</text><text x="965.73" y="-565.7" font-family="Times,serif" font-size="14" text-anchor="start">_simulationOnlyValidations(userOp: UserOperation)</text><text x="965.73" y="-548.9" font-family="Times,serif" font-size="14" text-anchor="start">_validateAccountPrepayment(opIndex: uint256, op: UserOperation, opInfo: UserOpInfo, requiredPrefund: uint256): (gasUsedByValidateAccountPrepayment: uint256, validationData: uint256)</text><text x="965.73" y="-532.1" font-family="Times,serif" font-size="14" text-anchor="start">_validatePaymasterPrepayment(opIndex: uint256, op: UserOperation, opInfo: UserOpInfo, requiredPreFund: uint256, gasUsedByValidateAccountPrepayment: uint256): (context: bytes, validationData: uint256)</text><text x="965.73" y="-515.3" font-family="Times,serif" font-size="14" text-anchor="start">_validateAccountAndPaymasterValidationData(opIndex: uint256, validationData: uint256, paymasterValidationData: uint256, expectedAggregator: address)</text><text x="965.73" y="-498.5" font-family="Times,serif" font-size="14" text-anchor="start">_getValidationData(validationData: uint256): (aggregator: address, outOfTimeRange: bool)</text><text x="965.73" y="-481.7" font-family="Times,serif" font-size="14" text-anchor="start">getUserOpGasPrice(mUserOp: MemoryUserOp): uint256</text><text x="965.73" y="-464.9" font-family="Times,serif" font-size="14" text-anchor="start">min(a: uint256, b: uint256): uint256</text><text x="965.73" y="-448.1" font-family="Times,serif" font-size="14" text-anchor="start">getOffsetOfMemoryBytes(data: bytes): (offset: uint256)</text><text x="965.73" y="-431.3" font-family="Times,serif" font-size="14" text-anchor="start">getMemoryBytesFromOffset(offset: uint256): (data: bytes)</text><text x="965.73" y="-414.5" font-family="Times,serif" font-size="14" text-anchor="start">numberMarker()</text><text x="965.73" y="-397.7" font-family="Times,serif" font-size="14" text-anchor="start">External:</text><text x="965.73" y="-380.9" font-family="Times,serif" font-size="14" text-anchor="start">simulateHandleOp(op: UserOperation, target: address, targetCallData: bytes)</text><text x="965.73" y="-364.1" font-family="Times,serif" font-size="14" text-anchor="start">innerHandleOp(callData: bytes, opInfo: UserOpInfo, context: bytes): (actualGasCost: uint256)</text><text x="965.73" y="-347.3" font-family="Times,serif" font-size="14" text-anchor="start">simulateValidation(userOp: UserOperation)</text><text x="965.73" y="-330.5" font-family="Times,serif" font-size="14" text-anchor="start">_validateSenderAndPaymaster(initCode: bytes, sender: address, paymasterAndData: bytes)</text><text x="965.73" y="-313.7" font-family="Times,serif" font-size="14" text-anchor="start">Public:</text><text x="965.73" y="-296.9" font-family="Times,serif" font-size="14" text-anchor="start">handleOps(ops: UserOperation[], beneficiary: address)</text><text x="965.73" y="-280.1" font-family="Times,serif" font-size="14" text-anchor="start">handleAggregatedOps(opsPerAggregator: UserOpsPerAggregator[], beneficiary: address)</text><text x="965.73" y="-263.3" font-family="Times,serif" font-size="14" text-anchor="start">getUserOpHash(userOp: UserOperation): bytes32</text><text x="965.73" y="-246.5" font-family="Times,serif" font-size="14" text-anchor="start">getSenderAddress(initCode: bytes)</text></g><g id="edge2" class="edge"><title>3-&gt;2</title><path fill="none" stroke="#000" d="M1556.89,-201.43C1556.75,-209.34 1556.61,-217.56 1556.5,-226.03"/><polygon fill="#000" stroke="#000" points="1556.49 -226.17 1560.42 -232.22 1556.34 -238.17 1552.42 -232.12 1556.49 -226.17"/></g><g id="node2" class="node"><title>4</title><polygon fill="#f2f2f2" stroke="#000" points="0 -1025.7 0 -1176.1 325.08 -1176.1 325.08 -1025.7 0 -1025.7"/><text x="162.54" y="-1159.5" font-family="Times,serif" font-size="14" text-anchor="middle">&lt;&lt;Struct&gt;&gt;</text><text x="162.54" y="-1142.7" font-family="Times,serif" font-size="14" text-anchor="middle">UserOpInfo</text><text x="162.54" y="-1125.9" font-family="Times,serif" font-size="14" text-anchor="middle">../../../account-abstraction/contracts/core/EntryPoint.sol</text><polyline fill="none" stroke="#000" points="0 -1117.7 325.08 -1117.7"/><text x="8" y="-1101.1" font-family="Times,serif" font-size="14" text-anchor="start">mUserOp: MemoryUserOp</text><text x="8" y="-1084.3" font-family="Times,serif" font-size="14" text-anchor="start">userOpHash: bytes32</text><text x="8" y="-1067.5" font-family="Times,serif" font-size="14" text-anchor="start">prefund: uint256</text><text x="8" y="-1050.7" font-family="Times,serif" font-size="14" text-anchor="start">contextOffset: uint256</text><text x="8" y="-1033.9" font-family="Times,serif" font-size="14" text-anchor="start">preOpGas: uint256</text></g><g id="edge1" class="edge"><title>4-&gt;3</title><path fill="none" stroke="#000" stroke-dasharray="5 2" d="M207.2,-1025.54C312.95,-856.37 596.42,-441.61 948.54,-237.8 1084.26,-159.25 1260.97,-126.06 1389.95,-112.06"/><polygon fill="#000" stroke="#000" points="1390.35 -115.54 1399.93 -111 1389.62 -108.58 1390.35 -115.54"/></g><g id="edge3" class="edge"><title>4-&gt;2</title><path fill="none" stroke="#000" d="M230.35,-1025.62C261.16,-993.33 300.11,-958.17 342.54,-937.2 434.12,-891.95 470.27,-925.29 569.54,-901.2 692.65,-871.33 822.36,-833.47 945.95,-794.11"/><polygon fill="#000" stroke="#000" points="946.08 -794.07 950.58 -788.43 957.51 -790.42 953.01 -796.05 946.08 -794.07"/></g><g id="edge13" class="edge"><title>2-&gt;3</title><path fill="none" stroke="#000" stroke-dasharray="5 2" d="M1568.74,-238.17C1568.63,-229.08 1568.51,-220.23 1568.37,-211.68"/><polygon fill="#000" stroke="#000" points="1571.86 -211.36 1568.19 -201.43 1564.86 -211.49 1571.86 -211.36"/></g><g id="edge9" class="edge"><title>2-&gt;4</title><path fill="none" stroke="#000" stroke-dasharray="5 2" d="M957.61,-784.74C824.93,-827.42 684.39,-868.97 551.54,-901.2 452.27,-925.29 416.12,-891.95 324.54,-937.2 285.42,-956.53 249.26,-987.92 221.02,-1018.01"/><polygon fill="#000" stroke="#000" points="218.21 -1015.89 214.01 -1025.62 223.36 -1020.63 218.21 -1015.89"/></g><g id="node4" class="node"><title>5</title><polygon fill="#f2f2f2" stroke="#000" points="4361.57 -1042.5 4361.57 -1159.3 4669.51 -1159.3 4669.51 -1042.5 4361.57 -1042.5"/><text x="4515.54" y="-1142.7" font-family="Times,serif" font-size="14" text-anchor="middle">&lt;&lt;Struct&gt;&gt;</text><text x="4515.54" y="-1125.9" font-family="Times,serif" font-size="14" text-anchor="middle">ValidationData</text><text x="4515.54" y="-1109.1" font-family="Times,serif" font-size="14" text-anchor="middle">../../../account-abstraction/contracts/core/Helpers.sol</text><polyline fill="none" stroke="#000" points="4361.57 -1100.9 4669.51 -1100.9"/><text x="4369.57" y="-1084.3" font-family="Times,serif" font-size="14" text-anchor="start">aggregator: address</text><text x="4369.57" y="-1067.5" font-family="Times,serif" font-size="14" text-anchor="start">validAfter: uint48</text><text x="4369.57" y="-1050.7" font-family="Times,serif" font-size="14" text-anchor="start">validUntil: uint48</text></g><g id="edge12" class="edge"><title>2-&gt;5</title><path fill="none" stroke="#000" stroke-dasharray="5 2" d="M2167.52,-604.61C2869.87,-652.05 3979.66,-753.58 4352.54,-937.2 4398.06,-959.62 4438.5,-999.79 4467.72,-1034.61"/><polygon fill="#000" stroke="#000" points="4465.09 -1036.92 4474.15 -1042.4 4470.49 -1032.46 4465.09 -1036.92"/></g><g id="node5" class="node"><title>6</title><polygon fill="#f2f2f2" stroke="#000" points="342.91 -1059.3 342.91 -1142.5 688.17 -1142.5 688.17 -1059.3 342.91 -1059.3"/><text x="515.54" y="-1125.9" font-family="Times,serif" font-size="14" text-anchor="middle">SenderCreator</text><text x="515.54" y="-1109.1" font-family="Times,serif" font-size="14" text-anchor="middle">../../../account-abstraction/contracts/core/SenderCreator.sol</text><polyline fill="none" stroke="#000" points="342.91 -1100.9 688.17 -1100.9"/><text x="350.91" y="-1084.3" font-family="Times,serif" font-size="14" text-anchor="start">External:</text><text x="350.91" y="-1067.5" font-family="Times,serif" font-size="14" text-anchor="start">createSender(initCode: bytes): (sender: address)</text></g><g id="edge7" class="edge"><title>2-&gt;6</title><path fill="none" stroke="#000" d="M957.72,-796.58C867.99,-838.69 778.55,-885.82 697.54,-937.2 646.25,-969.73 595.35,-1016.82 560.48,-1051.98"/><polygon fill="#000" stroke="#000" points="557.8 -1049.71 553.28 -1059.3 562.79 -1054.62 557.8 -1049.71"/></g><g id="node6" class="node"><title>7</title><polygon fill="#f2f2f2" stroke="#000" points="706.63 -937.7 706.63 -1264.1 1118.45 -1264.1 1118.45 -937.7 706.63 -937.7"/><text x="912.54" y="-1247.5" font-family="Times,serif" font-size="14" text-anchor="middle">&lt;&lt;Abstract&gt;&gt;</text><text x="912.54" y="-1230.7" font-family="Times,serif" font-size="14" text-anchor="middle">StakeManager</text><text x="912.54" y="-1213.9" font-family="Times,serif" font-size="14" text-anchor="middle">../../../account-abstraction/contracts/core/StakeManager.sol</text><polyline fill="none" stroke="#000" points="706.63 -1205.7 1118.45 -1205.7"/><text x="714.63" y="-1189.1" font-family="Times,serif" font-size="14" text-anchor="start">Public:</text><text x="714.63" y="-1172.3" font-family="Times,serif" font-size="14" text-anchor="start">deposits: mapping(address=&gt;DepositInfo)</text><polyline fill="none" stroke="#000" points="706.63 -1164.1 1118.45 -1164.1"/><text x="714.63" y="-1147.5" font-family="Times,serif" font-size="14" text-anchor="start">Internal:</text><text x="714.63" y="-1130.7" font-family="Times,serif" font-size="14" text-anchor="start">_getStakeInfo(addr: address): (info: StakeInfo)</text><text x="714.63" y="-1113.9" font-family="Times,serif" font-size="14" text-anchor="start">_incrementDeposit(account: address, amount: uint256)</text><text x="714.63" y="-1097.1" font-family="Times,serif" font-size="14" text-anchor="start">External:</text><text x="714.63" y="-1080.3" font-family="Times,serif" font-size="14" text-anchor="start">&lt;&lt;payable&gt;&gt; null()</text><text x="714.63" y="-1063.5" font-family="Times,serif" font-size="14" text-anchor="start">unlockStake()</text><text x="714.63" y="-1046.7" font-family="Times,serif" font-size="14" text-anchor="start">withdrawStake(withdrawAddress: address)</text><text x="714.63" y="-1029.9" font-family="Times,serif" font-size="14" text-anchor="start">withdrawTo(withdrawAddress: address, withdrawAmount: uint256)</text><text x="714.63" y="-1013.1" font-family="Times,serif" font-size="14" text-anchor="start">Public:</text><text x="714.63" y="-996.3" font-family="Times,serif" font-size="14" text-anchor="start">&lt;&lt;payable&gt;&gt; depositTo(account: address)</text><text x="714.63" y="-979.5" font-family="Times,serif" font-size="14" text-anchor="start">&lt;&lt;payable&gt;&gt; addStake(unstakeDelaySec: uint32)</text><text x="714.63" y="-962.7" font-family="Times,serif" font-size="14" text-anchor="start">getDepositInfo(account: address): (info: DepositInfo)</text><text x="714.63" y="-945.9" font-family="Times,serif" font-size="14" text-anchor="start">balanceOf(account: address): uint256</text></g><g id="edge5" class="edge"><title>2-&gt;7</title><path fill="none" stroke="#000" d="M1156.89,-900.89C1149.6,-906.82 1142.37,-912.71 1135.21,-918.54"/><polygon fill="none" stroke="#000" points="1128.55 -910.42 1111.92 -937.51 1141.81 -926.71 1128.55 -910.42"/></g><g id="node7" class="node"><title>9</title><polygon fill="#f2f2f2" stroke="#000" points="2160.51 -1368.3 2160.51 -1501.9 2630.57 -1501.9 2630.57 -1368.3 2160.51 -1368.3"/><text x="2395.54" y="-1485.3" font-family="Times,serif" font-size="14" text-anchor="middle">&lt;&lt;Interface&gt;&gt;</text><text x="2395.54" y="-1468.5" font-family="Times,serif" font-size="14" text-anchor="middle">IAggregator</text><text x="2395.54" y="-1451.7" font-family="Times,serif" font-size="14" text-anchor="middle">../../../account-abstraction/contracts/interfaces/IAggregator.sol</text><polyline fill="none" stroke="#000" points="2160.51 -1443.5 2630.57 -1443.5"/><text x="2168.51" y="-1426.9" font-family="Times,serif" font-size="14" text-anchor="start">External:</text><text x="2168.51" y="-1410.1" font-family="Times,serif" font-size="14" text-anchor="start">validateSignatures(userOps: UserOperation[], signature: bytes)</text><text x="2168.51" y="-1393.3" font-family="Times,serif" font-size="14" text-anchor="start">validateUserOpSignature(userOp: UserOperation): (sigForUserOp: bytes)</text><text x="2168.51" y="-1376.5" font-family="Times,serif" font-size="14" text-anchor="start">aggregateSignatures(userOps: UserOperation[]): (aggregatedSignature: bytes)</text></g><g id="edge11" class="edge"><title>2-&gt;9</title><path fill="none" stroke="#000" stroke-dasharray="5 2" d="M2167.69,-777.53C2233.07,-821.35 2292.19,-874.02 2337.54,-937.2 2427.47,-1062.51 2420.55,-1253.08 2407.86,-1358.07"/><polygon fill="#000" stroke="#000" points="2404.35 -1357.91 2406.58 -1368.27 2411.3 -1358.78 2404.35 -1357.91"/></g><g id="node8" class="node"><title>11</title><polygon fill="#f2f2f2" stroke="#000" points="1968.51 -1042.5 1968.51 -1159.3 2328.57 -1159.3 2328.57 -1042.5 1968.51 -1042.5"/><text x="2148.54" y="-1142.7" font-family="Times,serif" font-size="14" text-anchor="middle">&lt;&lt;Struct&gt;&gt;</text><text x="2148.54" y="-1125.9" font-family="Times,serif" font-size="14" text-anchor="middle">UserOpsPerAggregator</text><text x="2148.54" y="-1109.1" font-family="Times,serif" font-size="14" text-anchor="middle">../../../account-abstraction/contracts/interfaces/IEntryPoint.sol</text><polyline fill="none" stroke="#000" points="1968.51 -1100.9 2328.57 -1100.9"/><text x="1976.51" y="-1084.3" font-family="Times,serif" font-size="14" text-anchor="start">userOps: UserOperation[]</text><text x="1976.51" y="-1067.5" font-family="Times,serif" font-size="14" text-anchor="start">aggregator: IAggregator</text><text x="1976.51" y="-1050.7" font-family="Times,serif" font-size="14" text-anchor="start">signature: bytes</text></g><g id="edge10" class="edge"><title>2-&gt;11</title><path fill="none" stroke="#000" stroke-dasharray="5 2" d="M1928.25,-900.89C1984.73,-951.91 2037.36,-999.46 2077,-1035.27"/><polygon fill="#000" stroke="#000" points="2074.99 -1038.17 2084.76 -1042.28 2079.68 -1032.98 2074.99 -1038.17"/></g><g id="node9" class="node"><title>12</title><polygon fill="#f2f2f2" stroke="#000" points="1590.51 -1017.3 1590.51 -1184.5 1950.57 -1184.5 1950.57 -1017.3 1590.51 -1017.3"/><text x="1770.54" y="-1167.9" font-family="Times,serif" font-size="14" text-anchor="middle">&lt;&lt;Struct&gt;&gt;</text><text x="1770.54" y="-1151.1" font-family="Times,serif" font-size="14" text-anchor="middle">ReturnInfo</text><text x="1770.54" y="-1134.3" font-family="Times,serif" font-size="14" text-anchor="middle">../../../account-abstraction/contracts/interfaces/IEntryPoint.sol</text><polyline fill="none" stroke="#000" points="1590.51 -1126.1 1950.57 -1126.1"/><text x="1598.51" y="-1109.5" font-family="Times,serif" font-size="14" text-anchor="start">preOpGas: uint256</text><text x="1598.51" y="-1092.7" font-family="Times,serif" font-size="14" text-anchor="start">prefund: uint256</text><text x="1598.51" y="-1075.9" font-family="Times,serif" font-size="14" text-anchor="start">sigFailed: bool</text><text x="1598.51" y="-1059.1" font-family="Times,serif" font-size="14" text-anchor="start">validAfter: uint48</text><text x="1598.51" y="-1042.3" font-family="Times,serif" font-size="14" text-anchor="start">validUntil: uint48</text><text x="1598.51" y="-1025.5" font-family="Times,serif" font-size="14" text-anchor="start">paymasterContext: bytes</text></g><g id="edge18" class="edge"><title>2-&gt;12</title><path fill="none" stroke="#000" stroke-dasharray="5 2" d="M1692.35,-900.89C1707.55,-939.59 1721.97,-976.29 1734.19,-1007.38"/><polygon fill="#000" stroke="#000" points="1731 -1008.82 1737.91 -1016.85 1737.51 -1006.26 1731 -1008.82"/></g><g id="node10" class="node"><title>13</title><polygon fill="#f2f2f2" stroke="#000" points="1174.51 -1050.9 1174.51 -1150.9 1534.57 -1150.9 1534.57 -1050.9 1174.51 -1050.9"/><text x="1354.54" y="-1134.3" font-family="Times,serif" font-size="14" text-anchor="middle">&lt;&lt;Struct&gt;&gt;</text><text x="1354.54" y="-1117.5" font-family="Times,serif" font-size="14" text-anchor="middle">AggregatorStakeInfo</text><text x="1354.54" y="-1100.7" font-family="Times,serif" font-size="14" text-anchor="middle">../../../account-abstraction/contracts/interfaces/IEntryPoint.sol</text><polyline fill="none" stroke="#000" points="1174.51 -1092.5 1534.57 -1092.5"/><text x="1182.51" y="-1075.9" font-family="Times,serif" font-size="14" text-anchor="start">aggregator: address</text><text x="1182.51" y="-1059.1" font-family="Times,serif" font-size="14" text-anchor="start">stakeInfo: StakeInfo</text></g><g id="edge19" class="edge"><title>2-&gt;13</title><path fill="none" stroke="#000" stroke-dasharray="5 2" d="M1432.73,-900.89C1411.52,-954.88 1391.83,-1004.99 1377.52,-1041.41"/><polygon fill="#000" stroke="#000" points="1374.21 -1040.26 1373.81 -1050.84 1380.73 -1042.82 1374.21 -1040.26"/></g><g id="node11" class="node"><title>10</title><polygon fill="#f2f2f2" stroke="#000" points="1106.64 -1301.1 1106.64 -1569.1 2104.44 -1569.1 2104.44 -1301.1 1106.64 -1301.1"/><text x="1605.54" y="-1552.5" font-family="Times,serif" font-size="14" text-anchor="middle">&lt;&lt;Interface&gt;&gt;</text><text x="1605.54" y="-1535.7" font-family="Times,serif" font-size="14" text-anchor="middle">IEntryPoint</text><text x="1605.54" y="-1518.9" font-family="Times,serif" font-size="14" text-anchor="middle">../../../account-abstraction/contracts/interfaces/IEntryPoint.sol</text><polyline fill="none" stroke="#000" points="1106.64 -1510.7 2104.44 -1510.7"/><text x="1114.64" y="-1494.1" font-family="Times,serif" font-size="14" text-anchor="start">External:</text><text x="1114.64" y="-1477.3" font-family="Times,serif" font-size="14" text-anchor="start">handleOps(ops: UserOperation[], beneficiary: address)</text><text x="1114.64" y="-1460.5" font-family="Times,serif" font-size="14" text-anchor="start">handleAggregatedOps(opsPerAggregator: UserOpsPerAggregator[], beneficiary: address)</text><text x="1114.64" y="-1443.7" font-family="Times,serif" font-size="14" text-anchor="start">getUserOpHash(userOp: UserOperation): bytes32</text><text x="1114.64" y="-1426.9" font-family="Times,serif" font-size="14" text-anchor="start">simulateValidation(userOp: UserOperation)</text><text x="1114.64" y="-1410.1" font-family="Times,serif" font-size="14" text-anchor="start">getSenderAddress(initCode: bytes)</text><text x="1114.64" y="-1393.3" font-family="Times,serif" font-size="14" text-anchor="start">simulateHandleOp(op: UserOperation, target: address, targetCallData: bytes)</text><text x="1114.64" y="-1376.5" font-family="Times,serif" font-size="14" text-anchor="start">Public:</text><text x="1114.64" y="-1359.7" font-family="Times,serif" font-size="14" text-anchor="start">&lt;&lt;event&gt;&gt; UserOperationEvent(userOpHash: bytes32, sender: address, paymaster: address, nonce: uint256, success: bool, actualGasCost: uint256, actualGasUsed: uint256)</text><text x="1114.64" y="-1342.9" font-family="Times,serif" font-size="14" text-anchor="start">&lt;&lt;event&gt;&gt; AccountDeployed(userOpHash: bytes32, sender: address, factory: address, paymaster: address)</text><text x="1114.64" y="-1326.1" font-family="Times,serif" font-size="14" text-anchor="start">&lt;&lt;event&gt;&gt; UserOperationRevertReason(userOpHash: bytes32, sender: address, nonce: uint256, revertReason: bytes)</text><text x="1114.64" y="-1309.3" font-family="Times,serif" font-size="14" text-anchor="start">&lt;&lt;event&gt;&gt; SignatureAggregatorChanged(aggregator: address)</text></g><g id="edge4" class="edge"><title>2-&gt;10</title><path fill="none" stroke="#000" stroke-dasharray="5 2" d="M1563.95,-901.04C1566.47,-1016.25 1571.58,-1146.28 1581.54,-1264.6 1581.72,-1266.73 1581.91,-1268.87 1582.1,-1271.03"/><polygon fill="none" stroke="#000" points="1571.68 -1272.28 1585.25 -1301.02 1592.56 -1270.09 1571.68 -1272.28"/></g><g id="node12" class="node"><title>15</title><polygon fill="#f2f2f2" stroke="#000" points="3258.69 -1042.5 3258.69 -1159.3 3616.39 -1159.3 3616.39 -1042.5 3258.69 -1042.5"/><text x="3437.54" y="-1142.7" font-family="Times,serif" font-size="14" text-anchor="middle">&lt;&lt;Enum&gt;&gt;</text><text x="3437.54" y="-1125.9" font-family="Times,serif" font-size="14" text-anchor="middle">PostOpMode</text><text x="3437.54" y="-1109.1" font-family="Times,serif" font-size="14" text-anchor="middle">../../../account-abstraction/contracts/interfaces/IPaymaster.sol</text><polyline fill="none" stroke="#000" points="3258.69 -1100.9 3616.39 -1100.9"/><text x="3266.69" y="-1084.3" font-family="Times,serif" font-size="14" text-anchor="start">opSucceeded: 0</text><text x="3266.69" y="-1067.5" font-family="Times,serif" font-size="14" text-anchor="start">opReverted: 1</text><text x="3266.69" y="-1050.7" font-family="Times,serif" font-size="14" text-anchor="start">postOpReverted: 2</text></g><g id="edge15" class="edge"><title>2-&gt;15</title><path fill="none" stroke="#000" stroke-dasharray="5 2" d="M2167.49,-717.63C2416.24,-780.94 2706.44,-858.44 2966.54,-937.2 3068.7,-968.14 3181.79,-1007.05 3271.55,-1039.06"/><polygon fill="#000" stroke="#000" points="3270.4 -1042.36 3280.99 -1042.43 3272.75 -1035.77 3270.4 -1042.36"/></g><g id="node13" class="node"><title>14</title><polygon fill="#f2f2f2" stroke="#000" points="3043.65 -1376.7 3043.65 -1493.5 3831.43 -1493.5 3831.43 -1376.7 3043.65 -1376.7"/><text x="3437.54" y="-1476.9" font-family="Times,serif" font-size="14" text-anchor="middle">&lt;&lt;Interface&gt;&gt;</text><text x="3437.54" y="-1460.1" font-family="Times,serif" font-size="14" text-anchor="middle">IPaymaster</text><text x="3437.54" y="-1443.3" font-family="Times,serif" font-size="14" text-anchor="middle">../../../account-abstraction/contracts/interfaces/IPaymaster.sol</text><polyline fill="none" stroke="#000" points="3043.65 -1435.1 3831.43 -1435.1"/><text x="3051.65" y="-1418.5" font-family="Times,serif" font-size="14" text-anchor="start">External:</text><text x="3051.65" y="-1401.7" font-family="Times,serif" font-size="14" text-anchor="start">validatePaymasterUserOp(userOp: UserOperation, userOpHash: bytes32, maxCost: uint256): (context: bytes, validationData: uint256)</text><text x="3051.65" y="-1384.9" font-family="Times,serif" font-size="14" text-anchor="start">postOp(mode: PostOpMode, context: bytes, actualGasCost: uint256)</text></g><g id="edge14" class="edge"><title>2-&gt;14</title><path fill="none" stroke="#000" stroke-dasharray="5 2" d="M2167.57,-773.46C2300.07,-823 2438.39,-878.71 2564.54,-937.2 2856.27,-1072.46 3180.66,-1270.66 3339.31,-1370.96"/><polygon fill="#000" stroke="#000" points="3337.8 -1374.15 3348.13 -1376.54 3341.55 -1368.24 3337.8 -1374.15"/></g><g id="node15" class="node"><title>18</title><polygon fill="#f2f2f2" stroke="#000" points="708.42 -1385.1 708.42 -1485.1 1088.66 -1485.1 1088.66 -1385.1 708.42 -1385.1"/><text x="898.54" y="-1468.5" font-family="Times,serif" font-size="14" text-anchor="middle">&lt;&lt;Struct&gt;&gt;</text><text x="898.54" y="-1451.7" font-family="Times,serif" font-size="14" text-anchor="middle">StakeInfo</text><text x="898.54" y="-1434.9" font-family="Times,serif" font-size="14" text-anchor="middle">../../../account-abstraction/contracts/interfaces/IStakeManager.sol</text><polyline fill="none" stroke="#000" points="708.42 -1426.7 1088.66 -1426.7"/><text x="716.42" y="-1410.1" font-family="Times,serif" font-size="14" text-anchor="start">stake: uint256</text><text x="716.42" y="-1393.3" font-family="Times,serif" font-size="14" text-anchor="start">unstakeDelaySec: uint256</text></g><g id="edge17" class="edge"><title>2-&gt;18</title><path fill="none" stroke="#000" stroke-dasharray="5 2" d="M1186.05,-900.82C1178.68,-912.73 1171.81,-924.86 1165.54,-937.2 1099.16,-1067.78 1200.91,-1137.81 1127.54,-1264.6 1110.25,-1294.48 1043.73,-1342.17 986.81,-1379.36"/><polygon fill="#000" stroke="#000" points="984.61 -1376.62 978.13 -1385 988.42 -1382.49 984.61 -1376.62"/></g><g id="node17" class="node"><title>19</title><polygon fill="#f2f2f2" stroke="#000" points="2427.97 -1631.3 2427.97 -1882.5 2805.11 -1882.5 2805.11 -1631.3 2427.97 -1631.3"/><text x="2616.54" y="-1865.9" font-family="Times,serif" font-size="14" text-anchor="middle">&lt;&lt;Struct&gt;&gt;</text><text x="2616.54" y="-1849.1" font-family="Times,serif" font-size="14" text-anchor="middle">UserOperation</text><text x="2616.54" y="-1832.3" font-family="Times,serif" font-size="14" text-anchor="middle">../../../account-abstraction/contracts/interfaces/UserOperation.sol</text><polyline fill="none" stroke="#000" points="2427.97 -1824.1 2805.11 -1824.1"/><text x="2435.97" y="-1807.5" font-family="Times,serif" font-size="14" text-anchor="start">sender: address</text><text x="2435.97" y="-1790.7" font-family="Times,serif" font-size="14" text-anchor="start">nonce: uint256</text><text x="2435.97" y="-1773.9" font-family="Times,serif" font-size="14" text-anchor="start">initCode: bytes</text><text x="2435.97" y="-1757.1" font-family="Times,serif" font-size="14" text-anchor="start">callData: bytes</text><text x="2435.97" y="-1740.3" font-family="Times,serif" font-size="14" text-anchor="start">callGasLimit: uint256</text><text x="2435.97" y="-1723.5" font-family="Times,serif" font-size="14" text-anchor="start">verificationGasLimit: uint256</text><text x="2435.97" y="-1706.7" font-family="Times,serif" font-size="14" text-anchor="start">preVerificationGas: uint256</text><text x="2435.97" y="-1689.9" font-family="Times,serif" font-size="14" text-anchor="start">maxFeePerGas: uint256</text><text x="2435.97" y="-1673.1" font-family="Times,serif" font-size="14" text-anchor="start">maxPriorityFeePerGas: uint256</text><text x="2435.97" y="-1656.3" font-family="Times,serif" font-size="14" text-anchor="start">paymasterAndData: bytes</text><text x="2435.97" y="-1639.5" font-family="Times,serif" font-size="14" text-anchor="start">signature: bytes</text></g><g id="edge8" class="edge"><title>2-&gt;19</title><path fill="none" stroke="#000" stroke-dasharray="5 2" d="M2167.48,-622.02C2689.3,-676.43 3394.32,-776.89 3625.54,-937.2 3779.76,-1044.12 3791.01,-1119.59 3840.54,-1300.6 3872.1,-1415.92 3918.46,-1478.92 3840.54,-1569.6 3710.75,-1720.64 3127.56,-1750.64 2815.34,-1755.68"/><polygon fill="#000" stroke="#000" points="2815.21 -1752.18 2805.27 -1755.84 2815.32 -1759.18 2815.21 -1752.18"/></g><g id="node18" class="node"><title>20</title><polygon fill="#f2f2f2" stroke="#000" points="2648.97 -1351.5 2648.97 -1518.7 3026.11 -1518.7 3026.11 -1351.5 2648.97 -1351.5"/><text x="2837.54" y="-1502.1" font-family="Times,serif" font-size="14" text-anchor="middle">&lt;&lt;Library&gt;&gt;</text><text x="2837.54" y="-1485.3" font-family="Times,serif" font-size="14" text-anchor="middle">UserOperationLib</text><text x="2837.54" y="-1468.5" font-family="Times,serif" font-size="14" text-anchor="middle">../../../account-abstraction/contracts/interfaces/UserOperation.sol</text><polyline fill="none" stroke="#000" points="2648.97 -1460.3 3026.11 -1460.3"/><text x="2656.97" y="-1443.7" font-family="Times,serif" font-size="14" text-anchor="start">Internal:</text><text x="2656.97" y="-1426.9" font-family="Times,serif" font-size="14" text-anchor="start">getSender(userOp: UserOperation): address</text><text x="2656.97" y="-1410.1" font-family="Times,serif" font-size="14" text-anchor="start">gasPrice(userOp: UserOperation): uint256</text><text x="2656.97" y="-1393.3" font-family="Times,serif" font-size="14" text-anchor="start">pack(userOp: UserOperation): (ret: bytes)</text><text x="2656.97" y="-1376.5" font-family="Times,serif" font-size="14" text-anchor="start">hash(userOp: UserOperation): bytes32</text><text x="2656.97" y="-1359.7" font-family="Times,serif" font-size="14" text-anchor="start">min(a: uint256, b: uint256): uint256</text></g><g id="edge6" class="edge"><title>2-&gt;20</title><path fill="none" stroke="#000" stroke-dasharray="5 2" d="M2167.49,-802.72C2245.08,-842.75 2321.19,-887.65 2389.54,-937.2 2549.48,-1053.14 2694.63,-1234.33 2774.06,-1342.91"/><polygon fill="#000" stroke="#000" points="2771.41 -1345.23 2780.13 -1351.25 2777.07 -1341.11 2771.41 -1345.23"/></g><g id="node19" class="node"><title>43</title><polygon fill="#f2f2f2" stroke="#000" points="3887.86 -1008.9 3887.86 -1192.9 4343.22 -1192.9 4343.22 -1008.9 3887.86 -1008.9"/><text x="4115.54" y="-1176.3" font-family="Times,serif" font-size="14" text-anchor="middle">&lt;&lt;Library&gt;&gt;</text><text x="4115.54" y="-1159.5" font-family="Times,serif" font-size="14" text-anchor="middle">Exec</text><text x="4115.54" y="-1142.7" font-family="Times,serif" font-size="14" text-anchor="middle">../../../account-abstraction/contracts/utils/Exec.sol</text><polyline fill="none" stroke="#000" points="3887.86 -1134.5 4343.22 -1134.5"/><text x="3895.86" y="-1117.9" font-family="Times,serif" font-size="14" text-anchor="start">Internal:</text><text x="3895.86" y="-1101.1" font-family="Times,serif" font-size="14" text-anchor="start">call(to: address, value: uint256, data: bytes, txGas: uint256): (success: bool)</text><text x="3895.86" y="-1084.3" font-family="Times,serif" font-size="14" text-anchor="start">staticcall(to: address, data: bytes, txGas: uint256): (success: bool)</text><text x="3895.86" y="-1067.5" font-family="Times,serif" font-size="14" text-anchor="start">delegateCall(to: address, data: bytes, txGas: uint256): (success: bool)</text><text x="3895.86" y="-1050.7" font-family="Times,serif" font-size="14" text-anchor="start">getReturnData(maxLen: uint256): (returnData: bytes)</text><text x="3895.86" y="-1033.9" font-family="Times,serif" font-size="14" text-anchor="start">revertWithData(returnData: bytes)</text><text x="3895.86" y="-1017.1" font-family="Times,serif" font-size="14" text-anchor="start">callAndRevert(to: address, data: bytes, maxLen: uint256)</text></g><g id="edge16" class="edge"><title>2-&gt;43</title><path fill="none" stroke="#000" stroke-dasharray="5 2" d="M2167.42,-595.01C2644.93,-631.07 3320.51,-719.75 3873.54,-937.2 3915.26,-953.61 3957.08,-978.13 3993.93,-1003.19"/><polygon fill="#000" stroke="#000" points="3991.98 -1006.1 4002.2 -1008.88 3995.94 -1000.33 3991.98 -1006.1"/></g><g id="node14" class="node"><title>17</title><polygon fill="#f2f2f2" stroke="#000" points="310.42 -1359.9 310.42 -1510.3 690.66 -1510.3 690.66 -1359.9 310.42 -1359.9"/><text x="500.54" y="-1493.7" font-family="Times,serif" font-size="14" text-anchor="middle">&lt;&lt;Struct&gt;&gt;</text><text x="500.54" y="-1476.9" font-family="Times,serif" font-size="14" text-anchor="middle">DepositInfo</text><text x="500.54" y="-1460.1" font-family="Times,serif" font-size="14" text-anchor="middle">../../../account-abstraction/contracts/interfaces/IStakeManager.sol</text><polyline fill="none" stroke="#000" points="310.42 -1451.9 690.66 -1451.9"/><text x="318.42" y="-1435.3" font-family="Times,serif" font-size="14" text-anchor="start">deposit: uint112</text><text x="318.42" y="-1418.5" font-family="Times,serif" font-size="14" text-anchor="start">staked: bool</text><text x="318.42" y="-1401.7" font-family="Times,serif" font-size="14" text-anchor="start">stake: uint112</text><text x="318.42" y="-1384.9" font-family="Times,serif" font-size="14" text-anchor="start">unstakeDelaySec: uint32</text><text x="318.42" y="-1368.1" font-family="Times,serif" font-size="14" text-anchor="start">withdrawTime: uint48</text></g><g id="edge21" class="edge"><title>7-&gt;17</title><path fill="none" stroke="#000" d="M711.37,-1264.11C672.88,-1295.14 634.18,-1326.35 600.62,-1353.4"/><polygon fill="#000" stroke="#000" points="598.24 -1350.83 592.65 -1359.83 602.63 -1356.28 598.24 -1350.83"/></g><g id="edge22" class="edge"><title>7-&gt;18</title><path fill="none" stroke="#000" stroke-dasharray="5 2" d="M905.7,-1264.11C904.04,-1303.62 902.36,-1343.42 901.05,-1374.57"/><polygon fill="#000" stroke="#000" points="897.54 -1374.65 900.62 -1384.79 904.54 -1374.94 897.54 -1374.65"/></g><g id="node16" class="node"><title>16</title><polygon fill="#f2f2f2" stroke="#000" points="227.53 -1606.1 227.53 -1907.7 773.55 -1907.7 773.55 -1606.1 227.53 -1606.1"/><text x="500.54" y="-1891.1" font-family="Times,serif" font-size="14" text-anchor="middle">&lt;&lt;Interface&gt;&gt;</text><text x="500.54" y="-1874.3" font-family="Times,serif" font-size="14" text-anchor="middle">IStakeManager</text><text x="500.54" y="-1857.5" font-family="Times,serif" font-size="14" text-anchor="middle">../../../account-abstraction/contracts/interfaces/IStakeManager.sol</text><polyline fill="none" stroke="#000" points="227.53 -1849.3 773.55 -1849.3"/><text x="235.53" y="-1832.7" font-family="Times,serif" font-size="14" text-anchor="start">External:</text><text x="235.53" y="-1815.9" font-family="Times,serif" font-size="14" text-anchor="start">getDepositInfo(account: address): (info: DepositInfo)</text><text x="235.53" y="-1799.1" font-family="Times,serif" font-size="14" text-anchor="start">balanceOf(account: address): uint256</text><text x="235.53" y="-1782.3" font-family="Times,serif" font-size="14" text-anchor="start">depositTo(account: address)</text><text x="235.53" y="-1765.5" font-family="Times,serif" font-size="14" text-anchor="start">addStake(_unstakeDelaySec: uint32)</text><text x="235.53" y="-1748.7" font-family="Times,serif" font-size="14" text-anchor="start">unlockStake()</text><text x="235.53" y="-1731.9" font-family="Times,serif" font-size="14" text-anchor="start">withdrawStake(withdrawAddress: address)</text><text x="235.53" y="-1715.1" font-family="Times,serif" font-size="14" text-anchor="start">withdrawTo(withdrawAddress: address, withdrawAmount: uint256)</text><text x="235.53" y="-1698.3" font-family="Times,serif" font-size="14" text-anchor="start">Public:</text><text x="235.53" y="-1681.5" font-family="Times,serif" font-size="14" text-anchor="start">&lt;&lt;event&gt;&gt; Deposited(account: address, totalDeposit: uint256)</text><text x="235.53" y="-1664.7" font-family="Times,serif" font-size="14" text-anchor="start">&lt;&lt;event&gt;&gt; Withdrawn(account: address, withdrawAddress: address, amount: uint256)</text><text x="235.53" y="-1647.9" font-family="Times,serif" font-size="14" text-anchor="start">&lt;&lt;event&gt;&gt; StakeLocked(account: address, totalStaked: uint256, unstakeDelaySec: uint256)</text><text x="235.53" y="-1631.1" font-family="Times,serif" font-size="14" text-anchor="start">&lt;&lt;event&gt;&gt; StakeUnlocked(account: address, withdrawTime: uint256)</text><text x="235.53" y="-1614.3" font-family="Times,serif" font-size="14" text-anchor="start">&lt;&lt;event&gt;&gt; StakeWithdrawn(account: address, withdrawAddress: address, amount: uint256)</text></g><g id="edge20" class="edge"><title>7-&gt;16</title><path fill="none" stroke="#000" stroke-dasharray="5 2" d="M706.36,-1261.02C703.43,-1262.27 700.49,-1263.46 697.54,-1264.6 615.13,-1296.49 361.13,-1235.35 301.54,-1300.6 220.92,-1388.88 253.97,-1459.91 301.54,-1569.6 303.03,-1573.04 304.62,-1576.45 306.31,-1579.82"/><polygon fill="none" stroke="#000" points="297.34 -1585.29 321.5 -1605.93 315.49 -1574.72 297.34 -1585.29"/></g><g id="edge23" class="edge"><title>9-&gt;19</title><path fill="none" stroke="#000" stroke-dasharray="5 2" d="M2441.06,-1501.98C2465.23,-1536.94 2495.83,-1581.22 2524.68,-1622.97"/><polygon fill="#000" stroke="#000" points="2521.86 -1625.04 2530.42 -1631.28 2527.61 -1621.06 2521.86 -1625.04"/></g><g id="edge25" class="edge"><title>11-&gt;9</title><path fill="none" stroke="#000" stroke-dasharray="5 2" d="M2191.28,-1159.39C2232.56,-1214.9 2295.27,-1299.24 2340.31,-1359.82"/><polygon fill="#000" stroke="#000" points="2337.77 -1362.27 2346.54 -1368.2 2343.38 -1358.09 2337.77 -1362.27"/></g><g id="edge27" class="edge"><title>11-&gt;10</title><path fill="none" stroke="#000" d="M2082.25,-1159.36C2045.29,-1192.66 1997.48,-1233.94 1950.54,-1264.6 1934.6,-1275.02 1917.91,-1285.18 1900.86,-1295.02"/><polygon fill="#000" stroke="#000" points="1900.61 -1295.15 1897.38 -1301.6 1890.19 -1301.1 1893.42 -1294.65 1900.61 -1295.15"/></g><g id="edge24" class="edge"><title>11-&gt;19</title><path fill="none" stroke="#000" stroke-dasharray="5 2" d="M2141.18,-1159.46C2128.34,-1269.48 2107.19,-1504.51 2151.54,-1569.6 2211.49,-1657.59 2320.44,-1704.02 2417.81,-1728.53"/><polygon fill="#000" stroke="#000" points="2417.26 -1732 2427.8 -1730.98 2418.92 -1725.2 2417.26 -1732"/></g><g id="edge28" class="edge"><title>12-&gt;10</title><path fill="none" stroke="#000" d="M1729.33,-1184.87C1713.54,-1216.66 1695.04,-1253.91 1677.22,-1289.79"/><polygon fill="#000" stroke="#000" points="1677.05 -1290.12 1677.97 -1297.28 1671.71 -1300.87 1670.8 -1293.72 1677.05 -1290.12"/></g><g id="edge29" class="edge"><title>13-&gt;10</title><path fill="none" stroke="#000" d="M1391.58,-1150.92C1419.63,-1188.05 1459.69,-1241.07 1497.57,-1291.2"/><polygon fill="#000" stroke="#000" points="1497.63 -1291.28 1504.44 -1293.66 1504.87 -1300.86 1498.06 -1298.48 1497.63 -1291.28"/></g><g id="edge26" class="edge"><title>13-&gt;18</title><path fill="none" stroke="#000" stroke-dasharray="5 2" d="M1301.43,-1150.9C1263.56,-1184.71 1210.67,-1229.67 1160.54,-1264.6 1134.08,-1283.04 1124.95,-1283.61 1097.54,-1300.6 1057.44,-1325.46 1013.82,-1354.5 977.66,-1379.13"/><polygon fill="#000" stroke="#000" points="975.4 -1376.43 969.11 -1384.96 979.35 -1382.21 975.4 -1376.43"/></g><g id="edge32" class="edge"><title>10-&gt;11</title><path fill="none" stroke="#000" stroke-dasharray="5 2" d="M1908.15,-1301.1C1928.96,-1289.38 1949.29,-1277.18 1968.54,-1264.6 2012.18,-1236.09 2056.57,-1198.41 2090.43,-1166.49"/><polygon fill="#000" stroke="#000" points="2093.09 -1168.79 2097.92 -1159.36 2088.27 -1163.72 2093.09 -1168.79"/></g><g id="edge30" class="edge"><title>10-&gt;16</title><path fill="none" stroke="#000" stroke-dasharray="5 2" d="M1145.72,-1569.18C1029.96,-1602.68 908.6,-1637.8 802.78,-1668.43"/><polygon fill="none" stroke="#000" points="799.62 -1658.41 773.72 -1676.84 805.46 -1678.58 799.62 -1658.41"/></g><g id="edge31" class="edge"><title>10-&gt;19</title><path fill="none" stroke="#000" stroke-dasharray="5 2" d="M2026.24,-1569.18C2162.03,-1612.13 2306.22,-1657.74 2418.1,-1693.13"/><polygon fill="#000" stroke="#000" points="2417.21 -1696.52 2427.8 -1696.2 2419.32 -1689.84 2417.21 -1696.52"/></g><g id="edge33" class="edge"><title>15-&gt;14</title><path fill="none" stroke="#000" d="M3432.29,-1159.39C3430.42,-1216.28 3430.3,-1303.46 3431.92,-1364.3"/><polygon fill="#000" stroke="#000" points="3431.93 -1364.49 3436.1 -1370.37 3432.28 -1376.48 3428.11 -1370.6 3431.93 -1364.49"/></g><g id="edge35" class="edge"><title>14-&gt;15</title><path fill="none" stroke="#000" stroke-dasharray="5 2" d="M3442.8,-1376.48C3444.68,-1318.95 3444.78,-1230.54 3443.1,-1169.66"/><polygon fill="#000" stroke="#000" points="3446.59 -1169.28 3442.79 -1159.39 3439.6 -1169.49 3446.59 -1169.28"/></g><g id="edge34" class="edge"><title>14-&gt;19</title><path fill="none" stroke="#000" stroke-dasharray="5 2" d="M3289.81,-1493.64C3157.11,-1545.33 2961.21,-1621.64 2814.89,-1678.64"/><polygon fill="#000" stroke="#000" points="2813.38 -1675.47 2805.33 -1682.36 2815.92 -1681.99 2813.38 -1675.47"/></g><g id="edge36" class="edge"><title>17-&gt;16</title><path fill="none" stroke="#000" d="M494.73,-1510.68C494.12,-1535.74 493.81,-1564.76 493.79,-1593.87"/><polygon fill="#000" stroke="#000" points="493.79 -1593.9 497.8 -1599.89 493.8 -1605.9 489.8 -1599.9 493.79 -1593.9"/></g><g id="edge37" class="edge"><title>18-&gt;16</title><path fill="none" stroke="#000" d="M837.22,-1485.37C799.15,-1515.96 747.88,-1557.16 696.84,-1598.17"/><polygon fill="#000" stroke="#000" points="696.67 -1598.3 694.5 -1605.18 687.32 -1605.82 689.49 -1598.94 696.67 -1598.3"/></g><g id="edge38" class="edge"><title>16-&gt;17</title><path fill="none" stroke="#000" stroke-dasharray="5 2" d="M507.28,-1605.9C507.35,-1576.7 507.11,-1547.07 506.58,-1520.9"/><polygon fill="#000" stroke="#000" points="510.07 -1520.59 506.35 -1510.68 503.08 -1520.75 510.07 -1520.59"/></g><g id="edge39" class="edge"><title>20-&gt;19</title><path fill="none" stroke="#000" stroke-dasharray="5 2" d="M2780.34,-1518.87C2758.44,-1550.57 2732.86,-1587.58 2708.51,-1622.81"/><polygon fill="#000" stroke="#000" points="2705.49 -1621.03 2702.68 -1631.24 2711.25 -1625.01 2705.49 -1621.03"/></g></g></svg>