<svg xmlns="http://www.w3.org/2000/svg" xmlns:xlink="http://www.w3.org/1999/xlink" width="728pt" height="397pt" viewBox="0 0 727.76 397.2"><g id="graph0" class="graph" transform="scale(1 1) rotate(0) translate(4 393.2)"><title>UmlClassDiagram</title><polygon fill="#fff" stroke="transparent" points="-4 4 -4 -393.2 723.76 -393.2 723.76 4 -4 4"/><g id="node1" class="node"><title>8</title><polygon fill="#f2f2f2" stroke="#000" points="0 -.5 0 -100.5 719.76 -100.5 719.76 -.5 0 -.5"/><text x="359.88" y="-83.9" font-family="Times,serif" font-size="14" text-anchor="middle">&lt;&lt;Interface&gt;&gt;</text><text x="359.88" y="-67.1" font-family="Times,serif" font-size="14" text-anchor="middle">IAccount</text><text x="359.88" y="-50.3" font-family="Times,serif" font-size="14" text-anchor="middle">../../../account-abstraction/contracts/interfaces/IAccount.sol</text><polyline fill="none" stroke="#000" points="0 -42.1 719.76 -42.1"/><text x="8" y="-25.5" font-family="Times,serif" font-size="14" text-anchor="start">External:</text><text x="8" y="-8.7" font-family="Times,serif" font-size="14" text-anchor="start">validateUserOp(userOp: UserOperation, userOpHash: bytes32, missingAccountFunds: uint256): (validationData: uint256)</text></g><g id="node2" class="node"><title>19</title><polygon fill="#f2f2f2" stroke="#000" points="171.31 -137.5 171.31 -388.7 548.45 -388.7 548.45 -137.5 171.31 -137.5"/><text x="359.88" y="-372.1" font-family="Times,serif" font-size="14" text-anchor="middle">&lt;&lt;Struct&gt;&gt;</text><text x="359.88" y="-355.3" font-family="Times,serif" font-size="14" text-anchor="middle">UserOperation</text><text x="359.88" y="-338.5" font-family="Times,serif" font-size="14" text-anchor="middle">../../../account-abstraction/contracts/interfaces/UserOperation.sol</text><polyline fill="none" stroke="#000" points="171.31 -330.3 548.45 -330.3"/><text x="179.31" y="-313.7" font-family="Times,serif" font-size="14" text-anchor="start">sender: address</text><text x="179.31" y="-296.9" font-family="Times,serif" font-size="14" text-anchor="start">nonce: uint256</text><text x="179.31" y="-280.1" font-family="Times,serif" font-size="14" text-anchor="start">initCode: bytes</text><text x="179.31" y="-263.3" font-family="Times,serif" font-size="14" text-anchor="start">callData: bytes</text><text x="179.31" y="-246.5" font-family="Times,serif" font-size="14" text-anchor="start">callGasLimit: uint256</text><text x="179.31" y="-229.7" font-family="Times,serif" font-size="14" text-anchor="start">verificationGasLimit: uint256</text><text x="179.31" y="-212.9" font-family="Times,serif" font-size="14" text-anchor="start">preVerificationGas: uint256</text><text x="179.31" y="-196.1" font-family="Times,serif" font-size="14" text-anchor="start">maxFeePerGas: uint256</text><text x="179.31" y="-179.3" font-family="Times,serif" font-size="14" text-anchor="start">maxPriorityFeePerGas: uint256</text><text x="179.31" y="-162.5" font-family="Times,serif" font-size="14" text-anchor="start">paymasterAndData: bytes</text><text x="179.31" y="-145.7" font-family="Times,serif" font-size="14" text-anchor="start">signature: bytes</text></g><g id="edge1" class="edge"><title>8-&gt;19</title><path fill="none" stroke="#000" stroke-dasharray="5 2" d="M359.88,-100.61C359.88,-108.91 359.88,-117.87 359.88,-127.17"/><polygon fill="#000" stroke="#000" points="356.38 -127.37 359.88 -137.37 363.38 -127.37 356.38 -127.37"/></g></g></svg>