<svg xmlns="http://www.w3.org/2000/svg" xmlns:xlink="http://www.w3.org/1999/xlink" width="7176" height="2263pt" viewBox="0 0 5382.48 2262.8"><g id="graph0" class="graph" transform="scale(1 1) rotate(0) translate(4 2258.8)"><title>UmlClassDiagram</title><polygon fill="#fff" stroke="transparent" points="-4 4 -4 -2258.8 5378.48 -2258.8 5378.48 4 -4 4"/><g id="node1" class="node"><title>0</title><polygon fill="#f2f2f2" stroke="#000" points="2140.84 -1301.1 2140.84 -1812.3 2563.91 -1812.3 2563.91 -1301.1 2140.84 -1301.1"/><text x="2352.38" y="-1795.7" font-family="Times,serif" font-size="14" text-anchor="middle">ERC20</text><text x="2352.38" y="-1778.9" font-family="Times,serif" font-size="14" text-anchor="middle">node_modules/@openzeppelin/contracts/token/ERC20/ERC20.sol</text><polyline fill="none" stroke="#000" points="2140.84 -1770.7 2563.91 -1770.7"/><text x="2148.84" y="-1754.1" font-family="Times,serif" font-size="14" text-anchor="start">Private:</text><text x="2148.84" y="-1737.3" font-family="Times,serif" font-size="14" text-anchor="start">_balances: mapping(address=&gt;uint256)</text><text x="2148.84" y="-1720.5" font-family="Times,serif" font-size="14" text-anchor="start">_allowances: mapping(address=&gt;mapping(address=&gt;uint256))</text><text x="2148.84" y="-1703.7" font-family="Times,serif" font-size="14" text-anchor="start">_totalSupply: uint256</text><text x="2148.84" y="-1686.9" font-family="Times,serif" font-size="14" text-anchor="start">_name: string</text><text x="2148.84" y="-1670.1" font-family="Times,serif" font-size="14" text-anchor="start">_symbol: string</text><polyline fill="none" stroke="#000" points="2140.84 -1661.9 2563.91 -1661.9"/><text x="2148.84" y="-1645.3" font-family="Times,serif" font-size="14" text-anchor="start">Internal:</text><text x="2148.84" y="-1628.5" font-family="Times,serif" font-size="14" text-anchor="start">_transfer(from: address, to: address, amount: uint256)</text><text x="2148.84" y="-1611.7" font-family="Times,serif" font-size="14" text-anchor="start">_mint(account: address, amount: uint256)</text><text x="2148.84" y="-1594.9" font-family="Times,serif" font-size="14" text-anchor="start">_burn(account: address, amount: uint256)</text><text x="2148.84" y="-1578.1" font-family="Times,serif" font-size="14" text-anchor="start">_approve(owner: address, spender: address, amount: uint256)</text><text x="2148.84" y="-1561.3" font-family="Times,serif" font-size="14" text-anchor="start">_spendAllowance(owner: address, spender: address, amount: uint256)</text><text x="2148.84" y="-1544.5" font-family="Times,serif" font-size="14" text-anchor="start">_beforeTokenTransfer(from: address, to: address, amount: uint256)</text><text x="2148.84" y="-1527.7" font-family="Times,serif" font-size="14" text-anchor="start">_afterTokenTransfer(from: address, to: address, amount: uint256)</text><text x="2148.84" y="-1510.9" font-family="Times,serif" font-size="14" text-anchor="start">Public:</text><text x="2148.84" y="-1494.1" font-family="Times,serif" font-size="14" text-anchor="start">constructor(name_: string, symbol_: string)</text><text x="2148.84" y="-1477.3" font-family="Times,serif" font-size="14" text-anchor="start">name(): string</text><text x="2148.84" y="-1460.5" font-family="Times,serif" font-size="14" text-anchor="start">symbol(): string</text><text x="2148.84" y="-1443.7" font-family="Times,serif" font-size="14" text-anchor="start">decimals(): uint8</text><text x="2148.84" y="-1426.9" font-family="Times,serif" font-size="14" text-anchor="start">totalSupply(): uint256</text><text x="2148.84" y="-1410.1" font-family="Times,serif" font-size="14" text-anchor="start">balanceOf(account: address): uint256</text><text x="2148.84" y="-1393.3" font-family="Times,serif" font-size="14" text-anchor="start">transfer(to: address, amount: uint256): bool</text><text x="2148.84" y="-1376.5" font-family="Times,serif" font-size="14" text-anchor="start">allowance(owner: address, spender: address): uint256</text><text x="2148.84" y="-1359.7" font-family="Times,serif" font-size="14" text-anchor="start">approve(spender: address, amount: uint256): bool</text><text x="2148.84" y="-1342.9" font-family="Times,serif" font-size="14" text-anchor="start">transferFrom(from: address, to: address, amount: uint256): bool</text><text x="2148.84" y="-1326.1" font-family="Times,serif" font-size="14" text-anchor="start">increaseAllowance(spender: address, addedValue: uint256): bool</text><text x="2148.84" y="-1309.3" font-family="Times,serif" font-size="14" text-anchor="start">decreaseAllowance(spender: address, subtractedValue: uint256): bool</text></g><g id="node2" class="node"><title>1</title><polygon fill="#f2f2f2" stroke="#000" points="1868.69 -2019.9 1868.69 -2254.3 2298.06 -2254.3 2298.06 -2019.9 1868.69 -2019.9"/><text x="2083.38" y="-2237.7" font-family="Times,serif" font-size="14" text-anchor="middle">&lt;&lt;Interface&gt;&gt;</text><text x="2083.38" y="-2220.9" font-family="Times,serif" font-size="14" text-anchor="middle">IERC20</text><text x="2083.38" y="-2204.1" font-family="Times,serif" font-size="14" text-anchor="middle">node_modules/@openzeppelin/contracts/token/ERC20/IERC20.sol</text><polyline fill="none" stroke="#000" points="1868.69 -2195.9 2298.06 -2195.9"/><text x="1876.69" y="-2179.3" font-family="Times,serif" font-size="14" text-anchor="start">External:</text><text x="1876.69" y="-2162.5" font-family="Times,serif" font-size="14" text-anchor="start">totalSupply(): uint256</text><text x="1876.69" y="-2145.7" font-family="Times,serif" font-size="14" text-anchor="start">balanceOf(account: address): uint256</text><text x="1876.69" y="-2128.9" font-family="Times,serif" font-size="14" text-anchor="start">transfer(to: address, amount: uint256): bool</text><text x="1876.69" y="-2112.1" font-family="Times,serif" font-size="14" text-anchor="start">allowance(owner: address, spender: address): uint256</text><text x="1876.69" y="-2095.3" font-family="Times,serif" font-size="14" text-anchor="start">approve(spender: address, amount: uint256): bool</text><text x="1876.69" y="-2078.5" font-family="Times,serif" font-size="14" text-anchor="start">transferFrom(from: address, to: address, amount: uint256): bool</text><text x="1876.69" y="-2061.7" font-family="Times,serif" font-size="14" text-anchor="start">Public:</text><text x="1876.69" y="-2044.9" font-family="Times,serif" font-size="14" text-anchor="start">&lt;&lt;event&gt;&gt; Transfer(from: address, to: address, value: uint256)</text><text x="1876.69" y="-2028.1" font-family="Times,serif" font-size="14" text-anchor="start">&lt;&lt;event&gt;&gt; Approval(owner: address, spender: address, value: uint256)</text></g><g id="edge1" class="edge"><title>0-&gt;1</title><path fill="none" stroke="#000" stroke-dasharray="5 2" d="M2390.1,-1812.58C2387.99,-1871.84 2376.19,-1932.44 2346.38,-1983.4 2338.97,-1996.05 2330.09,-2007.75 2320.12,-2018.56"/><polygon fill="none" stroke="#000" points="2312.66 -2011.17 2298.28 -2039.52 2327.2 -2026.32 2312.66 -2011.17"/></g><g id="node14" class="node"><title>13</title><polygon fill="#f2f2f2" stroke="#000" points="1829.23 -1849.3 1829.23 -1982.9 2337.52 -1982.9 2337.52 -1849.3 1829.23 -1849.3"/><text x="2083.38" y="-1966.3" font-family="Times,serif" font-size="14" text-anchor="middle">&lt;&lt;Interface&gt;&gt;</text><text x="2083.38" y="-1949.5" font-family="Times,serif" font-size="14" text-anchor="middle">IERC20Metadata</text><text x="2083.38" y="-1932.7" font-family="Times,serif" font-size="14" text-anchor="middle">node_modules/@openzeppelin/contracts/token/ERC20/extensions/IERC20Metadata.sol</text><polyline fill="none" stroke="#000" points="1829.23 -1924.5 2337.52 -1924.5"/><text x="1837.23" y="-1907.9" font-family="Times,serif" font-size="14" text-anchor="start">External:</text><text x="1837.23" y="-1891.1" font-family="Times,serif" font-size="14" text-anchor="start">name(): string</text><text x="1837.23" y="-1874.3" font-family="Times,serif" font-size="14" text-anchor="start">symbol(): string</text><text x="1837.23" y="-1857.5" font-family="Times,serif" font-size="14" text-anchor="start">decimals(): uint8</text></g><g id="edge2" class="edge"><title>0-&gt;13</title><path fill="none" stroke="#000" stroke-dasharray="5 2" d="M2160.46,-1812.68C2157.26,-1816.94 2154.11,-1821.12 2151.02,-1825.23"/><polygon fill="none" stroke="#000" points="2142.58 -1818.98 2132.93 -1849.26 2159.36 -1831.6 2142.58 -1818.98"/></g><g id="node3" class="node"><title>2</title><polygon fill="#f2f2f2" stroke="#000" points="3200.94 -941.7 3200.94 -1058.5 3703.81 -1058.5 3703.81 -941.7 3200.94 -941.7"/><text x="3452.38" y="-1041.9" font-family="Times,serif" font-size="14" text-anchor="middle">&lt;&lt;Abstract&gt;&gt;</text><text x="3452.38" y="-1025.1" font-family="Times,serif" font-size="14" text-anchor="middle">ERC20Burnable</text><text x="3452.38" y="-1008.3" font-family="Times,serif" font-size="14" text-anchor="middle">node_modules/@openzeppelin/contracts/token/ERC20/extensions/ERC20Burnable.sol</text><polyline fill="none" stroke="#000" points="3200.94 -1000.1 3703.81 -1000.1"/><text x="3208.94" y="-983.5" font-family="Times,serif" font-size="14" text-anchor="start">Public:</text><text x="3208.94" y="-966.7" font-family="Times,serif" font-size="14" text-anchor="start">burn(amount: uint256)</text><text x="3208.94" y="-949.9" font-family="Times,serif" font-size="14" text-anchor="start">burnFrom(account: address, amount: uint256)</text></g><g id="edge3" class="edge"><title>2-&gt;0</title><path fill="none" stroke="#000" d="M3409.01,-1058.57C3361.66,-1117.72 3280.7,-1208.88 3192.38,-1264.6 3006.94,-1381.6 2768.64,-1458.39 2593.24,-1503.56"/><polygon fill="none" stroke="#000" points="2590.52 -1493.42 2564.01 -1510.95 2595.67 -1513.78 2590.52 -1493.42"/></g><g id="node4" class="node"><title>3</title><polygon fill="#f2f2f2" stroke="#000" points="2093.22 -904.1 2093.22 -1096.1 2587.53 -1096.1 2587.53 -904.1 2093.22 -904.1"/><text x="2340.38" y="-1079.5" font-family="Times,serif" font-size="14" text-anchor="middle">&lt;&lt;Abstract&gt;&gt;</text><text x="2340.38" y="-1062.7" font-family="Times,serif" font-size="14" text-anchor="middle">ERC20Capped</text><text x="2340.38" y="-1045.9" font-family="Times,serif" font-size="14" text-anchor="middle">node_modules/@openzeppelin/contracts/token/ERC20/extensions/ERC20Capped.sol</text><polyline fill="none" stroke="#000" points="2093.22 -1037.7 2587.53 -1037.7"/><text x="2101.22" y="-1021.1" font-family="Times,serif" font-size="14" text-anchor="start">Private:</text><text x="2101.22" y="-1004.3" font-family="Times,serif" font-size="14" text-anchor="start">_cap: uint256</text><polyline fill="none" stroke="#000" points="2093.22 -996.1 2587.53 -996.1"/><text x="2101.22" y="-979.5" font-family="Times,serif" font-size="14" text-anchor="start">Internal:</text><text x="2101.22" y="-962.7" font-family="Times,serif" font-size="14" text-anchor="start">_mint(account: address, amount: uint256)</text><text x="2101.22" y="-945.9" font-family="Times,serif" font-size="14" text-anchor="start">Public:</text><text x="2101.22" y="-929.1" font-family="Times,serif" font-size="14" text-anchor="start">constructor(cap_: uint256)</text><text x="2101.22" y="-912.3" font-family="Times,serif" font-size="14" text-anchor="start">cap(): uint256</text></g><g id="edge4" class="edge"><title>3-&gt;0</title><path fill="none" stroke="#000" d="M2342.43,-1096.12C2343.49,-1145.16 2344.85,-1207.85 2346.22,-1271.04"/><polygon fill="none" stroke="#000" points="2335.72 -1271.29 2346.87 -1301.05 2356.71 -1270.83 2335.72 -1271.29"/></g><g id="node5" class="node"><title>4</title><polygon fill="#f2f2f2" stroke="#000" points="2605.47 -895.7 2605.47 -1104.5 3183.29 -1104.5 3183.29 -895.7 2605.47 -895.7"/><text x="2894.38" y="-1087.9" font-family="Times,serif" font-size="14" text-anchor="middle">&lt;&lt;Abstract&gt;&gt;</text><text x="2894.38" y="-1071.1" font-family="Times,serif" font-size="14" text-anchor="middle">ERC20FlashMint</text><text x="2894.38" y="-1054.3" font-family="Times,serif" font-size="14" text-anchor="middle">node_modules/@openzeppelin/contracts/token/ERC20/extensions/ERC20FlashMint.sol</text><polyline fill="none" stroke="#000" points="2605.47 -1046.1 3183.29 -1046.1"/><text x="2613.47" y="-1029.5" font-family="Times,serif" font-size="14" text-anchor="start">Private:</text><text x="2613.47" y="-1012.7" font-family="Times,serif" font-size="14" text-anchor="start">_RETURN_VALUE: bytes32</text><polyline fill="none" stroke="#000" points="2605.47 -1004.5 3183.29 -1004.5"/><text x="2613.47" y="-987.9" font-family="Times,serif" font-size="14" text-anchor="start">Internal:</text><text x="2613.47" y="-971.1" font-family="Times,serif" font-size="14" text-anchor="start">_flashFeeReceiver(): address</text><text x="2613.47" y="-954.3" font-family="Times,serif" font-size="14" text-anchor="start">Public:</text><text x="2613.47" y="-937.5" font-family="Times,serif" font-size="14" text-anchor="start">maxFlashLoan(token: address): uint256</text><text x="2613.47" y="-920.7" font-family="Times,serif" font-size="14" text-anchor="start">flashFee(token: address, amount: uint256): uint256</text><text x="2613.47" y="-903.9" font-family="Times,serif" font-size="14" text-anchor="start">flashLoan(receiver: IERC3156FlashBorrower, token: address, amount: uint256, data: bytes): bool</text></g><g id="edge5" class="edge"><title>4-&gt;0</title><path fill="none" stroke="#000" d="M2793.07,-1104.77C2734.43,-1164.76 2658.07,-1242.9 2585.42,-1317.24"/><polygon fill="none" stroke="#000" points="2577.49 -1310.33 2564.03 -1339.12 2592.51 -1325.01 2577.49 -1310.33"/></g><g id="node6" class="node"><title>5</title><polygon fill="#f2f2f2" stroke="#000" points="1573.72 -950.1 1573.72 -1050.1 2075.03 -1050.1 2075.03 -950.1 1573.72 -950.1"/><text x="1824.38" y="-1033.5" font-family="Times,serif" font-size="14" text-anchor="middle">&lt;&lt;Abstract&gt;&gt;</text><text x="1824.38" y="-1016.7" font-family="Times,serif" font-size="14" text-anchor="middle">ERC20Pausable</text><text x="1824.38" y="-999.9" font-family="Times,serif" font-size="14" text-anchor="middle">node_modules/@openzeppelin/contracts/token/ERC20/extensions/ERC20Pausable.sol</text><polyline fill="none" stroke="#000" points="1573.72 -991.7 2075.03 -991.7"/><text x="1581.72" y="-975.1" font-family="Times,serif" font-size="14" text-anchor="start">Internal:</text><text x="1581.72" y="-958.3" font-family="Times,serif" font-size="14" text-anchor="start">_beforeTokenTransfer(from: address, to: address, amount: uint256)</text></g><g id="edge6" class="edge"><title>5-&gt;0</title><path fill="none" stroke="#000" d="M1871.23,-1050.32C1927.61,-1109.53 2026.36,-1213.26 2119.79,-1311.4"/><polygon fill="none" stroke="#000" points="2112.27 -1318.73 2140.57 -1333.22 2127.48 -1304.25 2112.27 -1318.73"/></g><g id="node7" class="node"><title>7</title><polygon fill="#f2f2f2" stroke="#000" points="4368.93 -1506.7 4368.93 -1606.7 4871.82 -1606.7 4871.82 -1506.7 4368.93 -1506.7"/><text x="4620.38" y="-1590.1" font-family="Times,serif" font-size="14" text-anchor="middle">&lt;&lt;Struct&gt;&gt;</text><text x="4620.38" y="-1573.3" font-family="Times,serif" font-size="14" text-anchor="middle">Snapshots</text><text x="4620.38" y="-1556.5" font-family="Times,serif" font-size="14" text-anchor="middle">node_modules/@openzeppelin/contracts/token/ERC20/extensions/ERC20Snapshot.sol</text><polyline fill="none" stroke="#000" points="4368.93 -1548.3 4871.82 -1548.3"/><text x="4376.93" y="-1531.7" font-family="Times,serif" font-size="14" text-anchor="start">ids: uint256[]</text><text x="4376.93" y="-1514.9" font-family="Times,serif" font-size="14" text-anchor="start">values: uint256[]</text></g><g id="node8" class="node"><title>6</title><polygon fill="#f2f2f2" stroke="#000" points="4368.93 -811.7 4368.93 -1188.5 4871.82 -1188.5 4871.82 -811.7 4368.93 -811.7"/><text x="4620.38" y="-1171.9" font-family="Times,serif" font-size="14" text-anchor="middle">&lt;&lt;Abstract&gt;&gt;</text><text x="4620.38" y="-1155.1" font-family="Times,serif" font-size="14" text-anchor="middle">ERC20Snapshot</text><text x="4620.38" y="-1138.3" font-family="Times,serif" font-size="14" text-anchor="middle">node_modules/@openzeppelin/contracts/token/ERC20/extensions/ERC20Snapshot.sol</text><polyline fill="none" stroke="#000" points="4368.93 -1130.1 4871.82 -1130.1"/><text x="4376.93" y="-1113.5" font-family="Times,serif" font-size="14" text-anchor="start">Private:</text><text x="4376.93" y="-1096.7" font-family="Times,serif" font-size="14" text-anchor="start">_accountBalanceSnapshots: mapping(address=&gt;Snapshots)</text><text x="4376.93" y="-1079.9" font-family="Times,serif" font-size="14" text-anchor="start">_totalSupplySnapshots: Snapshots</text><text x="4376.93" y="-1063.1" font-family="Times,serif" font-size="14" text-anchor="start">_currentSnapshotId: Counters.Counter</text><polyline fill="none" stroke="#000" points="4368.93 -1054.9 4871.82 -1054.9"/><text x="4376.93" y="-1038.3" font-family="Times,serif" font-size="14" text-anchor="start">Private:</text><text x="4376.93" y="-1021.5" font-family="Times,serif" font-size="14" text-anchor="start">_valueAt(snapshotId: uint256, snapshots: Snapshots): (bool, uint256)</text><text x="4376.93" y="-1004.7" font-family="Times,serif" font-size="14" text-anchor="start">_updateAccountSnapshot(account: address)</text><text x="4376.93" y="-987.9" font-family="Times,serif" font-size="14" text-anchor="start">_updateTotalSupplySnapshot()</text><text x="4376.93" y="-971.1" font-family="Times,serif" font-size="14" text-anchor="start">_updateSnapshot(snapshots: Snapshots, currentValue: uint256)</text><text x="4376.93" y="-954.3" font-family="Times,serif" font-size="14" text-anchor="start">_lastSnapshotId(ids: uint256[]): uint256</text><text x="4376.93" y="-937.5" font-family="Times,serif" font-size="14" text-anchor="start">Internal:</text><text x="4376.93" y="-920.7" font-family="Times,serif" font-size="14" text-anchor="start">_snapshot(): uint256</text><text x="4376.93" y="-903.9" font-family="Times,serif" font-size="14" text-anchor="start">_getCurrentSnapshotId(): uint256</text><text x="4376.93" y="-887.1" font-family="Times,serif" font-size="14" text-anchor="start">_beforeTokenTransfer(from: address, to: address, amount: uint256)</text><text x="4376.93" y="-870.3" font-family="Times,serif" font-size="14" text-anchor="start">Public:</text><text x="4376.93" y="-853.5" font-family="Times,serif" font-size="14" text-anchor="start">&lt;&lt;event&gt;&gt; Snapshot(id: uint256)</text><text x="4376.93" y="-836.7" font-family="Times,serif" font-size="14" text-anchor="start">balanceOfAt(account: address, snapshotId: uint256): uint256</text><text x="4376.93" y="-819.9" font-family="Times,serif" font-size="14" text-anchor="start">totalSupplyAt(snapshotId: uint256): uint256</text></g><g id="edge7" class="edge"><title>7-&gt;6</title><path fill="none" stroke="#000" d="M4624.42,-1506.64C4626.76,-1438.44 4627.58,-1311 4626.89,-1201.14"/><polygon fill="#000" stroke="#000" points="4626.89 -1200.86 4622.84 -1194.89 4626.8 -1188.86 4630.84 -1194.83 4626.89 -1200.86"/></g><g id="edge8" class="edge"><title>6-&gt;0</title><path fill="none" stroke="#000" d="M4465.91,-1188.8C4433.59,-1218.27 4397.61,-1245.32 4359.38,-1264.6 4054.34,-1418.44 3058.43,-1506.32 2594.39,-1539.84"/><polygon fill="none" stroke="#000" points="2593.45 -1529.38 2564.27 -1541.99 2594.95 -1550.33 2593.45 -1529.38"/></g><g id="edge9" class="edge"><title>6-&gt;7</title><path fill="none" stroke="#000" d="M4613.95,-1188.86C4613.15,-1296.09 4613.83,-1423.32 4616,-1496.27"/><polygon fill="#000" stroke="#000" points="4612.52 -1496.75 4616.33 -1506.64 4619.51 -1496.53 4612.52 -1496.75"/></g><g id="node9" class="node"><title>9</title><polygon fill="#f2f2f2" stroke="#000" points="4890.27 -950.1 4890.27 -1050.1 5374.48 -1050.1 5374.48 -950.1 4890.27 -950.1"/><text x="5132.38" y="-1033.5" font-family="Times,serif" font-size="14" text-anchor="middle">&lt;&lt;Struct&gt;&gt;</text><text x="5132.38" y="-1016.7" font-family="Times,serif" font-size="14" text-anchor="middle">Checkpoint</text><text x="5132.38" y="-999.9" font-family="Times,serif" font-size="14" text-anchor="middle">node_modules/@openzeppelin/contracts/token/ERC20/extensions/ERC20Votes.sol</text><polyline fill="none" stroke="#000" points="4890.27 -991.7 5374.48 -991.7"/><text x="4898.27" y="-975.1" font-family="Times,serif" font-size="14" text-anchor="start">fromBlock: uint32</text><text x="4898.27" y="-958.3" font-family="Times,serif" font-size="14" text-anchor="start">votes: uint224</text></g><g id="node10" class="node"><title>8</title><polygon fill="#f2f2f2" stroke="#000" points="4252.28 -187.9 4252.28 -699.1 4984.47 -699.1 4984.47 -187.9 4252.28 -187.9"/><text x="4618.38" y="-682.5" font-family="Times,serif" font-size="14" text-anchor="middle">&lt;&lt;Abstract&gt;&gt;</text><text x="4618.38" y="-665.7" font-family="Times,serif" font-size="14" text-anchor="middle">ERC20Votes</text><text x="4618.38" y="-648.9" font-family="Times,serif" font-size="14" text-anchor="middle">node_modules/@openzeppelin/contracts/token/ERC20/extensions/ERC20Votes.sol</text><polyline fill="none" stroke="#000" points="4252.28 -640.7 4984.47 -640.7"/><text x="4260.28" y="-624.1" font-family="Times,serif" font-size="14" text-anchor="start">Private:</text><text x="4260.28" y="-607.3" font-family="Times,serif" font-size="14" text-anchor="start">_DELEGATION_TYPEHASH: bytes32</text><text x="4260.28" y="-590.5" font-family="Times,serif" font-size="14" text-anchor="start">_delegates: mapping(address=&gt;address)</text><text x="4260.28" y="-573.7" font-family="Times,serif" font-size="14" text-anchor="start">_checkpoints: mapping(address=&gt;Checkpoint[])</text><text x="4260.28" y="-556.9" font-family="Times,serif" font-size="14" text-anchor="start">_totalSupplyCheckpoints: Checkpoint[]</text><polyline fill="none" stroke="#000" points="4252.28 -548.7 4984.47 -548.7"/><text x="4260.28" y="-532.1" font-family="Times,serif" font-size="14" text-anchor="start">Private:</text><text x="4260.28" y="-515.3" font-family="Times,serif" font-size="14" text-anchor="start">_checkpointsLookup(ckpts: Checkpoint[], blockNumber: uint256): uint256</text><text x="4260.28" y="-498.5" font-family="Times,serif" font-size="14" text-anchor="start">_moveVotingPower(src: address, dst: address, amount: uint256)</text><text x="4260.28" y="-481.7" font-family="Times,serif" font-size="14" text-anchor="start">_writeCheckpoint(ckpts: Checkpoint[], op: FunctionTypeName(), delta: uint256): (oldWeight: uint256, newWeight: uint256)</text><text x="4260.28" y="-464.9" font-family="Times,serif" font-size="14" text-anchor="start">_add(a: uint256, b: uint256): uint256</text><text x="4260.28" y="-448.1" font-family="Times,serif" font-size="14" text-anchor="start">_subtract(a: uint256, b: uint256): uint256</text><text x="4260.28" y="-431.3" font-family="Times,serif" font-size="14" text-anchor="start">Internal:</text><text x="4260.28" y="-414.5" font-family="Times,serif" font-size="14" text-anchor="start">_maxSupply(): uint224</text><text x="4260.28" y="-397.7" font-family="Times,serif" font-size="14" text-anchor="start">_mint(account: address, amount: uint256)</text><text x="4260.28" y="-380.9" font-family="Times,serif" font-size="14" text-anchor="start">_burn(account: address, amount: uint256)</text><text x="4260.28" y="-364.1" font-family="Times,serif" font-size="14" text-anchor="start">_afterTokenTransfer(from: address, to: address, amount: uint256)</text><text x="4260.28" y="-347.3" font-family="Times,serif" font-size="14" text-anchor="start">_delegate(delegator: address, delegatee: address)</text><text x="4260.28" y="-330.5" font-family="Times,serif" font-size="14" text-anchor="start">Public:</text><text x="4260.28" y="-313.7" font-family="Times,serif" font-size="14" text-anchor="start">checkpoints(account: address, pos: uint32): Checkpoint</text><text x="4260.28" y="-296.9" font-family="Times,serif" font-size="14" text-anchor="start">numCheckpoints(account: address): uint32</text><text x="4260.28" y="-280.1" font-family="Times,serif" font-size="14" text-anchor="start">delegates(account: address): address</text><text x="4260.28" y="-263.3" font-family="Times,serif" font-size="14" text-anchor="start">getVotes(account: address): uint256</text><text x="4260.28" y="-246.5" font-family="Times,serif" font-size="14" text-anchor="start">getPastVotes(account: address, blockNumber: uint256): uint256</text><text x="4260.28" y="-229.7" font-family="Times,serif" font-size="14" text-anchor="start">getPastTotalSupply(blockNumber: uint256): uint256</text><text x="4260.28" y="-212.9" font-family="Times,serif" font-size="14" text-anchor="start">delegate(delegatee: address)</text><text x="4260.28" y="-196.1" font-family="Times,serif" font-size="14" text-anchor="start">delegateBySig(delegatee: address, nonce: uint256, expiry: uint256, v: uint8, r: bytes32, s: bytes32)</text></g><g id="edge10" class="edge"><title>9-&gt;8</title><path fill="none" stroke="#000" d="M5091,-950.1C5041.69,-894.84 4955.27,-800.63 4869.7,-708.4"/><polygon fill="#000" stroke="#000" points="4869.58 -708.28 4862.57 -706.6 4861.42 -699.48 4868.43 -701.16 4869.58 -708.28"/></g><g id="edge12" class="edge"><title>8-&gt;9</title><path fill="none" stroke="#000" d="M4847.96,-699.48C4932.26,-790.61 5020.54,-884.98 5075.99,-942.87"/><polygon fill="#000" stroke="#000" points="5073.47 -945.3 5082.92 -950.1 5078.52 -940.46 5073.47 -945.3"/></g><g id="node15" class="node"><title>14</title><polygon fill="#f2f2f2" stroke="#000" points="3722.18 -862.1 3722.18 -1138.1 4350.57 -1138.1 4350.57 -862.1 3722.18 -862.1"/><text x="4036.38" y="-1121.5" font-family="Times,serif" font-size="14" text-anchor="middle">&lt;&lt;Abstract&gt;&gt;</text><text x="4036.38" y="-1104.7" font-family="Times,serif" font-size="14" text-anchor="middle">ERC20Permit</text><text x="4036.38" y="-1087.9" font-family="Times,serif" font-size="14" text-anchor="middle">node_modules/@openzeppelin/contracts/token/ERC20/extensions/draft-ERC20Permit.sol</text><polyline fill="none" stroke="#000" points="3722.18 -1079.7 4350.57 -1079.7"/><text x="3730.18" y="-1063.1" font-family="Times,serif" font-size="14" text-anchor="start">Private:</text><text x="3730.18" y="-1046.3" font-family="Times,serif" font-size="14" text-anchor="start">_nonces: mapping(address=&gt;Counters.Counter)</text><text x="3730.18" y="-1029.5" font-family="Times,serif" font-size="14" text-anchor="start">_PERMIT_TYPEHASH: bytes32</text><text x="3730.18" y="-1012.7" font-family="Times,serif" font-size="14" text-anchor="start">_PERMIT_TYPEHASH_DEPRECATED_SLOT: bytes32</text><polyline fill="none" stroke="#000" points="3722.18 -1004.5 4350.57 -1004.5"/><text x="3730.18" y="-987.9" font-family="Times,serif" font-size="14" text-anchor="start">Internal:</text><text x="3730.18" y="-971.1" font-family="Times,serif" font-size="14" text-anchor="start">_useNonce(owner: address): (current: uint256)</text><text x="3730.18" y="-954.3" font-family="Times,serif" font-size="14" text-anchor="start">External:</text><text x="3730.18" y="-937.5" font-family="Times,serif" font-size="14" text-anchor="start">DOMAIN_SEPARATOR(): bytes32</text><text x="3730.18" y="-920.7" font-family="Times,serif" font-size="14" text-anchor="start">Public:</text><text x="3730.18" y="-903.9" font-family="Times,serif" font-size="14" text-anchor="start">constructor(name: string)</text><text x="3730.18" y="-887.1" font-family="Times,serif" font-size="14" text-anchor="start">permit(owner: address, spender: address, value: uint256, deadline: uint256, v: uint8, r: bytes32, s: bytes32)</text><text x="3730.18" y="-870.3" font-family="Times,serif" font-size="14" text-anchor="start">nonces(owner: address): uint256</text></g><g id="edge11" class="edge"><title>8-&gt;14</title><path fill="none" stroke="#000" d="M4350.8,-699.48C4300.13,-747.76 4248.52,-796.95 4202.15,-841.14"/><polygon fill="none" stroke="#000" points="4194.66 -833.77 4180.18 -862.07 4209.14 -848.97 4194.66 -833.77"/></g><g id="node11" class="node"><title>10</title><polygon fill="#f2f2f2" stroke="#000" points="4359.16 -.5 4359.16 -150.9 4877.6 -150.9 4877.6 -.5 4359.16 -.5"/><text x="4618.38" y="-134.3" font-family="Times,serif" font-size="14" text-anchor="middle">&lt;&lt;Abstract&gt;&gt;</text><text x="4618.38" y="-117.5" font-family="Times,serif" font-size="14" text-anchor="middle">ERC20VotesComp</text><text x="4618.38" y="-100.7" font-family="Times,serif" font-size="14" text-anchor="middle">node_modules/@openzeppelin/contracts/token/ERC20/extensions/ERC20VotesComp.sol</text><polyline fill="none" stroke="#000" points="4359.16 -92.5 4877.6 -92.5"/><text x="4367.16" y="-75.9" font-family="Times,serif" font-size="14" text-anchor="start">Internal:</text><text x="4367.16" y="-59.1" font-family="Times,serif" font-size="14" text-anchor="start">_maxSupply(): uint224</text><text x="4367.16" y="-42.3" font-family="Times,serif" font-size="14" text-anchor="start">External:</text><text x="4367.16" y="-25.5" font-family="Times,serif" font-size="14" text-anchor="start">getCurrentVotes(account: address): uint96</text><text x="4367.16" y="-8.7" font-family="Times,serif" font-size="14" text-anchor="start">getPriorVotes(account: address, blockNumber: uint256): uint96</text></g><g id="edge13" class="edge"><title>10-&gt;8</title><path fill="none" stroke="#000" d="M4618.38,-151.17C4618.38,-153.21 4618.38,-155.29 4618.38,-157.39"/><polygon fill="none" stroke="#000" points="4607.88 -157.64 4618.38 -187.64 4628.88 -157.64 4607.88 -157.64"/></g><g id="node12" class="node"><title>11</title><polygon fill="#f2f2f2" stroke="#000" points="483.12 -887.3 483.12 -1112.9 983.63 -1112.9 983.63 -887.3 483.12 -887.3"/><text x="733.38" y="-1096.3" font-family="Times,serif" font-size="14" text-anchor="middle">&lt;&lt;Abstract&gt;&gt;</text><text x="733.38" y="-1079.5" font-family="Times,serif" font-size="14" text-anchor="middle">ERC20Wrapper</text><text x="733.38" y="-1062.7" font-family="Times,serif" font-size="14" text-anchor="middle">node_modules/@openzeppelin/contracts/token/ERC20/extensions/ERC20Wrapper.sol</text><polyline fill="none" stroke="#000" points="483.12 -1054.5 983.63 -1054.5"/><text x="491.12" y="-1037.9" font-family="Times,serif" font-size="14" text-anchor="start">Public:</text><text x="491.12" y="-1021.1" font-family="Times,serif" font-size="14" text-anchor="start">underlying: IERC20</text><polyline fill="none" stroke="#000" points="483.12 -1012.9 983.63 -1012.9"/><text x="491.12" y="-996.3" font-family="Times,serif" font-size="14" text-anchor="start">Internal:</text><text x="491.12" y="-979.5" font-family="Times,serif" font-size="14" text-anchor="start">_recover(account: address): uint256</text><text x="491.12" y="-962.7" font-family="Times,serif" font-size="14" text-anchor="start">Public:</text><text x="491.12" y="-945.9" font-family="Times,serif" font-size="14" text-anchor="start">constructor(underlyingToken: IERC20)</text><text x="491.12" y="-929.1" font-family="Times,serif" font-size="14" text-anchor="start">decimals(): uint8</text><text x="491.12" y="-912.3" font-family="Times,serif" font-size="14" text-anchor="start">depositFor(account: address, amount: uint256): bool</text><text x="491.12" y="-895.5" font-family="Times,serif" font-size="14" text-anchor="start">withdrawTo(account: address, amount: uint256): bool</text></g><g id="edge14" class="edge"><title>11-&gt;0</title><path fill="none" stroke="#000" d="M816.94,-1112.96C862.91,-1166.77 924.39,-1227.49 992.38,-1264.6 1061.31,-1302.22 1088.54,-1284.35 1165.38,-1300.6 1493.09,-1369.91 1871.33,-1451.47 2111.1,-1503.36"/><polygon fill="none" stroke="#000" points="2109.18 -1513.69 2140.72 -1509.78 2113.63 -1493.17 2109.18 -1513.69"/></g><g id="edge15" class="edge"><title>11-&gt;1</title><path fill="none" stroke="#000" d="M818.82,-1112.97C864.86,-1166.11 925.82,-1226.24 992.38,-1264.6 1048.04,-1296.68 1091.61,-1250.94 1132.38,-1300.6 1228.8,-1418.06 1068.99,-1870.19 1170.38,-1983.4 1259.49,-2082.91 1617.86,-2117.57 1858.21,-2129.65"/><polygon fill="#000" stroke="#000" points="1858.34 -2133.16 1868.5 -2130.15 1858.68 -2126.17 1858.34 -2133.16"/></g><g id="node19" class="node"><title>18</title><polygon fill="#f2f2f2" stroke="#000" points="343.17 -1447.9 343.17 -1665.5 1123.59 -1665.5 1123.59 -1447.9 343.17 -1447.9"/><text x="733.38" y="-1648.9" font-family="Times,serif" font-size="14" text-anchor="middle">&lt;&lt;Library&gt;&gt;</text><text x="733.38" y="-1632.1" font-family="Times,serif" font-size="14" text-anchor="middle">SafeERC20</text><text x="733.38" y="-1615.3" font-family="Times,serif" font-size="14" text-anchor="middle">node_modules/@openzeppelin/contracts/token/ERC20/utils/SafeERC20.sol</text><polyline fill="none" stroke="#000" points="343.17 -1607.1 1123.59 -1607.1"/><text x="351.17" y="-1590.5" font-family="Times,serif" font-size="14" text-anchor="start">Private:</text><text x="351.17" y="-1573.7" font-family="Times,serif" font-size="14" text-anchor="start">_callOptionalReturn(token: IERC20, data: bytes)</text><text x="351.17" y="-1556.9" font-family="Times,serif" font-size="14" text-anchor="start">Internal:</text><text x="351.17" y="-1540.1" font-family="Times,serif" font-size="14" text-anchor="start">safeTransfer(token: IERC20, to: address, value: uint256)</text><text x="351.17" y="-1523.3" font-family="Times,serif" font-size="14" text-anchor="start">safeTransferFrom(token: IERC20, from: address, to: address, value: uint256)</text><text x="351.17" y="-1506.5" font-family="Times,serif" font-size="14" text-anchor="start">safeApprove(token: IERC20, spender: address, value: uint256)</text><text x="351.17" y="-1489.7" font-family="Times,serif" font-size="14" text-anchor="start">safeIncreaseAllowance(token: IERC20, spender: address, value: uint256)</text><text x="351.17" y="-1472.9" font-family="Times,serif" font-size="14" text-anchor="start">safeDecreaseAllowance(token: IERC20, spender: address, value: uint256)</text><text x="351.17" y="-1456.1" font-family="Times,serif" font-size="14" text-anchor="start">safePermit(token: IERC20Permit, owner: address, spender: address, value: uint256, deadline: uint256, v: uint8, r: bytes32, s: bytes32)</text></g><g id="edge16" class="edge"><title>11-&gt;18</title><path fill="none" stroke="#000" stroke-dasharray="5 2" d="M733.38,-1113C733.38,-1207.28 733.38,-1341.75 733.38,-1437.71"/><polygon fill="#000" stroke="#000" points="729.88 -1437.75 733.38 -1447.75 736.88 -1437.75 729.88 -1437.75"/></g><g id="node13" class="node"><title>12</title><polygon fill="#f2f2f2" stroke="#000" points="1001.15 -736.1 1001.15 -1264.1 1555.6 -1264.1 1555.6 -736.1 1001.15 -736.1"/><text x="1278.38" y="-1247.5" font-family="Times,serif" font-size="14" text-anchor="middle">&lt;&lt;Abstract&gt;&gt;</text><text x="1278.38" y="-1230.7" font-family="Times,serif" font-size="14" text-anchor="middle">ERC4626</text><text x="1278.38" y="-1213.9" font-family="Times,serif" font-size="14" text-anchor="middle">node_modules/@openzeppelin/contracts/token/ERC20/extensions/ERC4626.sol</text><polyline fill="none" stroke="#000" points="1001.15 -1205.7 1555.6 -1205.7"/><text x="1009.15" y="-1189.1" font-family="Times,serif" font-size="14" text-anchor="start">Private:</text><text x="1009.15" y="-1172.3" font-family="Times,serif" font-size="14" text-anchor="start">_asset: IERC20Metadata</text><polyline fill="none" stroke="#000" points="1001.15 -1164.1 1555.6 -1164.1"/><text x="1009.15" y="-1147.5" font-family="Times,serif" font-size="14" text-anchor="start">Private:</text><text x="1009.15" y="-1130.7" font-family="Times,serif" font-size="14" text-anchor="start">_isVaultCollateralized(): bool</text><text x="1009.15" y="-1113.9" font-family="Times,serif" font-size="14" text-anchor="start">Internal:</text><text x="1009.15" y="-1097.1" font-family="Times,serif" font-size="14" text-anchor="start">_convertToShares(assets: uint256, rounding: Math.Rounding): (shares: uint256)</text><text x="1009.15" y="-1080.3" font-family="Times,serif" font-size="14" text-anchor="start">_convertToAssets(shares: uint256, rounding: Math.Rounding): (assets: uint256)</text><text x="1009.15" y="-1063.5" font-family="Times,serif" font-size="14" text-anchor="start">_deposit(caller: address, receiver: address, assets: uint256, shares: uint256)</text><text x="1009.15" y="-1046.7" font-family="Times,serif" font-size="14" text-anchor="start">_withdraw(caller: address, receiver: address, owner: address, assets: uint256, shares: uint256)</text><text x="1009.15" y="-1029.9" font-family="Times,serif" font-size="14" text-anchor="start">Public:</text><text x="1009.15" y="-1013.1" font-family="Times,serif" font-size="14" text-anchor="start">constructor(asset_: IERC20Metadata)</text><text x="1009.15" y="-996.3" font-family="Times,serif" font-size="14" text-anchor="start">asset(): address</text><text x="1009.15" y="-979.5" font-family="Times,serif" font-size="14" text-anchor="start">totalAssets(): uint256</text><text x="1009.15" y="-962.7" font-family="Times,serif" font-size="14" text-anchor="start">convertToShares(assets: uint256): (shares: uint256)</text><text x="1009.15" y="-945.9" font-family="Times,serif" font-size="14" text-anchor="start">convertToAssets(shares: uint256): (assets: uint256)</text><text x="1009.15" y="-929.1" font-family="Times,serif" font-size="14" text-anchor="start">maxDeposit(address): uint256</text><text x="1009.15" y="-912.3" font-family="Times,serif" font-size="14" text-anchor="start">maxMint(address): uint256</text><text x="1009.15" y="-895.5" font-family="Times,serif" font-size="14" text-anchor="start">maxWithdraw(owner: address): uint256</text><text x="1009.15" y="-878.7" font-family="Times,serif" font-size="14" text-anchor="start">maxRedeem(owner: address): uint256</text><text x="1009.15" y="-861.9" font-family="Times,serif" font-size="14" text-anchor="start">previewDeposit(assets: uint256): uint256</text><text x="1009.15" y="-845.1" font-family="Times,serif" font-size="14" text-anchor="start">previewMint(shares: uint256): uint256</text><text x="1009.15" y="-828.3" font-family="Times,serif" font-size="14" text-anchor="start">previewWithdraw(assets: uint256): uint256</text><text x="1009.15" y="-811.5" font-family="Times,serif" font-size="14" text-anchor="start">previewRedeem(shares: uint256): uint256</text><text x="1009.15" y="-794.7" font-family="Times,serif" font-size="14" text-anchor="start">deposit(assets: uint256, receiver: address): uint256</text><text x="1009.15" y="-777.9" font-family="Times,serif" font-size="14" text-anchor="start">mint(shares: uint256, receiver: address): uint256</text><text x="1009.15" y="-761.1" font-family="Times,serif" font-size="14" text-anchor="start">withdraw(assets: uint256, receiver: address, owner: address): uint256</text><text x="1009.15" y="-744.3" font-family="Times,serif" font-size="14" text-anchor="start">redeem(shares: uint256, receiver: address, owner: address): uint256</text></g><g id="edge17" class="edge"><title>12-&gt;0</title><path fill="none" stroke="#000" d="M1555.98,-1259.83C1558.78,-1261.45 1561.57,-1263.04 1564.38,-1264.6 1616.78,-1293.73 1637.47,-1281.74 1694.38,-1300.6 1834.65,-1347.09 1988.81,-1406.4 2112.64,-1456.13"/><polygon fill="none" stroke="#000" points="2108.84 -1465.92 2140.59 -1467.4 2116.7 -1446.45 2108.84 -1465.92"/></g><g id="edge18" class="edge"><title>12-&gt;13</title><path fill="none" stroke="#000" d="M1510.14,-1264.24C1683.7,-1461.31 1909.26,-1717.41 2018.47,-1841.4"/><polygon fill="#000" stroke="#000" points="2015.94 -1843.83 2025.17 -1849.02 2021.19 -1839.2 2015.94 -1843.83"/></g><g id="edge19" class="edge"><title>12-&gt;18</title><path fill="none" stroke="#000" stroke-dasharray="5 2" d="M1019.84,-1264.19C958.93,-1326.17 897.09,-1389.1 846.53,-1440.55"/><polygon fill="#000" stroke="#000" points="843.99 -1438.15 839.47 -1447.73 848.98 -1443.05 843.99 -1438.15"/></g><g id="edge20" class="edge"><title>13-&gt;1</title><path fill="none" stroke="#000" stroke-dasharray="5 2" d="M2083.38,-1983.1C2083.38,-1985.19 2083.38,-1987.29 2083.38,-1989.42"/><polygon fill="none" stroke="#000" points="2072.88 -1989.54 2083.38 -2019.54 2093.88 -1989.54 2072.88 -1989.54"/></g><g id="edge21" class="edge"><title>14-&gt;0</title><path fill="none" stroke="#000" d="M3904.84,-1138.18C3850.14,-1186.6 3782.95,-1236.06 3712.38,-1264.6 3539.51,-1334.52 3477.99,-1268.1 3294.38,-1300.6 3052.1,-1343.48 2781.57,-1419.8 2592.81,-1477.82"/><polygon fill="none" stroke="#000" points="2589.66 -1467.8 2564.1 -1486.7 2595.87 -1487.87 2589.66 -1467.8"/></g><g id="node16" class="node"><title>15</title><polygon fill="#f2f2f2" stroke="#000" points="1179.43 -1849.3 1179.43 -1982.9 1811.32 -1982.9 1811.32 -1849.3 1179.43 -1849.3"/><text x="1495.38" y="-1966.3" font-family="Times,serif" font-size="14" text-anchor="middle">&lt;&lt;Interface&gt;&gt;</text><text x="1495.38" y="-1949.5" font-family="Times,serif" font-size="14" text-anchor="middle">IERC20Permit</text><text x="1495.38" y="-1932.7" font-family="Times,serif" font-size="14" text-anchor="middle">node_modules/@openzeppelin/contracts/token/ERC20/extensions/draft-IERC20Permit.sol</text><polyline fill="none" stroke="#000" points="1179.43 -1924.5 1811.32 -1924.5"/><text x="1187.43" y="-1907.9" font-family="Times,serif" font-size="14" text-anchor="start">External:</text><text x="1187.43" y="-1891.1" font-family="Times,serif" font-size="14" text-anchor="start">permit(owner: address, spender: address, value: uint256, deadline: uint256, v: uint8, r: bytes32, s: bytes32)</text><text x="1187.43" y="-1874.3" font-family="Times,serif" font-size="14" text-anchor="start">nonces(owner: address): uint256</text><text x="1187.43" y="-1857.5" font-family="Times,serif" font-size="14" text-anchor="start">DOMAIN_SEPARATOR(): bytes32</text></g><g id="edge22" class="edge"><title>14-&gt;15</title><path fill="none" stroke="#000" stroke-dasharray="5 2" d="M3882.93,-1138.19C3830.76,-1181.39 3770.83,-1227.49 3712.38,-1264.6 3238.09,-1565.72 3117.97,-1674.8 2573.38,-1812.8 2419.63,-1851.76 2031.03,-1830.57 1841.36,-1846.85"/><polygon fill="none" stroke="#000" points="1840.09 -1836.42 1811.34 -1849.96 1842.26 -1857.31 1840.09 -1836.42"/></g><g id="node17" class="node"><title>16</title><polygon fill="#f2f2f2" stroke="#000" points="3183.82 -401.9 3183.82 -485.1 3720.93 -485.1 3720.93 -401.9 3183.82 -401.9"/><text x="3452.38" y="-468.5" font-family="Times,serif" font-size="14" text-anchor="middle">ERC20PresetFixedSupply</text><text x="3452.38" y="-451.7" font-family="Times,serif" font-size="14" text-anchor="middle">node_modules/@openzeppelin/contracts/token/ERC20/presets/ERC20PresetFixedSupply.sol</text><polyline fill="none" stroke="#000" points="3183.82 -443.5 3720.93 -443.5"/><text x="3191.82" y="-426.9" font-family="Times,serif" font-size="14" text-anchor="start">Public:</text><text x="3191.82" y="-410.1" font-family="Times,serif" font-size="14" text-anchor="start">constructor(name: string, symbol: string, initialSupply: uint256, owner: address)</text></g><g id="edge23" class="edge"><title>16-&gt;2</title><path fill="none" stroke="#000" d="M3452.38,-485.28C3452.38,-574.72 3452.38,-789.82 3452.38,-911.45"/><polygon fill="none" stroke="#000" points="3441.88 -911.67 3452.38 -941.67 3462.88 -911.67 3441.88 -911.67"/></g><g id="node18" class="node"><title>17</title><polygon fill="#f2f2f2" stroke="#000" points="2089.89 -330.7 2089.89 -556.3 2630.86 -556.3 2630.86 -330.7 2089.89 -330.7"/><text x="2360.38" y="-539.7" font-family="Times,serif" font-size="14" text-anchor="middle">ERC20PresetMinterPauser</text><text x="2360.38" y="-522.9" font-family="Times,serif" font-size="14" text-anchor="middle">node_modules/@openzeppelin/contracts/token/ERC20/presets/ERC20PresetMinterPauser.sol</text><polyline fill="none" stroke="#000" points="2089.89 -514.7 2630.86 -514.7"/><text x="2097.89" y="-498.1" font-family="Times,serif" font-size="14" text-anchor="start">Public:</text><text x="2097.89" y="-481.3" font-family="Times,serif" font-size="14" text-anchor="start">MINTER_ROLE: bytes32</text><text x="2097.89" y="-464.5" font-family="Times,serif" font-size="14" text-anchor="start">PAUSER_ROLE: bytes32</text><polyline fill="none" stroke="#000" points="2089.89 -456.3 2630.86 -456.3"/><text x="2097.89" y="-439.7" font-family="Times,serif" font-size="14" text-anchor="start">Internal:</text><text x="2097.89" y="-422.9" font-family="Times,serif" font-size="14" text-anchor="start">_beforeTokenTransfer(from: address, to: address, amount: uint256)</text><text x="2097.89" y="-406.1" font-family="Times,serif" font-size="14" text-anchor="start">Public:</text><text x="2097.89" y="-389.3" font-family="Times,serif" font-size="14" text-anchor="start">constructor(name: string, symbol: string)</text><text x="2097.89" y="-372.5" font-family="Times,serif" font-size="14" text-anchor="start">mint(to: address, amount: uint256)</text><text x="2097.89" y="-355.7" font-family="Times,serif" font-size="14" text-anchor="start">pause()</text><text x="2097.89" y="-338.9" font-family="Times,serif" font-size="14" text-anchor="start">unpause()</text></g><g id="edge24" class="edge"><title>17-&gt;2</title><path fill="none" stroke="#000" d="M2631,-505.62C2800.91,-551.86 3019.76,-626.33 3192.38,-735.6 3269.59,-784.47 3341.24,-860.34 3389.68,-918.15"/><polygon fill="none" stroke="#000" points="3381.84 -925.13 3408.98 -941.68 3398.08 -911.82 3381.84 -925.13"/></g><g id="edge25" class="edge"><title>17-&gt;5</title><path fill="none" stroke="#000" d="M2252.23,-556.4C2144.88,-667.48 1983.59,-834.36 1892.81,-928.3"/><polygon fill="none" stroke="#000" points="1885.15 -921.1 1871.86 -949.97 1900.25 -935.7 1885.15 -921.1"/></g><g id="edge26" class="edge"><title>18-&gt;1</title><path fill="none" stroke="#000" stroke-dasharray="5 2" d="M804.44,-1665.94C876.02,-1765.52 995.92,-1908.71 1137.38,-1983.4 1259.2,-2047.72 1619.35,-2092.73 1858.46,-2116.49"/><polygon fill="#000" stroke="#000" points="1858.39 -2120 1868.68 -2117.5 1859.08 -2113.04 1858.39 -2120"/></g><g id="edge27" class="edge"><title>18-&gt;15</title><path fill="none" stroke="#000" stroke-dasharray="5 2" d="M963.29,-1665.54C1087.31,-1723.71 1236.82,-1793.83 1345.74,-1844.91"/><polygon fill="#000" stroke="#000" points="1344.28 -1848.1 1354.82 -1849.18 1347.26 -1841.76 1344.28 -1848.1"/></g><g id="node20" class="node"><title>19</title><polygon fill="#f2f2f2" stroke="#000" points="0 -887.3 0 -1112.9 464.75 -1112.9 464.75 -887.3 0 -887.3"/><text x="232.38" y="-1096.3" font-family="Times,serif" font-size="14" text-anchor="middle">TokenTimelock</text><text x="232.38" y="-1079.5" font-family="Times,serif" font-size="14" text-anchor="middle">node_modules/@openzeppelin/contracts/token/ERC20/utils/TokenTimelock.sol</text><polyline fill="none" stroke="#000" points="0 -1071.3 464.75 -1071.3"/><text x="8" y="-1054.7" font-family="Times,serif" font-size="14" text-anchor="start">Private:</text><text x="8" y="-1037.9" font-family="Times,serif" font-size="14" text-anchor="start">_token: IERC20</text><text x="8" y="-1021.1" font-family="Times,serif" font-size="14" text-anchor="start">_beneficiary: address</text><text x="8" y="-1004.3" font-family="Times,serif" font-size="14" text-anchor="start">_releaseTime: uint256</text><polyline fill="none" stroke="#000" points="0 -996.1 464.75 -996.1"/><text x="8" y="-979.5" font-family="Times,serif" font-size="14" text-anchor="start">Public:</text><text x="8" y="-962.7" font-family="Times,serif" font-size="14" text-anchor="start">constructor(token_: IERC20, beneficiary_: address, releaseTime_: uint256)</text><text x="8" y="-945.9" font-family="Times,serif" font-size="14" text-anchor="start">token(): IERC20</text><text x="8" y="-929.1" font-family="Times,serif" font-size="14" text-anchor="start">beneficiary(): address</text><text x="8" y="-912.3" font-family="Times,serif" font-size="14" text-anchor="start">releaseTime(): uint256</text><text x="8" y="-895.5" font-family="Times,serif" font-size="14" text-anchor="start">release()</text></g><g id="edge29" class="edge"><title>19-&gt;1</title><path fill="none" stroke="#000" d="M211.06,-1113.2C185.21,-1285.55 164.04,-1616.25 334.38,-1812.8 530.27,-2038.85 1431.38,-2107.92 1858.1,-2128.15"/><polygon fill="#000" stroke="#000" points="1858.25 -2131.66 1868.4 -2128.63 1858.58 -2124.66 1858.25 -2131.66"/></g><g id="edge28" class="edge"><title>19-&gt;18</title><path fill="none" stroke="#000" stroke-dasharray="5 2" d="M333.46,-1113C419.4,-1208.13 542.32,-1344.2 629.15,-1440.32"/><polygon fill="#000" stroke="#000" points="626.56 -1442.67 635.86 -1447.75 631.75 -1437.98 626.56 -1442.67"/></g></g></svg>